<svg width="208" height="272" viewBox="0 0 208 272" fill="none" xmlns="http://www.w3.org/2000/svg">
<g clip-path="url(#clip0)">
<path d="M78.7133 142.98C83.1122 144.207 87.628 141.784 88.8035 137.577C89.4099 135.399 89.3886 133.088 88.745 130.883C88.3195 129.433 88.1121 127.94 88.1174 126.447C88.1227 125.831 88.1599 125.215 88.2397 124.604C88.5003 122.569 87.1706 120.625 85.1068 120.051C83.043 119.477 80.9047 120.449 80.075 122.325C79.2186 124.253 77.9686 125.99 76.3942 127.44C74.7028 128.992 73.49 130.957 72.8783 133.141C71.7028 137.348 74.3145 141.758 78.7133 142.98Z" fill="#D4E496" stroke="black" stroke-width="0.25" stroke-miterlimit="10"/>
<path d="M75.9741 133.844C75.2507 136.442 76.8571 139.162 79.5698 139.916C82.2825 140.671 85.0643 139.178 85.7877 136.58C86.5111 133.982 85.1601 130.338 82.4474 129.583C79.74 128.829 76.6975 131.246 75.9741 133.844Z" fill="#B28966" stroke="black" stroke-width="0.25" stroke-miterlimit="10"/>
<path d="M84.3297 136.17C84.9892 133.805 83.9308 130.586 81.6968 129.449C81.9521 129.465 82.2021 129.513 82.4468 129.577C85.1594 130.331 86.5105 133.975 85.7871 136.573C85.0637 139.171 82.2766 140.669 79.5692 139.91C79.3245 139.84 79.0852 139.755 78.8564 139.655C81.3138 139.979 83.6755 138.534 84.3297 136.17Z" fill="#8B6847"/>
<path d="M76.1287 127.181C77.6659 125.768 78.8893 124.068 79.7297 122.182C80.1659 121.199 80.9584 120.407 81.9637 119.945C82.9584 119.493 84.102 119.408 85.1818 119.701L85.2083 119.706C86.2934 120.009 87.2349 120.678 87.8572 121.587C88.4796 122.5 88.7509 123.589 88.6126 124.657C88.5381 125.252 88.4955 125.858 88.4955 126.458C88.4902 127.919 88.6977 129.38 89.1072 130.793C89.7721 133.056 89.7934 135.436 89.1711 137.678C87.953 142.05 83.2563 144.584 78.6819 143.341C78.6446 143.331 78.6127 143.32 78.5755 143.309C78.5542 143.304 78.5382 143.299 78.517 143.293C78.2297 143.208 77.9425 143.113 77.6659 142.996C73.6607 141.381 71.3841 137.115 72.5224 133.035C73.1447 130.798 74.3894 128.774 76.1287 127.181ZM78.8095 142.635C79.4797 142.821 80.1659 142.922 80.8574 142.938C84.3254 143.001 87.5062 140.834 88.4423 137.476C89.0274 135.357 89.0115 133.115 88.3838 130.974C87.953 129.492 87.7349 127.967 87.7402 126.437C87.7455 125.805 87.7881 125.178 87.8626 124.551C88.0753 122.888 87.1019 121.278 85.5541 120.593C85.3786 120.513 85.1924 120.45 85.0062 120.397C83.1446 119.876 81.1659 120.768 80.4106 122.474C79.5382 124.445 78.2563 126.224 76.6447 127.701C75.0011 129.21 73.8202 131.123 73.2298 133.237C72.1181 137.253 74.6181 141.466 78.8095 142.635Z" fill="#37B678" stroke="black" stroke-width="0.25" stroke-miterlimit="10"/>
<path d="M85.295 137.825C85.3375 137.713 85.2897 137.586 85.1833 137.532L84.7365 137.293C84.6301 137.235 84.4918 137.272 84.428 137.373C84.1939 137.718 83.6514 138.473 83.1035 138.919C82.6035 139.323 81.6142 139.642 80.5823 139.689C78.5398 139.78 77.0717 140.3 76.3111 141.74C75.1782 143.886 76.4866 146.797 79.2366 148.248C81.9865 149.698 85.1354 149.135 86.2684 146.994C87.0343 145.544 86.4599 143.907 85.529 142.282C85.0024 141.363 84.6992 140.46 84.7684 139.801C84.8322 139.11 85.146 138.212 85.295 137.825Z" fill="#E289B0" stroke="black" stroke-width="0.25" stroke-miterlimit="10"/>
<path fill-rule="evenodd" clip-rule="evenodd" d="M76.0293 144.952C76.4548 145.648 77.0399 146.301 77.7686 146.848C80.2526 148.713 83.4547 148.665 84.9227 146.731C85.9174 145.425 85.6142 143.719 84.9546 141.971C84.6568 141.18 84.5025 140.426 84.5397 139.825C84.5291 140.468 84.8216 141.302 85.311 142.152C86.2418 143.778 86.8163 145.414 86.0503 146.864C84.9174 149.01 81.7685 149.568 79.0186 148.118C77.5824 147.364 76.5346 146.2 76.0293 144.952Z" fill="#C7638F"/>
<path d="M81.596 144.258C80.5215 146.288 79.5588 147.887 79.4418 147.828C79.3247 147.77 80.1066 146.07 81.1811 144.041C82.2555 142.011 83.2183 140.412 83.3353 140.471C83.4523 140.534 82.6704 142.229 81.596 144.258ZM84.9735 145.911C84.048 147.658 81.5534 148.158 81.4364 148.094C81.3247 148.036 83.6331 147.441 84.5586 145.693C85.4842 143.945 84.6704 141.703 84.7874 141.762C84.8991 141.82 85.8937 144.163 84.9735 145.911ZM77.5056 141.969C76.5801 143.717 77.5801 146.059 77.6918 146.118C77.8035 146.176 76.995 143.934 77.9205 142.187C78.846 140.439 81.1545 139.844 81.0428 139.785C80.9258 139.727 78.4312 140.221 77.5056 141.969Z" fill="#C54C82"/>
<path d="M83.2047 145.237C82.1622 147.213 80.3325 148.291 80.2793 148.265C80.2261 148.238 81.5611 146.894 82.6037 144.918C83.6462 142.942 84.0079 141.088 84.0611 141.114C84.1143 141.141 84.2526 143.266 83.2047 145.237ZM79.2633 143.159C78.2208 145.136 78.3538 147.255 78.407 147.282C78.4602 147.309 78.8165 145.449 79.8644 143.478C80.9069 141.502 82.242 140.158 82.1888 140.131C82.1409 140.105 80.3112 141.183 79.2633 143.159Z" fill="#C54C82"/>
<path fill-rule="evenodd" clip-rule="evenodd" d="M77.4434 141.119C77.4487 141.358 77.3263 141.709 77.1721 141.9C77.0497 142.049 76.9433 142.213 76.8476 142.405C76.7093 142.681 76.5338 142.793 76.4593 142.654C76.3848 142.516 76.4433 142.182 76.5816 141.905C76.7572 141.565 76.9433 141.273 77.1455 141.029C77.305 140.837 77.438 140.88 77.4434 141.119Z" fill="#FFCFC9"/>
<path d="M63.5076 135.49L64.0342 137.982C64.1087 138.333 64.3533 138.572 64.6353 138.572H67.9331C68.1884 138.572 68.4224 138.364 68.5128 138.051L70.6458 130.778H69.199L67.848 134.465L67.2895 128.425H65.6086L65.0023 134.284L63.9278 129.392L62.3906 129.753L63.5076 135.49Z" fill="#9AD052" stroke="black" stroke-width="0.25" stroke-miterlimit="10"/>
<path d="M73.3223 124.106C73.168 122.082 71.2851 120.488 68.9873 120.488C68.6149 120.488 68.2585 120.531 67.9128 120.605C67.2745 119.383 65.966 118.539 64.4501 118.539C62.3119 118.539 60.5725 120.212 60.5725 122.279C60.5725 122.38 60.5778 122.48 60.5885 122.576C58.7321 122.996 57.3545 124.526 57.3545 126.353C57.3545 128.5 59.264 130.242 61.6257 130.242C62.5246 130.242 63.3597 129.987 64.0512 129.551C64.6682 130.115 65.4714 130.46 66.3437 130.46C66.8969 130.46 67.4181 130.322 67.8862 130.083C68.6522 130.895 69.7638 131.411 70.9979 131.411C73.3063 131.411 75.1786 129.626 75.1786 127.421C75.1733 126.04 74.4393 124.823 73.3223 124.106Z" fill="#5FA43D" stroke="black" stroke-width="0.25" stroke-miterlimit="10"/>
<path d="M61.5928 129.681C60.5397 129.681 59.7897 129.171 59.311 128.671C58.6355 127.976 58.3482 127.163 58.3376 127.131C58.2738 126.95 58.3589 126.754 58.5291 126.69C58.6993 126.626 58.8855 126.716 58.9493 126.892C58.9918 127.003 59.9599 129.633 62.5184 128.847C62.6939 128.794 62.8747 128.9 62.9226 129.081C62.9705 129.261 62.8747 129.452 62.6992 129.506C62.3003 129.628 61.9333 129.681 61.5928 129.681Z" fill="#477D27"/>
<path d="M66.2376 129.916C65.3068 129.916 64.743 129.278 64.5568 128.885C64.477 128.715 64.5409 128.508 64.7004 128.423C64.86 128.338 65.0568 128.407 65.1366 128.577C65.1579 128.62 65.5674 129.417 66.594 129.183C66.7695 129.146 66.9451 129.262 66.9823 129.448C67.0195 129.634 66.9078 129.82 66.7323 129.858C66.5568 129.9 66.3919 129.916 66.2376 129.916Z" fill="#477D27"/>
<path d="M71.3395 130.623C71.1427 130.623 71.0204 130.607 71.0097 130.602C70.8289 130.575 70.7065 130.4 70.7331 130.214C70.7597 130.028 70.9246 129.895 71.1001 129.922C71.2012 129.938 73.531 130.225 74.2384 127.42C74.2863 127.234 74.4618 127.128 74.6373 127.175C74.8129 127.223 74.9139 127.415 74.8714 127.595C74.4246 129.37 73.4033 130.092 72.6214 130.39C72.1108 130.586 71.6374 130.623 71.3395 130.623Z" fill="#477D27"/>
<path d="M61.8165 121.593C61.7899 121.593 61.7686 121.588 61.742 121.583C61.5665 121.54 61.4548 121.354 61.4973 121.168C61.5027 121.147 61.625 120.61 62.0239 120.063C62.3963 119.559 63.0877 118.942 64.2739 118.884C64.4547 118.873 64.609 119.022 64.6143 119.213C64.625 119.404 64.4813 119.564 64.3005 119.574C62.5186 119.659 62.1356 121.312 62.1303 121.328C62.0984 121.487 61.9654 121.593 61.8165 121.593Z" fill="#C8FFBF"/>
<path d="M61.4397 122.922C61.2588 122.922 61.1152 122.768 61.1152 122.576C61.1152 122.491 61.1206 122.21 61.1791 122.024C61.2376 121.843 61.4184 121.748 61.5939 121.806C61.7641 121.865 61.8599 122.061 61.8014 122.242C61.7854 122.295 61.7695 122.465 61.7695 122.576C61.7695 122.768 61.6205 122.922 61.4397 122.922Z" fill="#BFFFCB"/>
<path d="M54.7151 130.868C54.6247 130.842 52.3854 130.252 50.6514 128.584L51.3162 127.898C52.8641 129.386 54.9385 129.938 54.9545 129.949L54.7151 130.868Z" fill="#7ABD4C" stroke="black" stroke-width="0.25" stroke-miterlimit="10"/>
<path d="M54.6293 130.664C54.6133 130.637 52.7464 128.087 50.7783 126.982L51.2411 126.148C53.3953 127.349 55.3208 129.995 55.4006 130.106L54.6293 130.664ZM55.5814 130.244C55.4857 130.112 53.1613 127.03 52.5123 124.284L53.4432 124.066C54.0495 126.611 56.3208 129.639 56.3474 129.665L55.5814 130.244Z" fill="#4FA812" stroke="black" stroke-width="0.25" stroke-miterlimit="10"/>
<path d="M55.3264 130.493C55.3104 130.467 53.5285 128.182 52.2041 126.828L52.8903 126.158C54.2626 127.55 56.0125 129.813 56.0923 129.914L55.3264 130.493Z" fill="#7ABD4C" stroke="black" stroke-width="0.25" stroke-miterlimit="10"/>
<path d="M54.8793 129.39C54.8793 129.39 51.5868 131.547 55.1612 135.787C55.1612 135.787 66.3366 149.657 69.0386 149.413C69.0386 149.413 71.2195 150.093 67.2302 142.804C67.2302 142.804 63.5919 136.01 60.5335 131.59C60.5388 131.59 57.8899 127.552 54.8793 129.39Z" fill="#EB5900" stroke="black" stroke-width="0.25" stroke-miterlimit="10"/>
<path d="M60.4075 133.012C60.4128 132.943 60.4075 132.863 60.3755 132.805C58.7745 129.193 56.982 129.756 56.9128 129.782C56.7692 129.825 56.6841 130.021 56.7054 130.197C56.7267 130.383 56.865 130.489 57.0033 130.446C57.0671 130.43 58.5245 130.021 59.9287 133.182C59.9979 133.336 60.1521 133.389 60.2745 133.288C60.3543 133.214 60.3968 133.113 60.4075 133.012Z" fill="#F48435"/>
<path d="M75.4397 133.063C73.711 133.063 73.711 133.643 71.9823 133.643C70.2536 133.643 70.2536 133.063 68.5249 133.063C66.2218 133.063 63.3389 134.216 63.3389 138.259C63.3389 144.608 66.7963 149.798 69.1047 149.798C70.8334 149.798 70.8334 149.219 71.9876 149.219C73.1419 149.219 73.1419 149.798 74.8705 149.798C77.1737 149.798 80.6364 144.602 80.6364 138.259C80.6258 134.222 77.7428 133.063 75.4397 133.063Z" fill="#DD2E44" stroke="black" stroke-width="0.25" stroke-miterlimit="10"/>
<path d="M71.4057 133.062C71.4057 133.062 70.1132 130.757 67.9536 130.757C66.225 130.757 65.3633 131.91 65.3633 131.91C65.3633 131.91 67.092 133.641 68.3845 133.641C69.677 133.641 71.4057 133.062 71.4057 133.062Z" fill="#77B255" stroke="black" stroke-width="0.25" stroke-miterlimit="10"/>
<path d="M71.837 134.795C72.0764 134.795 72.2679 134.535 72.2679 134.216C72.2679 132.23 71.7519 130.397 70.8477 129.191C70.6775 128.968 70.4063 128.968 70.2361 129.191C70.0658 129.414 70.0658 129.78 70.2361 130.009C70.9807 131.002 71.4062 132.538 71.4062 134.216C71.4062 134.535 71.5977 134.795 71.837 134.795Z" fill="#662113" stroke="black" stroke-width="0.25" stroke-miterlimit="10"/>
<path d="M70.2256 134.551C70.1831 134.498 70.1192 134.45 70.0607 134.429C66.4278 133.032 65.5821 134.679 65.5555 134.748C65.4864 134.875 65.5608 135.072 65.6991 135.178C65.8427 135.29 66.0129 135.268 66.0768 135.141C66.1087 135.088 66.8374 133.786 70.0129 135.003C70.1671 135.061 70.3107 134.987 70.3267 134.833C70.3267 134.732 70.2894 134.631 70.2256 134.551Z" fill="#EF6A7A"/>
<path d="M34.5146 116.039C34.1317 116.023 33.7859 116.028 33.4774 116.108C33.0306 116.203 32.887 116.342 32.6636 116.968L32.2487 118.137C32.1264 118.483 32.1477 118.53 32.4934 118.653L35.1423 119.588L35.637 118.19C35.9189 117.383 35.7965 117.271 35.0465 116.809L35.1742 116.448L37.6263 117.314L37.4933 117.686C36.6316 117.548 36.4135 117.579 36.1316 118.366L35.637 119.763L37.6635 120.48C38.6848 120.841 38.7752 120.751 39.2326 119.736L39.5784 119.858L38.4135 123.158L38.0678 123.035C38.3231 122.084 38.2805 121.952 37.2699 121.596L32.7381 119.997C31.7221 119.641 31.6317 119.731 31.2168 120.618L30.8711 120.496L32.1849 116.788C32.5519 115.757 32.6902 115.327 32.7487 115.13C33.1317 115.253 33.9934 115.502 34.5944 115.651L34.5146 116.039Z" fill="#F4B79E"/>
<path d="M44.7396 110.446C44.6651 110.568 44.5853 110.68 44.4896 110.807C43.9045 111.636 43.4417 111.907 42.5641 111.966C41.7822 112.024 40.8992 111.987 40.1439 111.987C39.6971 111.987 39.5482 112.088 39.2397 112.582L39.0323 112.916L40.6546 113.915C41.5375 114.457 41.6652 114.377 42.2556 113.607L42.5641 113.798L40.8035 116.656L40.495 116.465C40.9258 115.557 40.9258 115.451 40.0429 114.909L35.8887 112.364C35.0111 111.822 34.894 111.907 34.3036 112.672L33.9951 112.481L35.6706 109.756C36.16 108.964 36.5695 108.507 37.0855 108.268C37.6227 108.008 38.2663 108.018 38.9046 108.411C39.8142 108.969 40.0056 109.888 39.862 110.845C40.2982 110.861 41.2663 110.85 41.9311 110.823C42.7237 110.786 43.1173 110.744 43.5162 110.669C43.9843 110.579 44.229 110.425 44.4524 110.218L44.7396 110.446ZM38.9472 112.226C39.2716 111.7 39.3993 111.307 39.3408 110.919C39.2823 110.34 38.9684 109.92 38.4046 109.575C37.2876 108.89 36.4366 109.362 35.9632 110.127C35.777 110.425 35.7185 110.621 35.7344 110.733C35.7504 110.866 35.8408 110.961 36.1015 111.121L38.6599 112.688L38.9472 112.226Z" fill="#F4B79E"/>
<path d="M48.031 104.17C48.2118 104.446 48.9139 105.583 49.0894 105.923L44.898 110.252L44.6374 110.003C45.3608 109.126 45.3448 108.993 44.6161 108.292L41.1428 104.94C40.3609 104.185 40.2226 104.239 39.5311 104.834L39.2705 104.579L41.9088 101.853C42.7279 101.009 43.0417 100.663 43.1428 100.546C43.3608 100.738 44.0736 101.354 44.5895 101.784L44.3661 102.103C43.9885 101.89 43.6747 101.779 43.3928 101.715C42.9832 101.598 42.7438 101.726 42.2439 102.241L41.4832 103.027C41.2066 103.309 41.212 103.357 41.4779 103.612L43.414 105.482L44.3395 104.525C44.9512 103.893 44.8661 103.718 44.3661 103.022L44.6427 102.735L46.4938 104.52L46.2172 104.807C45.4619 104.308 45.3023 104.292 44.7119 104.903L43.7917 105.848L45.5097 107.506C46.1267 108.101 46.3608 108.016 46.8129 107.564L47.5735 106.778C48.0841 106.247 48.1001 106.077 48.0576 105.662C48.031 105.296 47.8501 104.765 47.7012 104.377L48.031 104.17Z" fill="#F4B79E"/>
<path d="M50.3853 97.4681C49.747 96.9262 49.0023 96.4534 48.0555 97.1068C47.3056 97.6275 47.3907 98.3712 47.763 98.9078C48.2257 99.5771 48.9013 99.6303 50.0502 99.4815C51.6618 99.269 52.5395 99.3647 53.2097 100.332C53.9597 101.415 53.598 102.876 52.2735 103.795C51.6618 104.22 51.0076 104.417 50.4757 104.55C50.2097 104.332 49.5555 103.668 49.1193 103.184L49.3906 102.876C50.0555 103.407 51.1565 104.002 52.1991 103.285C52.9065 102.797 53.0022 102.016 52.5501 101.362C52.0342 100.618 51.4118 100.581 50.1991 100.709C48.7417 100.868 47.7949 100.799 47.13 99.8428C46.4864 98.9131 46.662 97.5425 48.0236 96.6021C48.614 96.1931 49.2683 95.97 49.5076 95.8584C49.8002 96.1931 50.1406 96.5915 50.6725 97.1865L50.3853 97.4681Z" fill="#F4B79E"/>
<path d="M60.5256 91.0866C59.6267 91.5488 59.5629 91.6444 59.9405 92.6006L61.749 97.1428C62.132 98.0991 62.249 98.0991 63.2117 97.8334L63.3447 98.1734L60.2065 99.4219L60.0735 99.0819C60.9671 98.5931 61.0416 98.5347 60.6639 97.5784L59.765 95.3206L56.0151 96.8081L56.914 99.0659C57.2916 100.012 57.398 100.017 58.3608 99.7566L58.4937 100.097L55.3661 101.34L55.2332 101C56.1002 100.538 56.1906 100.458 55.8129 99.5016L54.0045 94.9594C53.6215 94.0031 53.4938 93.9819 52.547 94.2581L52.4141 93.9181L55.5417 92.675L55.6746 93.015C54.8023 93.4559 54.7278 93.5781 55.1002 94.5238L55.8076 96.3034L59.5575 94.8159L58.8501 93.0363C58.4725 92.0906 58.3182 92.0588 57.3874 92.335L57.2544 91.995L60.3926 90.7466L60.5256 91.0866Z" fill="#F4B79E"/>
<path d="M78.7269 95.7365C78.5088 96.3156 78.1205 97.1762 77.9024 97.5534C77.546 97.6012 76.5673 97.7446 75.6418 97.6703C72.6525 97.4312 71.3494 95.3381 71.5196 93.229C71.7217 90.7268 73.7589 89.1543 76.5354 89.3775C77.5886 89.4625 78.4397 89.7599 78.8226 89.8449C78.8279 90.4028 78.8545 91.1731 78.8971 91.784L78.4928 91.8371C78.312 90.9712 78.046 90.4559 77.4397 90.1478C77.1365 89.9778 76.6524 89.8609 76.2163 89.829C74.2429 89.6696 73.0887 91.0775 72.9291 93.0803C72.7376 95.4178 73.828 97.0328 75.7535 97.1868C76.961 97.2825 77.6312 96.7671 78.3599 95.5718L78.7269 95.7365Z" fill="#F4B79E"/>
<path d="M86.2425 91.5547C88.2531 92.2506 89.4924 94.3916 88.6946 96.6972C87.8329 99.1887 85.5882 100.156 83.4446 99.4172C81.2 98.6415 80.1575 96.3837 80.9128 94.1897C81.6308 92.1231 83.7638 90.6941 86.2425 91.5547ZM85.8701 91.9212C84.5936 91.4803 83.0829 92.1975 82.3436 94.3437C81.6096 96.4687 82.1627 98.4556 83.7957 99.0187C85.1414 99.4862 86.5244 98.7903 87.2956 96.5697C88.1254 94.1578 87.3595 92.4312 85.8701 91.9212Z" fill="#F4B79E"/>
<path d="M94.4539 105.254C94.3315 105.174 94.2252 105.095 94.0975 104.994C93.2837 104.388 93.0231 103.915 92.9912 103.039C92.9539 102.258 93.0177 101.381 93.039 100.622C93.0497 100.175 92.9539 100.021 92.4699 99.7026L92.1401 99.4848L91.0976 101.079C90.5284 101.944 90.6029 102.072 91.3635 102.688L91.1614 102.991L88.3477 101.158L88.5498 100.855C89.4487 101.312 89.5551 101.312 90.1242 100.446L92.789 96.3717C93.3528 95.511 93.2731 95.3889 92.5231 94.7779L92.7252 94.4751L95.406 96.2229C96.1879 96.7329 96.6294 97.1579 96.8528 97.6785C97.0974 98.2204 97.0708 98.8632 96.6613 99.4901C96.0815 100.377 95.1507 100.547 94.1986 100.383C94.172 100.818 94.156 101.785 94.1613 102.449C94.1773 103.246 94.2092 103.634 94.273 104.038C94.3528 104.505 94.4964 104.755 94.6986 104.983L94.4539 105.254ZM92.8316 99.421C93.3475 99.7557 93.7411 99.8992 94.1294 99.8514C94.7145 99.8089 95.14 99.506 95.5017 98.9535C96.2198 97.8539 95.773 96.9932 95.0177 96.5045C94.7252 96.3132 94.5284 96.2442 94.422 96.2601C94.289 96.2707 94.1879 96.361 94.023 96.616L92.3848 99.1235L92.8316 99.421Z" fill="#F4B79E"/>
<path d="M106.088 106.401C105.493 105.891 105.227 105.795 104.791 106.151C104.482 106.416 104.094 106.735 103.264 107.506L99.6525 110.852L99.3067 110.481L100.434 102.321L98.2163 104.371C97.4078 105.12 97.0355 105.508 96.7961 105.774C96.3653 106.209 96.4185 106.565 96.9717 107.261L96.7057 107.511L94.6738 105.322L94.9398 105.072C95.493 105.577 95.8281 105.673 96.3068 105.306C96.6259 105.062 97.0355 104.716 97.8493 103.962L100.121 101.858C100.381 101.619 100.519 101.455 100.573 101.104C100.642 100.727 100.509 100.488 100.158 100.02L100.424 99.7705L101.743 101.189L100.775 109.041L102.881 107.091C103.711 106.326 104.067 105.965 104.323 105.673C104.7 105.274 104.658 104.95 104.03 104.185L104.296 103.936L106.354 106.156L106.088 106.401Z" fill="#F4B79E"/>
<path d="M105.764 117.026C105.45 117.122 104.158 117.462 103.78 117.531L100.839 112.272L101.153 112.096C101.786 113.042 101.913 113.063 102.802 112.575L107.02 110.221C107.966 109.69 107.956 109.541 107.589 108.712L107.908 108.537L109.759 111.841C110.333 112.867 110.573 113.271 110.658 113.398C110.408 113.552 109.615 114.051 109.051 114.423L108.807 114.115C109.115 113.818 109.317 113.547 109.461 113.297C109.69 112.936 109.637 112.67 109.291 112.049L108.754 111.092C108.562 110.747 108.514 110.742 108.195 110.917L105.844 112.229L106.493 113.393C106.919 114.158 107.115 114.131 107.929 113.855L108.126 114.2L105.881 115.454L105.69 115.109C106.387 114.53 106.45 114.381 106.036 113.642L105.392 112.49L103.307 113.653C102.557 114.073 102.573 114.322 102.876 114.886L103.408 115.836C103.77 116.479 103.924 116.543 104.339 116.623C104.701 116.702 105.259 116.686 105.674 116.655L105.764 117.026Z" fill="#F4B79E"/>
<path d="M106.444 125.943C106.402 125.805 106.375 125.672 106.338 125.518C106.104 124.53 106.21 124.004 106.748 123.313C107.221 122.691 107.838 122.059 108.343 121.491C108.641 121.156 108.668 120.981 108.498 120.423L108.386 120.046L106.561 120.598C105.567 120.896 105.546 121.045 105.732 122.001L105.381 122.107L104.407 118.893L104.758 118.787C105.152 119.711 105.232 119.785 106.226 119.483L110.891 118.075C111.88 117.777 111.891 117.634 111.716 116.688L112.067 116.582L112.992 119.647C113.263 120.535 113.327 121.151 113.168 121.693C113.003 122.266 112.572 122.739 111.854 122.957C110.833 123.265 110.019 122.798 109.396 122.059C109.093 122.373 108.46 123.106 108.035 123.616C107.535 124.237 107.306 124.556 107.099 124.901C106.859 125.31 106.806 125.592 106.817 125.9L106.444 125.943ZM108.96 120.439C109.141 121.029 109.349 121.39 109.678 121.602C110.152 121.942 110.673 121.985 111.306 121.799C112.561 121.422 112.774 120.471 112.513 119.61C112.412 119.275 112.306 119.1 112.21 119.042C112.099 118.962 111.966 118.967 111.673 119.058L108.801 119.924L108.96 120.439Z" fill="#F4B79E"/>
<path d="M39.6591 149.117C39.3985 148.634 39.2495 148.501 38.8772 148.628C38.6219 148.724 38.2868 148.841 37.5528 149.144L34.3932 150.435L34.2709 150.137L37.0155 145.085L35.0475 145.887C34.3401 146.174 33.9943 146.344 33.7709 146.455C33.3773 146.636 33.3401 146.88 33.5209 147.465L33.2975 147.555L32.5156 145.643L32.7337 145.552C32.9731 146.025 33.1699 146.163 33.5688 146.041C33.8294 145.961 34.1911 145.834 34.9092 145.542L36.9198 144.724C37.1432 144.633 37.2602 144.564 37.3772 144.352C37.5102 144.123 37.4942 143.937 37.3772 143.534L37.5953 143.438L38.0793 144.617L35.4783 149.574L37.4091 148.788C38.1432 148.49 38.473 148.336 38.7017 148.214C39.0474 148.044 39.0846 147.821 38.8666 147.173L39.09 147.082L39.8878 149.027L39.6591 149.117Z" fill="#F4B79E"/>
<path d="M37.2704 155.503C37.2013 155.397 37.164 155.2 37.1959 155.078C37.2332 154.924 37.3076 154.818 37.414 154.701C37.0364 154.531 36.5523 154.345 36.414 154.122C36.0949 153.612 36.2917 152.974 36.7598 152.687C37.1162 152.47 37.4672 152.517 37.8502 152.831C38.2757 153.176 38.8023 153.601 39.031 153.681L39.1746 153.59C39.6853 153.272 39.8236 152.831 39.5895 152.454C39.4885 152.289 39.3448 152.236 39.2119 152.215C39.0629 152.199 38.8714 152.246 38.6215 152.31C38.4832 152.347 38.3927 152.31 38.3236 152.204C38.2385 152.066 38.2704 151.795 38.4459 151.689C38.547 151.625 38.6906 151.667 38.8821 151.747C39.164 151.864 39.6906 152.114 40.0363 152.475C40.1693 152.693 40.2438 152.958 40.2172 153.203C40.1587 153.591 39.9831 153.856 39.6055 154.09L38.2119 154.956C37.8821 155.163 37.8555 155.349 37.9353 155.476C37.9885 155.561 38.0842 155.636 38.1747 155.689L38.0151 155.886L37.2704 155.503ZM38.7704 153.845C38.5949 153.734 38.2278 153.484 38.0523 153.362C37.7598 153.165 37.5204 153.08 37.2491 153.25C36.8662 153.49 36.8715 153.883 37.0151 154.116C37.1321 154.302 37.4087 154.494 37.6427 154.547C37.9832 154.334 38.4353 154.058 38.7704 153.845Z" fill="#F4B79E"/>
<path d="M40.0108 159.019C39.8618 158.956 39.7501 158.871 39.6969 158.801C39.3565 158.376 39.4363 157.946 39.9682 157.521L41.9044 155.981L41.5373 155.524L41.5959 155.433L41.931 155.46L42.1756 155.768L42.7341 155.322C42.9682 155.343 43.2926 155.396 43.5267 155.417L43.5905 155.529C43.3033 155.736 42.9097 156.039 42.5905 156.294L43.1969 157.054C43.1756 157.165 43.0161 157.261 42.8937 157.229L42.3193 156.512L40.6171 157.866C40.0799 158.297 40.1491 158.589 40.2874 158.759C40.415 158.918 40.5959 159.025 40.7182 159.078L40.5906 159.274L40.0108 159.019Z" fill="#F4B79E"/>
<path d="M44.785 163.748C44.4499 163.504 44.0457 163.265 43.6468 163.052C43.7425 162.957 43.9553 162.734 44.1042 162.585C43.5085 162.537 43.051 162.473 42.7159 162.144C42.3064 161.745 42.1947 161.15 42.8436 160.486L43.9925 159.307C44.3116 158.978 44.301 158.893 44.1787 158.717L44.0404 158.521L44.1946 158.361C44.4712 158.606 44.9287 158.935 45.1733 159.1C44.9659 159.275 44.6787 159.567 44.2904 159.971L43.4819 160.8C42.9606 161.336 43.0936 161.761 43.3649 162.027C43.5883 162.245 43.9127 162.367 44.3063 162.378L45.6893 160.959C46.0084 160.63 45.9765 160.518 45.801 160.284L45.6308 160.072L45.785 159.913C46.1946 160.274 46.6839 160.619 46.8488 160.736L44.8595 162.776C44.5616 163.079 44.5723 163.169 44.7904 163.408L44.9552 163.584L44.785 163.748Z" fill="#F4B79E"/>
<path d="M47.9202 166.413L46.3457 165.249L46.4893 165.058C46.9521 165.334 47.0159 165.329 47.3457 164.888L48.3989 163.469C48.734 163.018 48.718 162.975 48.3616 162.635L48.4893 162.465C48.8669 162.657 49.234 162.805 49.6595 162.896C49.4946 163.119 49.2712 163.422 49.101 163.65C49.601 163.469 50.1701 163.31 50.5105 163.56C50.7659 163.746 50.7925 164.011 50.6648 164.181C50.5478 164.341 50.3297 164.41 50.1542 164.383C50.0531 164.373 50.0052 164.325 49.9893 164.24C49.9627 164.059 49.9308 163.932 49.8084 163.841C49.6648 163.735 49.2552 163.762 48.8457 163.995L47.8936 165.281C47.5585 165.733 47.5691 165.791 48.0638 166.221L47.9202 166.413Z" fill="#F4B79E"/>
<path d="M52.6692 169.472C52.5575 169.408 52.4298 169.259 52.3979 169.137C52.3554 168.988 52.3713 168.855 52.4086 168.701C51.999 168.733 51.483 168.808 51.2543 168.675C50.7277 168.377 50.5948 167.729 50.8607 167.256C51.0628 166.895 51.3979 166.768 51.8873 166.858C52.4298 166.954 53.0947 167.076 53.3288 167.033L53.4139 166.884C53.7118 166.359 53.616 165.907 53.2277 165.689C53.0575 165.594 52.9086 165.615 52.7809 165.663C52.6426 165.721 52.499 165.854 52.3128 166.034C52.2064 166.13 52.1107 166.146 52.0043 166.082C51.8607 166.003 51.7596 165.753 51.8607 165.572C51.9192 165.466 52.0681 165.434 52.2703 165.413C52.5735 165.376 53.1586 165.344 53.632 165.493C53.8554 165.615 54.0469 165.811 54.1426 166.04C54.2756 166.406 54.2543 166.725 54.0362 167.113L53.233 168.542C53.0415 168.882 53.1107 169.057 53.2437 169.132C53.3341 169.179 53.4511 169.201 53.5575 169.201L53.5149 169.45L52.6692 169.472ZM53.1798 167.294C52.9724 167.283 52.5256 167.24 52.3128 167.219C51.9618 167.187 51.7118 167.23 51.5575 167.506C51.3341 167.899 51.5362 168.244 51.7703 168.377C51.9618 168.484 52.2969 168.515 52.5309 168.452C52.7224 168.101 52.983 167.639 53.1798 167.294Z" fill="#F4B79E"/>
<path d="M55.0801 170.531L55.1705 170.313C55.6918 170.478 55.7716 170.462 55.9896 169.947L57.5694 166.191C57.7715 165.713 57.7502 165.649 57.2768 165.378L57.3619 165.176C57.8034 165.309 58.346 165.383 58.6332 165.399C58.4789 165.766 58.3194 166.143 58.1651 166.515L56.612 170.218C56.3939 170.733 56.4258 170.792 56.9151 171.057L56.8247 171.275L55.0801 170.531Z" fill="#F4B79E"/>
<path d="M68.6574 170.683C68.0563 170.662 67.934 170.794 67.5936 171.166C67.3276 171.453 67.0457 171.751 66.6734 172.16C66.9819 172.558 67.6681 173.594 67.8489 174.046L67.7851 174.131C67.3276 174.019 66.8862 173.753 66.8011 173.626C66.716 173.493 66.3755 173.042 66.1468 172.717C65.4075 173.44 64.8064 173.631 64.2001 173.536C63.115 173.366 62.6416 172.484 62.7533 171.756C62.8809 170.975 63.3756 170.736 64.2639 170.348C63.9128 169.939 63.7213 169.514 63.7905 169.052C63.9181 168.297 64.6362 167.825 65.3915 167.942C66.0883 168.048 66.5723 168.616 66.466 169.296C66.4021 169.642 66.1947 169.865 65.9872 169.987C65.8064 170.088 65.5298 170.21 65.1894 170.348C65.4287 170.624 66.0351 171.304 66.4872 171.915C66.7266 171.644 66.9394 171.389 67.1574 171.039C67.3755 170.677 67.3276 170.555 66.7213 170.396L66.7585 170.152L68.684 170.449L68.6574 170.683ZM64.4926 172.983C65.0724 173.073 65.4287 172.941 65.9606 172.447C65.599 171.894 65.0883 171.304 64.4607 170.582C63.8011 170.885 63.5777 171.219 63.5086 171.65C63.3916 172.431 63.9447 172.898 64.4926 172.983ZM65.2585 168.212C64.8383 168.149 64.5245 168.436 64.45 168.93C64.3862 169.36 64.5617 169.652 65.0032 170.136C65.5245 169.87 65.7692 169.636 65.8383 169.206C65.9021 168.717 65.7213 168.282 65.2585 168.212Z" fill="#F4B79E"/>
<path d="M79.381 168.233C78.8491 168.355 78.6789 168.461 78.7002 168.854C78.7215 169.125 78.7481 169.481 78.8438 170.268L79.2534 173.652L78.9342 173.689L74.7907 169.71L75.046 171.819C75.1365 172.578 75.2056 172.956 75.2535 173.2C75.3226 173.63 75.546 173.731 76.163 173.71L76.1896 173.949L74.1365 174.193L74.1099 173.96C74.6312 173.853 74.8173 173.705 74.8014 173.285C74.7961 173.014 74.7641 172.632 74.6737 171.861L74.4131 169.71C74.3865 169.476 74.3493 169.343 74.179 169.173C73.9929 168.982 73.812 168.95 73.3918 168.961L73.3652 168.727L74.6312 168.573L78.7215 172.387L78.4715 170.321C78.3758 169.534 78.3172 169.173 78.2587 168.924C78.1896 168.546 77.9821 168.451 77.296 168.493L77.2694 168.259L79.3545 168.01L79.381 168.233Z" fill="#F4B79E"/>
<path d="M86.1951 171.504C85.8227 171.679 85.4185 171.924 85.0409 172.174C84.9983 172.041 84.9079 171.749 84.8494 171.547C84.5249 172.046 84.243 172.418 83.7962 172.556C83.2483 172.721 82.6739 172.535 82.4026 171.648L81.9186 170.07C81.7856 169.629 81.7058 169.602 81.4877 169.624L81.2484 169.65L81.1846 169.438C81.5303 169.315 82.0409 169.066 82.3015 168.933C82.3547 169.199 82.4771 169.592 82.642 170.128L82.9824 171.233C83.2005 171.95 83.6419 172.035 84.0036 171.924C84.3068 171.834 84.5674 171.61 84.7643 171.265L84.1792 169.374C84.0462 168.933 83.9292 168.906 83.642 168.954L83.3707 169.002L83.3068 168.789C83.8175 168.604 84.36 168.338 84.5409 168.253L85.3759 170.973C85.5036 171.382 85.5834 171.414 85.8972 171.339L86.1259 171.276L86.1951 171.504Z" fill="#F4B79E"/>
<path d="M89.7446 170.173C89.6435 170.301 89.5371 170.391 89.4573 170.423C88.9627 170.646 88.5584 170.465 88.2765 169.844L87.2552 167.591L86.718 167.836L86.6436 167.756L86.7499 167.437L87.1063 167.278L86.8084 166.63C86.8829 166.406 87.0212 166.104 87.0957 165.886L87.218 165.849C87.351 166.178 87.5478 166.635 87.7127 167.007L88.5956 166.608C88.702 166.656 88.7552 166.837 88.6914 166.948L87.8563 167.326L88.7552 169.307C89.0424 169.934 89.3403 169.939 89.5424 169.844C89.7286 169.759 89.8775 169.61 89.9573 169.504L90.1169 169.674L89.7446 170.173Z" fill="#F4B79E"/>
<path d="M93.7321 168.03L92.0459 169.028L91.9236 168.821C92.3598 168.502 92.381 168.444 92.0991 167.966L91.1949 166.446C90.9077 165.963 90.8651 165.958 90.413 166.16L90.3066 165.979C90.6311 165.708 90.9077 165.426 91.163 165.071C91.3066 165.31 91.4981 165.634 91.6417 165.873C91.6736 165.341 91.7428 164.757 92.1098 164.539C92.381 164.38 92.6363 164.454 92.7427 164.64C92.8438 164.81 92.8225 165.039 92.7321 165.187C92.6842 165.272 92.6204 165.304 92.5353 165.283C92.3598 165.241 92.2268 165.219 92.0991 165.294C91.9449 165.384 91.8066 165.772 91.8704 166.239L92.6842 167.615C92.9714 168.099 93.0299 168.115 93.6203 167.822L93.7321 168.03Z" fill="#F4B79E"/>
<path d="M94.024 162.177C93.8325 162.32 93.5346 162.272 93.391 162.086C93.2261 161.868 93.2846 161.582 93.4814 161.438C93.6729 161.295 93.9495 161.337 94.1091 161.555C94.2527 161.741 94.2208 162.028 94.024 162.177ZM96.1144 166.464L95.9708 166.272C96.3697 165.911 96.391 165.842 96.0452 165.38L94.9974 163.972C94.6835 163.547 94.641 163.537 94.1782 163.776L94.0559 163.611C94.3644 163.287 94.6197 162.957 94.8218 162.617C95.0346 162.904 95.2474 163.191 95.4601 163.478L96.5771 164.982C96.9229 165.444 96.9973 165.444 97.4707 165.157L97.6143 165.348L96.1144 166.464Z" fill="#F4B79E"/>
<path d="M100.462 162.895C100.408 163.049 100.329 163.166 100.265 163.224C99.8605 163.591 99.4243 163.537 98.9669 163.038L97.3021 161.205L96.8659 161.598L96.7702 161.545L96.7755 161.211L97.0627 160.945L96.584 160.414C96.5893 160.18 96.6212 159.851 96.6265 159.617L96.7329 159.542C96.9616 159.819 97.2861 160.191 97.5627 160.493L98.2807 159.84C98.3924 159.851 98.4988 160.005 98.4775 160.132L97.7967 160.748L99.2594 162.358C99.7222 162.868 100.009 162.778 100.174 162.629C100.323 162.491 100.419 162.305 100.467 162.177L100.674 162.289L100.462 162.895Z" fill="#F4B79E"/>
<path d="M99.3818 157.319C99.2222 157.495 98.919 157.511 98.7435 157.351C98.5414 157.171 98.5414 156.878 98.7063 156.698C98.8659 156.522 99.1424 156.507 99.3446 156.693C99.5201 156.847 99.5467 157.139 99.3818 157.319ZM102.265 161.118L102.089 160.958C102.408 160.528 102.419 160.454 101.988 160.066L100.685 158.892C100.297 158.536 100.254 158.536 99.8446 158.855L99.6903 158.717C99.9297 158.339 100.116 157.968 100.249 157.596C100.515 157.835 100.781 158.074 101.047 158.313L102.435 159.567C102.866 159.954 102.935 159.938 103.344 159.561L103.52 159.721L102.265 161.118Z" fill="#F4B79E"/>
<path d="M102.875 154.306C103.486 153.44 104.603 153.254 105.502 153.886C106.63 154.678 106.577 155.889 106.098 156.569C105.422 157.531 104.236 157.568 103.46 157.021C102.321 156.224 102.407 154.965 102.875 154.306ZM103.05 154.556C102.752 154.981 102.891 155.65 103.699 156.219C104.582 156.84 105.497 156.899 105.901 156.33C106.204 155.9 106.146 155.316 105.194 154.646C104.375 154.078 103.481 153.945 103.05 154.556Z" fill="#F4B79E"/>
<path d="M109.971 149.183C109.843 149.576 109.737 150.033 109.657 150.48C109.534 150.421 109.258 150.283 109.072 150.187C109.21 150.766 109.284 151.223 109.077 151.643C108.822 152.153 108.29 152.44 107.46 152.025L105.981 151.292C105.572 151.085 105.492 151.128 105.359 151.298L105.215 151.494L105.019 151.393C105.167 151.059 105.343 150.517 105.423 150.235C105.657 150.379 106.019 150.559 106.524 150.809L107.561 151.324C108.231 151.659 108.598 151.404 108.768 151.059C108.907 150.777 108.928 150.437 108.811 150.055L107.034 149.173C106.625 148.971 106.524 149.035 106.359 149.274L106.205 149.502L106.008 149.401C106.226 148.902 106.407 148.328 106.465 148.137L109.018 149.406C109.396 149.598 109.481 149.56 109.641 149.279L109.752 149.072L109.971 149.183Z" fill="#F4B79E"/>
<path d="M109.062 144.272C108.546 144.261 108.153 144.357 107.988 144.851C107.892 145.133 108.02 145.42 108.344 145.526C108.69 145.643 108.929 145.462 109.296 145.085C109.86 144.506 110.222 144.24 110.754 144.421C111.493 144.67 111.647 145.478 111.429 146.11C111.286 146.53 111.03 146.854 110.876 146.992C110.631 146.955 110.163 146.875 109.881 146.817L109.919 146.572C110.482 146.599 110.998 146.461 111.19 145.898C111.296 145.59 111.169 145.265 110.834 145.149C110.472 145.026 110.211 145.18 109.86 145.536C109.397 146.009 108.983 146.381 108.403 146.185C107.812 145.988 107.53 145.335 107.786 144.575C107.897 144.235 108.073 143.99 108.153 143.836C108.355 143.879 108.881 143.99 109.089 144.017L109.062 144.272Z" fill="#F4B79E"/>
<path d="M120.336 138.703C118.033 137.662 116.438 135.351 116.438 132.663C116.438 129.991 118.023 127.685 120.305 126.639C121.06 126.293 121.895 126.081 122.773 126.044C122.65 125.135 122.507 124.232 122.342 123.34C117.895 99.614 97.0497 81.6577 72.0023 81.6577C46.9709 81.6577 26.1308 99.598 21.6682 123.308C21.498 124.211 21.3543 125.119 21.232 126.038C22.1096 126.038 22.9501 126.214 23.716 126.522C26.1468 127.505 27.8542 129.885 27.8542 132.663C27.8542 135.457 26.1255 137.843 23.6788 138.82C22.9181 139.123 22.0884 139.293 21.216 139.293H21.1895C21.3065 140.212 21.4501 141.126 21.615 142.029C25.9606 165.877 46.8645 183.961 72.0023 183.961C97.1507 183.961 118.06 165.861 122.395 141.992C122.56 141.099 122.698 140.196 122.815 139.288C121.932 139.251 121.097 139.049 120.336 138.703Z" stroke="#F4B79E" stroke-width="2" stroke-miterlimit="10"/>
<path d="M119.928 141.434C115.848 164.177 95.944 181.437 72.003 181.437C48.1258 181.437 28.2592 164.272 24.1104 141.62C27.9507 140.446 30.7432 136.881 30.7432 132.663C30.7432 128.461 27.9773 124.907 24.1635 123.722C28.4241 101.208 48.2216 84.1758 72.003 84.1758C95.8536 84.1758 115.694 101.298 119.88 123.908C116.348 125.252 113.843 128.663 113.843 132.663C113.837 136.679 116.369 140.106 119.928 141.434Z" stroke="#F4B79E" stroke-miterlimit="10"/>
<path d="M72.0707 161.55C88.0073 161.55 100.926 148.647 100.926 132.73C100.926 116.813 88.0073 103.91 72.0707 103.91C56.134 103.91 43.2148 116.813 43.2148 132.73C43.2148 148.647 56.134 161.55 72.0707 161.55Z" stroke="#F4B79E" stroke-miterlimit="10"/>
</g>
<defs>
<clipPath id="clip0">
<rect width="272" height="272" fill="white" transform="translate(-64)"/>
</clipPath>
</defs>
</svg>
