<svg width="24" height="24" viewBox="0 0 24 24" fill="none" xmlns="http://www.w3.org/2000/svg">
<g clip-path="url(#clip0)">
<path d="M6.08588 23.9151C5.15758 23.9047 4.23801 23.7344 3.36753 23.4118C2.73187 23.1768 2.15676 22.8027 1.68424 22.3169C1.19712 21.8454 0.822514 21.2701 0.588235 20.6339C0.265824 19.7634 0.0958076 18.8439 0.0856471 17.9158C0.0143529 16.3727 0 15.9099 0 12C0 8.09012 0.0157647 7.62894 0.0849412 6.08471C0.0963347 5.15689 0.26656 4.23788 0.588235 3.36753C0.823654 2.73176 1.19773 2.15642 1.68329 1.68329C2.15523 1.19662 2.73061 0.822358 3.36682 0.588235C4.2373 0.265557 5.15687 0.0953008 6.08518 0.0849412C7.62871 0.0143529 8.09224 0 12 0C15.9078 0 16.3711 0.0157647 17.9153 0.0849412C18.8433 0.0962542 19.7626 0.266481 20.6332 0.588235C21.2691 0.822667 21.8443 1.1968 22.3165 1.68306C22.8029 2.15535 23.1772 2.73073 23.4118 3.36682C23.7345 4.23729 23.9049 5.15686 23.9153 6.08518C23.9859 7.62941 24.0002 8.09176 24.0002 12.0005C24.0002 15.9092 23.9859 16.3715 23.9153 17.9158C23.9041 18.8439 23.7338 19.7633 23.4118 20.6339C23.1682 21.2652 22.7951 21.8386 22.3166 22.317C21.838 22.7954 21.2646 23.1683 20.6332 23.4118C19.7627 23.7345 18.8431 23.9049 17.9148 23.9153C16.372 23.9859 15.9082 24.0002 11.9995 24.0002C8.09082 24.0002 7.62847 23.9866 6.08565 23.9153" fill="url(#paint0_radial)"/>
<path d="M6.08588 23.9151C5.15758 23.9047 4.23801 23.7344 3.36753 23.4118C2.73187 23.1768 2.15676 22.8027 1.68424 22.3169C1.19712 21.8454 0.822514 21.2701 0.588235 20.6339C0.265824 19.7634 0.0958076 18.8439 0.0856471 17.9158C0.0143529 16.3727 0 15.9099 0 12C0 8.09012 0.0157647 7.62894 0.0849412 6.08471C0.0963347 5.15689 0.26656 4.23788 0.588235 3.36753C0.823654 2.73176 1.19773 2.15642 1.68329 1.68329C2.15523 1.19662 2.73061 0.822358 3.36682 0.588235C4.2373 0.265557 5.15687 0.0953008 6.08518 0.0849412C7.62871 0.0143529 8.09223 0 12 0C15.9078 0 16.3711 0.0157647 17.9153 0.0849412C18.8433 0.0962542 19.7626 0.266481 20.6332 0.588235C21.2691 0.822667 21.8443 1.1968 22.3165 1.68306C22.8029 2.15535 23.1772 2.73073 23.4118 3.36682C23.7345 4.23729 23.9049 5.15686 23.9153 6.08518C23.9859 7.62941 24.0002 8.09176 24.0002 12.0005C24.0002 15.9092 23.9859 16.3715 23.9153 17.9158C23.9041 18.8439 23.7338 19.7633 23.4118 20.6339C23.1682 21.2652 22.7951 21.8386 22.3166 22.317C21.838 22.7954 21.2646 23.1683 20.6332 23.4118C19.7627 23.7345 18.8431 23.9049 17.9148 23.9153C16.372 23.9859 15.9082 24.0002 11.9995 24.0002C8.09082 24.0002 7.62847 23.9866 6.08565 23.9153" fill="#F4B79E"/>
<path d="M9.05385 12.0508C9.05389 11.463 9.22825 10.8884 9.55487 10.3996C9.88148 9.91092 10.3457 9.53003 10.8888 9.30513C11.4319 9.08024 12.0295 9.02145 12.606 9.13619C13.1825 9.25093 13.712 9.53404 14.1276 9.94974C14.5432 10.3654 14.8262 10.895 14.9408 11.4716C15.0554 12.0481 14.9965 12.6457 14.7715 13.1887C14.5464 13.7318 14.1654 14.1959 13.6766 14.5224C13.1878 14.8489 12.6132 15.0231 12.0254 15.023C11.2372 15.0229 10.4813 14.7097 9.92407 14.1523C9.36681 13.5949 9.05378 12.839 9.05385 12.0508ZM7.44702 12.0508C7.44702 12.9563 7.71554 13.8415 8.21861 14.5944C8.72169 15.3473 9.43673 15.9341 10.2733 16.2806C11.1099 16.6272 12.0304 16.7178 12.9186 16.5412C13.8067 16.3645 14.6225 15.9285 15.2628 15.2882C15.9031 14.6479 16.3391 13.8321 16.5158 12.944C16.6924 12.0559 16.6017 11.1353 16.2552 10.2987C15.9087 9.46213 15.3219 8.74709 14.569 8.24402C13.8161 7.74094 12.9309 7.47243 12.0254 7.47243C11.4241 7.47239 10.8288 7.5908 10.2733 7.82087C9.71779 8.05094 9.21307 8.38818 8.78792 8.81332C8.36277 9.23847 8.02554 9.7432 7.79547 10.2987C7.56539 10.8542 7.44699 11.4495 7.44702 12.0508ZM15.715 7.29102C15.7149 7.50262 15.7776 7.7095 15.8951 7.88549C16.0126 8.06148 16.1796 8.19869 16.375 8.27975C16.5705 8.36081 16.7856 8.3821 16.9932 8.34091C17.2007 8.29972 17.3914 8.1979 17.5411 8.04834C17.6908 7.89878 17.7928 7.70819 17.8341 7.50067C17.8755 7.29316 17.8544 7.07803 17.7735 6.8825C17.6926 6.68696 17.5556 6.51982 17.3797 6.40218C17.2038 6.28454 16.997 6.2217 16.7854 6.22161C16.5017 6.22173 16.2298 6.33443 16.0292 6.53494C15.8286 6.73545 15.7157 7.00738 15.7155 7.29102H15.715ZM8.42373 19.3084C7.85834 19.3022 7.29824 19.1987 6.76796 19.0025C6.38339 18.8543 6.03412 18.6272 5.74263 18.3358C5.45113 18.0445 5.22388 17.6953 5.07549 17.3108C4.8792 16.7805 4.77573 16.2204 4.76961 15.655C4.72632 14.7152 4.71785 14.4329 4.71785 12.052C4.71785 9.67102 4.72726 9.38937 4.76961 8.44867C4.77647 7.88335 4.87992 7.32335 5.07549 6.7929C5.22371 6.40821 5.45089 6.05885 5.7424 5.76734C6.03391 5.47583 6.38327 5.24865 6.76796 5.10043C7.29822 4.90414 7.85834 4.80067 8.42373 4.79455C9.36349 4.75125 9.64584 4.74278 12.0258 4.74278C14.4058 4.74278 14.6884 4.75196 15.6291 4.79479C16.1945 4.80164 16.7544 4.90509 17.2849 5.10066C17.6696 5.2489 18.0189 5.47609 18.3104 5.76759C18.602 6.0591 18.8291 6.40845 18.9774 6.79313C19.1736 7.3234 19.2771 7.88351 19.2833 8.4489C19.3265 9.39008 19.335 9.67102 19.335 12.0522C19.335 14.4334 19.3263 14.7148 19.2833 15.6555C19.2767 16.2208 19.1732 16.7809 18.9774 17.3112C18.829 17.6958 18.6017 18.0449 18.3102 18.3363C18.0187 18.6277 17.6695 18.8548 17.2849 19.003C16.7546 19.1993 16.1945 19.3028 15.6291 19.3089C14.6894 19.3522 14.407 19.3607 12.0258 19.3607C9.64467 19.3607 9.36326 19.352 8.42373 19.3089V19.3084ZM8.34985 3.18914C7.61004 3.20368 6.87807 3.34371 6.18514 3.60325C5.59279 3.83228 5.05483 4.18256 4.60576 4.63163C4.15668 5.08071 3.8064 5.61866 3.57737 6.21102C3.31786 6.90396 3.17784 7.63592 3.16326 8.37572C3.11926 9.32631 3.10938 9.63031 3.10938 12.0517C3.10938 14.4731 3.11949 14.7769 3.16326 15.7277C3.17784 16.4675 3.31786 17.1995 3.57737 17.8924C3.80641 18.4848 4.1567 19.0227 4.60577 19.4718C5.05484 19.9209 5.59279 20.2712 6.18514 20.5002C6.87811 20.7596 7.61005 20.8996 8.34985 20.9143C9.3009 20.9576 9.60443 20.9682 12.0258 20.9682C14.4473 20.9682 14.751 20.9581 15.7018 20.9143C16.4416 20.8997 17.1736 20.7597 17.8665 20.5002C18.4589 20.2712 18.9968 19.9209 19.4459 19.4718C19.895 19.0227 20.2453 18.4848 20.4743 17.8924C20.7342 17.1996 20.8742 16.4676 20.8884 15.7277C20.9317 14.7764 20.9416 14.4731 20.9416 12.0517C20.9416 9.63031 20.9315 9.32655 20.8884 8.37572C20.8739 7.63592 20.7339 6.90395 20.4743 6.21102C20.2453 5.61878 19.8951 5.0809 19.4461 4.63184C18.9972 4.18278 18.4594 3.83244 17.8673 3.60325C17.1744 3.34354 16.4424 3.20351 15.7025 3.18914C14.7517 3.14561 14.448 3.13525 12.027 3.13525C9.60608 3.13525 9.30161 3.14537 8.35031 3.18914" fill="#171635"/>
</g>
<defs>
<radialGradient id="paint0_radial" cx="0" cy="0" r="1" gradientUnits="userSpaceOnUse" gradientTransform="translate(1.55318 23.4744) scale(30.4711)">
<stop offset="0.09" stop-color="#FA8F21"/>
<stop offset="0.78" stop-color="#D82D7E"/>
</radialGradient>
<clipPath id="clip0">
<rect width="24" height="24" fill="white"/>
</clipPath>
</defs>
</svg>
