<svg width="24" height="24" viewBox="0 0 24 24" fill="none" xmlns="http://www.w3.org/2000/svg">
<path d="M18.6131 0H5.38691C2.4118 0 0 2.4118 0 5.38691V18.6131C0 21.5882 2.4118 24 5.38691 24H18.6131C21.5882 24 24 21.5882 24 18.6131V5.38691C24 2.4118 21.5882 0 18.6131 0Z" fill="#F4B79E"/>
<path d="M6.65019 9.97566H9.14412V18.0228H6.65019V9.97566ZM7.92209 5.97705C8.20783 5.97706 8.48716 6.06168 8.72485 6.22026C8.96254 6.37884 9.14794 6.60426 9.25766 6.86809C9.36738 7.13191 9.3965 7.42232 9.34136 7.70269C9.28622 7.98305 9.14928 8.2408 8.94782 8.44342C8.74635 8.64604 8.48939 8.78446 8.20935 8.8412C7.92931 8.89795 7.63874 8.87049 7.37428 8.76228C7.10983 8.65408 6.88335 8.46997 6.72342 8.23319C6.56348 7.99642 6.47725 7.71758 6.47561 7.43185C6.47451 7.24119 6.51112 7.0522 6.58332 6.87575C6.65552 6.69929 6.7619 6.53885 6.89633 6.40365C7.03075 6.26845 7.19058 6.16116 7.36662 6.08795C7.54266 6.01474 7.73144 5.97705 7.92209 5.97705ZM10.7402 9.97566H13.1427V11.073C13.3832 10.6626 13.7307 10.3252 14.1479 10.0968C14.5652 9.86836 15.0367 9.75755 15.512 9.77615C18.0059 9.77615 18.513 11.4388 18.513 13.6085V18.0228H16.0191V14.1322C16.0191 13.2012 16.0191 11.9958 14.7222 11.9958C13.4254 11.9958 13.2259 13.01 13.2259 14.0574V18.0394H10.7319L10.7402 9.97566Z" fill="#171635"/>
</svg>
