<svg width="24" height="24" viewBox="0 0 24 24" fill="none" xmlns="http://www.w3.org/2000/svg">
<path d="M5.1185 0H18.8815C21.7084 0 24 2.29163 24 5.1185V18.8815C24 21.7084 21.7084 24 18.8815 24H5.1185C2.29163 24 0 21.7084 0 18.8815V5.1185C0 2.29163 2.29163 0 5.1185 0Z" fill="#F4B79E"/>
<path fill-rule="evenodd" clip-rule="evenodd" d="M4.69992 8.35889C5.21689 8.58806 5.77356 8.7435 6.35661 8.81288C5.76091 8.45548 5.30401 7.89042 5.08751 7.21695C5.64525 7.54699 6.26307 7.78744 6.91984 7.9168C7.44611 7.35578 8.1962 7.00586 9.02618 7.00586C10.62 7.00586 11.9109 8.29813 11.9109 9.89057C11.9109 10.1165 11.8859 10.3373 11.8364 10.5484C14.2338 10.4276 16.3601 9.27922 17.7826 7.53326C18.0315 7.95981 18.1733 8.45549 18.1733 8.98395C18.1733 9.98525 17.6639 10.8687 16.8907 11.3856C17.3635 11.3708 17.8078 11.2406 18.1975 11.0241C18.1975 11.0368 18.1975 11.0484 18.1975 11.061C18.1975 12.4582 17.2027 13.6243 15.8832 13.8892C16.1247 13.9554 16.3799 13.9911 16.6427 13.9911C16.8285 13.9911 17.0093 13.9732 17.186 13.9395C16.8181 15.0858 15.7528 15.9198 14.4901 15.9429C15.4776 16.7171 16.7215 17.1773 18.0735 17.1773C18.307 17.1773 18.5369 17.1647 18.7617 17.1375C17.4853 17.9559 15.9692 18.4338 14.34 18.4338C9.03341 18.4338 6.1307 14.0371 6.1307 10.2248C6.1307 10.0998 6.13389 9.97578 6.13901 9.85181C5.57509 9.44517 5.08641 8.93683 4.69989 8.35888L4.69992 8.35889Z" fill="#171635"/>
</svg>
