<svg width="24" height="24" viewBox="0 0 24 24" fill="none" xmlns="http://www.w3.org/2000/svg">
<path d="M13.4142 11.9996L19.707 5.70659C19.8025 5.61435 19.8787 5.504 19.9311 5.382C19.9835 5.25999 20.0111 5.12877 20.0122 4.99599C20.0134 4.86321 19.9881 4.73154 19.9378 4.60864C19.8875 4.48574 19.8133 4.37409 19.7194 4.2802C19.6255 4.18631 19.5138 4.11205 19.3909 4.06177C19.268 4.01149 19.1364 3.98619 19.0036 3.98734C18.8708 3.9885 18.7396 4.01608 18.6176 4.06849C18.4956 4.1209 18.3852 4.19708 18.293 4.29259L12 10.5853L5.70722 4.29259C5.519 4.10851 5.26578 4.00607 5.0025 4.00752C4.73923 4.00897 4.48715 4.11419 4.30097 4.30034C4.11479 4.48649 4.00953 4.73855 4.00803 5.00182C4.00653 5.2651 4.10892 5.51834 4.29298 5.70659L10.586 11.9996L4.29298 18.2926C4.19842 18.3851 4.12315 18.4954 4.07152 18.6172C4.01989 18.7389 3.99293 18.8697 3.9922 19.002C3.99147 19.1343 4.01699 19.2654 4.06727 19.3877C4.11756 19.51 4.19161 19.6212 4.28514 19.7147C4.37868 19.8082 4.48983 19.8822 4.61217 19.9325C4.73451 19.9827 4.86561 20.0082 4.99787 20.0075C5.13013 20.0067 5.26093 19.9798 5.38269 19.9281C5.50445 19.8765 5.61476 19.8012 5.70722 19.7066L12 13.4138L18.293 19.7066C18.4882 19.9018 18.7442 19.9996 19 19.9996C19.2557 19.9996 19.512 19.9018 19.707 19.7066C19.8944 19.5191 19.9998 19.2648 19.9998 18.9996C19.9998 18.7344 19.8944 18.4801 19.707 18.2926L13.4142 11.9996Z" fill="#171635"/>
</svg>
