<svg width="67" height="67" viewBox="0 0 67 67" fill="none" xmlns="http://www.w3.org/2000/svg">
<path d="M67 0H0V67H67V0Z" fill="#171635"/>
<path d="M37.4662 39.9921C40.2572 40.7728 43.1152 39.2366 43.8612 36.5587C44.2467 35.1736 44.23 33.7045 43.8193 32.3026C43.5511 31.3792 43.417 30.4306 43.417 29.482C43.417 29.0875 43.4421 28.7013 43.4924 28.3068C43.66 27.014 42.8135 25.78 41.506 25.4106C40.1985 25.0497 38.8407 25.6625 38.3127 26.8545C37.7679 28.0801 36.9801 29.1882 35.9827 30.1032C34.9099 31.0938 34.1388 32.3446 33.7532 33.7297C33.0157 36.4076 34.6752 39.2114 37.4662 39.9921Z" fill="#D4E496"/>
<path d="M35.7229 34.183C35.2619 35.8367 36.2844 37.566 38.0026 38.0445C39.7208 38.523 41.4892 37.5744 41.9418 35.9207C42.4028 34.2669 41.5395 31.95 39.8214 31.4715C38.1116 30.993 36.1839 32.5292 35.7229 34.183Z" fill="#B28966"/>
<path d="M41.0279 35.6606C41.447 34.1579 40.7764 32.1096 39.36 31.3877C39.5193 31.3961 39.6785 31.4297 39.8377 31.4716C41.5559 31.9501 42.4108 34.267 41.9582 35.9208C41.4972 37.5745 39.7372 38.5231 38.019 38.0446C37.8681 38.0027 37.7089 37.9439 37.5664 37.8851C39.1086 38.0866 40.6088 37.1632 41.0279 35.6606Z" fill="#8B6847"/>
<path d="M35.8238 29.9439C36.796 29.0457 37.5755 27.9628 38.1035 26.7623C38.3801 26.1411 38.883 25.6291 39.5199 25.3436C40.1485 25.0582 40.8777 24.9995 41.5566 25.1841L41.5734 25.1925C42.2606 25.3856 42.8557 25.8137 43.2497 26.3846C43.6436 26.9638 43.8196 27.6606 43.7274 28.3321C43.6771 28.7099 43.6519 29.096 43.6519 29.4822C43.6436 30.414 43.7777 31.3374 44.0375 32.2356C44.4566 33.6711 44.4733 35.1821 44.0794 36.6092C43.3083 39.3879 40.3329 40.9996 37.433 40.2105C37.4078 40.2021 37.3911 40.2021 37.3659 40.1937C37.3575 40.1937 37.3408 40.1854 37.3324 40.1854C37.148 40.135 36.972 40.0678 36.7876 40.0007C34.2481 38.9765 32.8065 36.2567 33.5273 33.6711C33.9296 32.244 34.7258 30.9596 35.8238 29.9439ZM37.5252 39.774C37.9526 39.8915 38.3885 39.9587 38.8243 39.9671C41.0202 40.0091 43.0401 38.6323 43.6352 36.5001C44.004 35.157 43.9956 33.7299 43.6017 32.37C43.3251 31.4298 43.191 30.456 43.191 29.4822C43.191 29.0792 43.2161 28.6763 43.2664 28.2818C43.4005 27.224 42.7887 26.1999 41.7997 25.7634C41.6907 25.713 41.5734 25.671 41.456 25.6374C40.2743 25.3101 39.0254 25.8725 38.5477 26.9554C37.9945 28.2062 37.1815 29.3395 36.159 30.2797C35.1197 31.2367 34.3654 32.4539 33.9966 33.797C33.2842 36.349 34.8683 39.0269 37.5252 39.774Z" fill="#37B678"/>
<path d="M41.6325 36.709C41.6577 36.6419 41.6325 36.5579 41.5655 36.5243L41.2805 36.3732C41.2134 36.3397 41.1296 36.3564 41.0877 36.4236C40.9369 36.6419 40.5932 37.1204 40.2496 37.4058C39.9311 37.666 39.3025 37.8675 38.6488 37.8927C37.358 37.9514 36.4193 38.2788 35.9416 39.1938C35.2208 40.5537 36.0505 42.409 37.7939 43.3324C39.5372 44.2558 41.5319 43.8948 42.2527 42.5349C42.7389 41.6115 42.3701 40.5705 41.7834 39.538C41.4481 38.9504 41.2554 38.3795 41.2973 37.9598C41.3392 37.5233 41.5403 36.9525 41.6325 36.709Z" fill="#E289B0"/>
<path fill-rule="evenodd" clip-rule="evenodd" d="M35.7656 41.2419C36.0338 41.6868 36.411 42.0981 36.872 42.4507C38.4477 43.6343 40.476 43.6008 41.4063 42.3751C42.0349 41.5441 41.8421 40.4612 41.4314 39.3531C41.247 38.8494 41.1465 38.3709 41.1716 37.9932C41.1632 38.4045 41.356 38.9334 41.6577 39.4706C42.2444 40.5032 42.6132 41.5441 42.1271 42.4675C41.4063 43.8274 39.4115 44.1884 37.6682 43.265C36.7462 42.7781 36.0841 42.031 35.7656 41.2419Z" fill="#C7638F"/>
<path d="M39.2944 40.7966C38.6155 42.0894 38.0037 43.1051 37.9282 43.0632C37.8528 43.0212 38.3473 41.9467 39.0262 40.6539C39.7051 39.3611 40.3169 38.3454 40.3924 38.3874C40.4678 38.4293 39.9733 39.5122 39.2944 40.7966ZM41.4316 41.8459C40.845 42.954 39.2609 43.273 39.1938 43.231C39.1184 43.1891 40.5851 42.8113 41.1718 41.7032C41.7585 40.5951 41.2473 39.1681 41.3143 39.2016C41.3897 39.252 42.0183 40.7378 41.4316 41.8459ZM36.6962 39.3444C36.1095 40.4524 36.7381 41.9467 36.8135 41.9802C36.889 42.0138 36.3693 40.5952 36.956 39.4787C37.5427 38.3706 39.0094 37.9928 38.934 37.9508C38.8586 37.9089 37.2829 38.2279 36.6962 39.3444Z" fill="#C54C82"/>
<path d="M40.3081 41.4184C39.646 42.6776 38.4894 43.3575 38.4558 43.3407C38.4223 43.3239 39.2688 42.4677 39.9309 41.2169C40.5931 39.9577 40.8194 38.7824 40.8529 38.7992C40.8864 38.816 40.9702 40.1676 40.3081 41.4184ZM37.8105 40.1004C37.1483 41.3596 37.2322 42.7027 37.2657 42.7195C37.2992 42.7363 37.5255 41.5527 38.1876 40.3019C38.8498 39.0427 39.6963 38.1948 39.6627 38.178C39.6376 38.1612 38.4726 38.8412 37.8105 40.1004Z" fill="#C54C82"/>
<path fill-rule="evenodd" clip-rule="evenodd" d="M36.6621 38.7986C36.6704 38.9497 36.5866 39.1764 36.4861 39.2939C36.4106 39.3862 36.3436 39.4953 36.2765 39.6128C36.1843 39.7891 36.0754 39.8563 36.0334 39.7723C35.9832 39.6884 36.0251 39.4702 36.1089 39.2939C36.2178 39.0756 36.3436 38.8909 36.4693 38.7398C36.5699 38.6223 36.6537 38.6475 36.6621 38.7986Z" fill="#FFCFC9"/>
<path d="M27.8281 35.223L28.1633 36.8096C28.2136 37.0278 28.3645 37.1873 28.5405 37.1873H30.6274C30.795 37.1873 30.9375 37.053 30.9962 36.8599L32.3456 32.2345H31.432L30.5771 34.5766L30.2251 30.7402H29.1607L28.7751 34.4675L28.0963 31.3614L27.124 31.5881L27.8281 35.223Z" fill="#9AD052"/>
<path d="M34.0466 27.9873C33.946 26.7029 32.7558 25.6871 31.2975 25.6871C31.0628 25.6871 30.8365 25.7123 30.6186 25.7627C30.2163 24.982 29.3865 24.4531 28.4227 24.4531C27.0649 24.4531 25.9669 25.5192 25.9669 26.8288C25.9669 26.896 25.9669 26.9547 25.9753 27.0219C24.8019 27.2905 23.9219 28.2643 23.9219 29.4227C23.9219 30.7911 25.1372 31.8991 26.6291 31.8991C27.199 31.8991 27.727 31.7396 28.1628 31.4626C28.5568 31.8236 29.0596 32.0419 29.6128 32.0419C29.9648 32.0419 30.2917 31.9579 30.5934 31.7984C31.0796 32.3189 31.7836 32.6379 32.5714 32.6379C34.0382 32.6379 35.22 31.5046 35.22 30.1027C35.22 29.2213 34.7506 28.4406 34.0466 27.9873Z" fill="#5FA43D"/>
<path d="M26.6121 31.5369C25.95 31.5369 25.4722 31.2096 25.1621 30.8906C24.7347 30.4457 24.5503 29.9336 24.5419 29.9084C24.5 29.7909 24.5587 29.665 24.6676 29.623C24.7766 29.581 24.8939 29.6398 24.9358 29.7489C24.961 29.8245 25.5728 31.495 27.1988 30.9913C27.3078 30.9577 27.4251 31.0249 27.4586 31.1424C27.4921 31.2599 27.4251 31.3775 27.3161 31.411C27.0563 31.5034 26.8216 31.5369 26.6121 31.5369Z" fill="#477D27"/>
<path d="M29.5545 31.6807C28.9678 31.6807 28.6074 31.2777 28.4901 31.0259C28.4398 30.9168 28.4817 30.7825 28.5823 30.7321C28.6828 30.6817 28.8086 30.7237 28.8588 30.8328C28.8672 30.858 29.1354 31.3701 29.7808 31.219C29.8898 31.1938 29.9987 31.2693 30.0239 31.3869C30.049 31.5044 29.9736 31.6219 29.8646 31.6471C29.7557 31.6723 29.6551 31.6807 29.5545 31.6807Z" fill="#477D27"/>
<path d="M32.7892 32.1348C32.6635 32.1348 32.5881 32.1264 32.5797 32.1264C32.4624 32.1096 32.3869 32.0004 32.4037 31.8829C32.4205 31.7654 32.521 31.6814 32.6384 31.6982C32.7054 31.7066 34.1806 31.8913 34.6332 30.1032C34.6667 29.9857 34.7756 29.9186 34.8846 29.9437C34.9936 29.9773 35.0606 30.0948 35.0355 30.2124C34.7505 31.3373 34.1051 31.799 33.6106 31.992C33.2754 32.1096 32.9736 32.1348 32.7892 32.1348Z" fill="#477D27"/>
<path d="M26.7466 26.3923C26.7299 26.3923 26.7131 26.3923 26.6963 26.3839C26.5874 26.3587 26.5119 26.2412 26.5371 26.1237C26.5371 26.1069 26.6209 25.7711 26.8723 25.4185C27.107 25.0996 27.5512 24.705 28.2972 24.6714C28.4061 24.663 28.5067 24.7554 28.5151 24.8813C28.5235 24.9988 28.4313 25.108 28.3139 25.108C27.1825 25.1583 26.9394 26.2076 26.9394 26.2244C26.931 26.3252 26.8472 26.3923 26.7466 26.3923Z" fill="#C8FFBF"/>
<path d="M26.5113 27.2405C26.3939 27.2405 26.3018 27.1398 26.3018 27.0222C26.3018 26.9719 26.3018 26.7872 26.3437 26.6697C26.3772 26.5521 26.4945 26.4934 26.6035 26.5269C26.7124 26.5689 26.7711 26.6864 26.7376 26.804C26.7292 26.8375 26.7208 26.9467 26.7208 27.0138C26.7208 27.1398 26.6286 27.2405 26.5113 27.2405Z" fill="#BFFFCB"/>
<path d="M22.2459 32.2853C22.1873 32.2685 20.7708 31.8907 19.6729 30.833L20.0919 30.3965C21.0725 31.3451 22.3884 31.6892 22.3968 31.6976L22.2459 32.2853Z" fill="#7ABD4C"/>
<path d="M22.1948 32.1593C22.1865 32.1425 21.0047 30.5223 19.7559 29.8171L20.0492 29.2883C21.4154 30.0522 22.639 31.7311 22.6893 31.8067L22.1948 32.1593ZM22.7983 31.8906C22.7396 31.8067 21.2645 29.8507 20.8538 28.1046L21.4405 27.9619C21.826 29.5821 23.2593 31.5045 23.2844 31.5213L22.7983 31.8906Z" fill="#4FA812"/>
<path d="M22.6313 32.0499C22.6229 32.0331 21.4914 30.5809 20.6533 29.7162L21.0892 29.2881C21.9608 30.1695 23.0671 31.6134 23.1174 31.6722L22.6313 32.0499Z" fill="#7ABD4C"/>
<path d="M22.3551 31.346C22.3551 31.346 20.2681 32.7143 22.5311 35.409C22.5311 35.409 29.6133 44.2233 31.3231 44.0722C31.3231 44.0722 32.706 44.5003 30.1749 39.8749C30.1749 39.8749 27.87 35.5516 25.9255 32.7478C25.9423 32.7478 24.266 30.1791 22.3551 31.346Z" fill="#EB5900"/>
<path d="M25.8584 33.6533C25.8668 33.6113 25.8584 33.5609 25.8417 33.519C24.8275 31.2188 23.6877 31.5798 23.6458 31.5966C23.5536 31.6218 23.5033 31.7477 23.5116 31.8568C23.5284 31.9743 23.6122 32.0415 23.7044 32.0163C23.7463 32.0079 24.6683 31.7477 25.5567 33.754C25.5986 33.8547 25.6992 33.8883 25.7746 33.8212C25.8249 33.7792 25.85 33.712 25.8584 33.6533Z" fill="#F48435"/>
<path d="M35.3883 33.6875C34.2903 33.6875 34.2903 34.0569 33.1923 34.0569C32.0944 34.0569 32.0944 33.6875 30.9964 33.6875C29.5381 33.6875 27.7109 34.4179 27.7109 36.9866C27.7109 41.0244 29.9069 44.3235 31.3652 44.3235C32.4632 44.3235 32.4632 43.9541 33.1923 43.9541C33.9215 43.9541 33.9215 44.3235 35.0195 44.3235C36.4779 44.3235 38.6738 41.0244 38.6738 36.9866C38.6738 34.4179 36.8466 33.6875 35.3883 33.6875Z" fill="#DD2E44"/>
<path d="M32.8313 33.6878C32.8313 33.6878 32.0099 32.2188 30.6437 32.2188C29.5458 32.2188 29.001 32.9491 29.001 32.9491C29.001 32.9491 30.0989 34.0488 30.9203 34.0488C31.7333 34.0488 32.8313 33.6878 32.8313 33.6878Z" fill="#77B255"/>
<path d="M33.0998 34.7871C33.2506 34.7871 33.3763 34.6192 33.3763 34.4177C33.3763 33.1585 33.0495 31.9916 32.4712 31.2193C32.3622 31.0766 32.1946 31.0766 32.0856 31.2193C31.9767 31.362 31.9767 31.5971 32.0856 31.7398C32.555 32.3694 32.8232 33.3432 32.8232 34.4177C32.8316 34.6192 32.9489 34.7871 33.0998 34.7871Z" fill="#662113"/>
<path d="M32.0768 34.6277C32.0516 34.5942 32.0097 34.5606 31.9678 34.5522C29.6629 33.6624 29.1266 34.7117 29.1098 34.7537C29.0679 34.8376 29.1182 34.9635 29.202 35.0307C29.2942 35.1062 29.4031 35.0895 29.445 35.0055C29.4618 34.9719 29.9228 34.1409 31.9427 34.9216C32.0433 34.9635 32.1355 34.9132 32.1438 34.8124C32.1438 34.7453 32.1187 34.6781 32.0768 34.6277Z" fill="#EF6A7A"/>
<path d="M9.449 22.8478C9.20594 22.8394 8.98802 22.8394 8.79525 22.8898C8.51028 22.9485 8.41809 23.0409 8.27561 23.4354L8.01579 24.1825C7.94036 24.4008 7.94873 24.4344 8.16665 24.5099L9.84292 25.1059L10.1614 24.2161C10.3458 23.704 10.262 23.6285 9.79264 23.3431L9.87646 23.1164L11.427 23.6705L11.3432 23.9055C10.7984 23.8132 10.6559 23.8384 10.4799 24.3336L10.1614 25.2235L11.4438 25.6768C12.0891 25.9034 12.1478 25.8531 12.4412 25.1983L12.6591 25.2738L11.9131 27.3725L11.6952 27.2969C11.8545 26.6925 11.8293 26.6086 11.1923 26.3819L8.31752 25.3662C7.67215 25.1395 7.61348 25.1983 7.35365 25.7607L7.13574 25.6852L7.96549 23.3263C8.20017 22.6715 8.28399 22.3945 8.3259 22.2686C8.56896 22.3441 9.11375 22.5036 9.49091 22.5959L9.449 22.8478Z" fill="#F4B79E"/>
<path d="M15.9193 19.3055C15.8691 19.3811 15.8188 19.4566 15.7601 19.5322C15.3913 20.061 15.098 20.2373 14.5448 20.2709C14.0503 20.3045 13.4888 20.2793 13.011 20.2793C12.7261 20.2793 12.6339 20.338 12.4411 20.657L12.307 20.8669L13.3379 21.4965C13.8994 21.8407 13.9749 21.7903 14.352 21.295L14.5532 21.4126L13.4385 23.2342L13.2457 23.1167C13.5223 22.5374 13.5223 22.4703 12.9607 22.1261L10.329 20.5059C9.76744 20.1618 9.70039 20.2121 9.32323 20.699L9.12207 20.5815L10.1865 18.8438C10.4966 18.3401 10.7564 18.0463 11.0833 17.8952C11.4269 17.7357 11.8292 17.7357 12.2399 17.9875C12.8182 18.3401 12.9356 18.9277 12.8518 19.5322C13.1284 19.5406 13.7402 19.5322 14.1676 19.5238C14.6705 19.4986 14.922 19.4734 15.1734 19.423C15.4668 19.3643 15.626 19.2719 15.7685 19.1376L15.9193 19.3055ZM12.2483 20.4472C12.4495 20.1114 12.5333 19.8595 12.4998 19.6161C12.4578 19.2467 12.2651 18.9781 11.9047 18.7599C11.1923 18.3233 10.6559 18.6255 10.3541 19.1124C10.2368 19.3055 10.1949 19.4314 10.2116 19.4986C10.22 19.5825 10.2787 19.6413 10.4463 19.742L12.0639 20.741L12.2483 20.4472Z" fill="#F4B79E"/>
<path d="M18.0152 15.3109C18.1326 15.4872 18.5684 16.2091 18.6858 16.4273L16.0289 19.1808L15.8612 19.0213C16.3222 18.4589 16.3138 18.3833 15.8529 17.93L13.6569 15.7978C13.1624 15.3193 13.0703 15.3528 12.6344 15.7306L12.4668 15.5711L14.1347 13.8418C14.6543 13.3046 14.8555 13.0863 14.9142 13.0107C15.0483 13.1367 15.5008 13.5228 15.8277 13.7998L15.6852 14.0013C15.4422 13.867 15.2494 13.7998 15.065 13.7579C14.8052 13.6823 14.6543 13.7663 14.3358 14.0936L13.8497 14.5973C13.6737 14.7736 13.6821 14.8072 13.8497 14.9667L15.0734 16.1587L15.6601 15.5543C16.0456 15.1514 15.9953 15.0422 15.6769 14.5973L15.8529 14.4126L17.0263 15.5459L16.8502 15.7306C16.3725 15.4116 16.2719 15.4032 15.8948 15.7894L15.3165 16.3938L16.406 17.4515C16.8 17.8293 16.9424 17.7705 17.2358 17.4851L17.7135 16.9898C18.0404 16.654 18.0488 16.5449 18.0236 16.2763C18.0069 16.0412 17.8979 15.7054 17.7973 15.462L18.0152 15.3109Z" fill="#F4B79E"/>
<path d="M19.5151 11.0552C19.1128 10.711 18.635 10.4088 18.0399 10.8201C17.5622 11.1475 17.6209 11.626 17.8556 11.9618C18.1489 12.3899 18.5764 12.4235 19.3055 12.3312C20.3281 12.1969 20.8896 12.2556 21.3087 12.8684C21.7864 13.5568 21.5517 14.4886 20.7136 15.0678C20.3281 15.3364 19.909 15.4624 19.5737 15.5463C19.4061 15.4036 18.9954 14.9839 18.7105 14.6733L18.8781 14.4802C19.2971 14.816 20.0012 15.1937 20.6549 14.7404C21.0991 14.4298 21.1662 13.9346 20.8812 13.5148C20.5543 13.0447 20.1604 13.0195 19.3893 13.0951C18.4674 13.1958 17.8639 13.1538 17.4449 12.541C17.0342 11.9534 17.1515 11.0804 18.0148 10.476C18.3836 10.2157 18.8026 10.073 18.9535 10.0059C19.1379 10.2241 19.3558 10.4676 19.6911 10.8537L19.5151 11.0552Z" fill="#F4B79E"/>
<path d="M25.9356 7.00791C25.3657 7.30172 25.3238 7.36048 25.5668 7.97328L26.7151 10.861C26.9582 11.4654 27.0336 11.4654 27.637 11.2976L27.7209 11.5074L25.7345 12.2965L25.6507 12.0782C26.2206 11.7676 26.2625 11.7341 26.0278 11.1213L25.4579 9.68578L23.0776 10.6344L23.6475 12.0699C23.8822 12.6743 23.9576 12.6743 24.5695 12.5064L24.6533 12.7246L22.6669 13.5137L22.5831 13.2955C23.1362 13.0017 23.1949 12.9513 22.9519 12.3469L21.8036 9.45913C21.5606 8.85472 21.4851 8.83793 20.8817 9.01422L20.7979 8.79595L22.7842 8.00686L22.8681 8.22512C22.3149 8.50215 22.2646 8.58609 22.5076 9.18211L22.9602 10.3154L25.3406 9.36679L24.8879 8.23351C24.6533 7.6291 24.5527 7.61231 23.9576 7.7886L23.8738 7.57035L25.8602 6.78125L25.9356 7.00791Z" fill="#F4B79E"/>
<path d="M37.4767 9.95425C37.3342 10.3236 37.0912 10.8693 36.9571 11.1127C36.7308 11.1463 36.1106 11.2386 35.5239 11.1883C33.6297 11.0372 32.7999 9.70241 32.9089 8.36767C33.0346 6.77269 34.3337 5.78212 36.0854 5.91644C36.7559 5.96681 37.2923 6.15988 37.5354 6.21865C37.5438 6.57122 37.5522 7.0665 37.5857 7.45266L37.3259 7.48623C37.2169 6.94058 37.0409 6.60479 36.6554 6.41172C36.4626 6.30259 36.1608 6.22703 35.8759 6.21024C34.6271 6.10951 33.8895 7.00774 33.7889 8.27533C33.6716 9.76118 34.3589 10.7853 35.5825 10.8861C36.3452 10.9448 36.7727 10.6174 37.2337 9.86191L37.4767 9.95425Z" fill="#F4B79E"/>
<path d="M42.2459 7.2924C43.5198 7.73732 44.3077 9.09724 43.7964 10.5579C43.2516 12.1445 41.8268 12.7573 40.469 12.2872C39.0442 11.8003 38.3821 10.3648 38.8682 8.96292C39.3208 7.65336 40.6702 6.74675 42.2459 7.2924ZM42.0028 7.52745C41.1898 7.25043 40.2343 7.70373 39.765 9.07206C39.2956 10.4236 39.6477 11.6828 40.6786 12.0438C41.5335 12.3376 42.4051 11.8927 42.8996 10.4824C43.436 8.94614 42.9499 7.84644 42.0028 7.52745Z" fill="#F4B79E"/>
<path d="M47.4415 15.9981C47.3661 15.9477 47.299 15.8973 47.2152 15.8302C46.6956 15.444 46.5363 15.1502 46.5112 14.5878C46.4861 14.0925 46.528 13.53 46.5447 13.0515C46.5531 12.7661 46.4944 12.6738 46.1843 12.4723L45.9748 12.3296L45.3127 13.3453C44.9523 13.8994 45.0025 13.9749 45.4803 14.3695L45.3546 14.5626L43.5693 13.3957L43.6951 13.2026C44.265 13.4965 44.332 13.4965 44.6924 12.9424L46.3855 10.3485C46.7459 9.80283 46.6956 9.72727 46.2178 9.33272L46.3436 9.13965L48.045 10.2477C48.5395 10.5667 48.8244 10.8438 48.9669 11.1711C49.1178 11.5153 49.1094 11.9267 48.8412 12.3212C48.4724 12.8836 47.8857 12.9928 47.2823 12.892C47.2655 13.1691 47.2571 13.7819 47.2571 14.21C47.2655 14.7137 47.2907 14.9655 47.3242 15.2174C47.3745 15.5196 47.4667 15.6707 47.5924 15.8218L47.4415 15.9981ZM46.4106 12.296C46.7375 12.5059 46.9889 12.5982 47.232 12.5647C47.6008 12.5395 47.869 12.3464 48.1036 11.9938C48.5562 11.2971 48.2713 10.743 47.7935 10.4324C47.6092 10.3065 47.4834 10.2645 47.4164 10.2813C47.3326 10.2897 47.2655 10.3485 47.1649 10.508L46.1257 12.1029L46.4106 12.296Z" fill="#F4B79E"/>
<path d="M54.8255 16.7371C54.4483 16.4097 54.2807 16.351 54.0041 16.5776C53.8113 16.7455 53.5683 16.947 53.0403 17.4339L50.7521 19.5577L50.5342 19.3227L51.2466 14.1348L49.8386 15.436C49.3273 15.9145 49.0926 16.1579 48.9334 16.3258C48.6652 16.6028 48.6987 16.8295 49.0423 17.2744L48.8747 17.4339L47.584 16.0404L47.7516 15.8809C48.1036 16.1999 48.3132 16.2586 48.6149 16.032C48.8161 15.8725 49.0759 15.6542 49.5955 15.1757L51.0371 13.841C51.2047 13.6899 51.2885 13.5892 51.3221 13.3625C51.364 13.1191 51.2802 12.968 51.0539 12.6741L51.2215 12.5146L52.0596 13.4213L51.4478 18.4077L52.7804 17.1737C53.3085 16.6868 53.5347 16.4601 53.694 16.2754C53.9287 16.0236 53.9035 15.8137 53.5096 15.3352L53.6772 15.1757L54.9847 16.586L54.8255 16.7371Z" fill="#F4B79E"/>
<path d="M54.6077 23.4944C54.4066 23.5532 53.5852 23.7714 53.3505 23.8134L51.4814 20.464L51.6826 20.3548C52.0849 20.9593 52.1687 20.9676 52.7303 20.657L55.404 19.1628C56.0074 18.827 55.999 18.7347 55.7643 18.2058L55.9655 18.0967L57.1389 20.2037C57.4993 20.8585 57.6502 21.1104 57.7088 21.1943C57.5496 21.295 57.0467 21.614 56.6947 21.8491L56.5438 21.656C56.7366 21.4629 56.8623 21.295 56.9629 21.1355C57.1054 20.9089 57.0718 20.7326 56.8539 20.338L56.5103 19.7252C56.3846 19.507 56.3594 19.4986 56.1583 19.6161L54.6664 20.4472L55.0771 21.1859C55.3453 21.6728 55.471 21.656 55.9906 21.4797L56.1163 21.698L54.6915 22.4955L54.5658 22.2772C55.01 21.9078 55.0519 21.8155 54.7837 21.3454L54.373 20.6151L53.0488 21.3538C52.571 21.6224 52.5878 21.7819 52.7722 22.1345L53.1074 22.7389C53.3337 23.1502 53.4343 23.1922 53.6941 23.2426C53.9204 23.293 54.2724 23.2846 54.5406 23.2594L54.6077 23.4944Z" fill="#F4B79E"/>
<path d="M55.0436 29.1451C55.0185 29.0528 55.0017 28.9688 54.9766 28.8765C54.8257 28.2469 54.8928 27.9111 55.2364 27.4746C55.5382 27.0801 55.9321 26.6771 56.2506 26.3162C56.4433 26.1063 56.4517 25.9888 56.3511 25.6362L56.2757 25.3927L55.1191 25.7453C54.4905 25.9384 54.4737 26.0307 54.5911 26.6351L54.3731 26.7023L53.7529 24.6624L53.9708 24.5953C54.2223 25.1829 54.2726 25.2249 54.9012 25.0402L57.8598 24.1419C58.4884 23.9489 58.4968 23.8649 58.3794 23.2605L58.5974 23.1934L59.184 25.1409C59.3517 25.7033 59.402 26.0979 59.293 26.4421C59.1924 26.803 58.9158 27.1053 58.4549 27.248C57.8095 27.441 57.2899 27.1472 56.8959 26.6771C56.7032 26.8786 56.3009 27.3403 56.0327 27.6677C55.7142 28.0622 55.5717 28.2637 55.4376 28.482C55.2867 28.7422 55.2532 28.9185 55.2616 29.1116L55.0436 29.1451ZM56.6361 25.6446C56.7534 26.0223 56.8792 26.249 57.0887 26.3833C57.3904 26.6016 57.7173 26.6268 58.1196 26.5092C58.9159 26.2658 59.05 25.6614 58.8823 25.1157C58.8153 24.9059 58.7482 24.7883 58.6895 24.7548C58.6225 24.7044 58.5387 24.7044 58.3459 24.7631L56.5272 25.3172L56.6361 25.6446Z" fill="#F4B79E"/>
<path d="M12.6998 43.8896C12.5321 43.5874 12.4399 43.5034 12.2053 43.579C12.046 43.6377 11.8281 43.7133 11.3671 43.9064L9.36399 44.7207L9.28855 44.5276L11.0319 41.3208L9.78306 41.8329C9.33046 42.0176 9.11255 42.1267 8.97007 42.1939C8.71863 42.3114 8.69348 42.4625 8.81082 42.8319L8.66834 42.8906L8.17383 41.6734L8.31632 41.6146C8.46719 41.9168 8.5929 42.0008 8.84434 41.9252C9.01196 41.8749 9.23827 41.7909 9.69086 41.6063L10.9648 41.0858C11.1073 41.027 11.1827 40.985 11.2582 40.8507C11.342 40.708 11.3336 40.5905 11.2582 40.3303L11.4006 40.2715L11.7024 41.0186L10.0513 44.1666L11.2749 43.6629C11.7443 43.4699 11.9538 43.3775 12.0963 43.302C12.3142 43.1928 12.3394 43.0501 12.1969 42.6388L12.3394 42.58L12.8422 43.814L12.6998 43.8896Z" fill="#F4B79E"/>
<path d="M11.1825 47.944C11.1406 47.8768 11.1155 47.7509 11.1322 47.6753C11.1574 47.5746 11.1993 47.5074 11.2663 47.4403C11.0316 47.3311 10.7215 47.2136 10.6293 47.0709C10.4282 46.7435 10.5539 46.3406 10.8473 46.1559C11.0736 46.0132 11.2999 46.0468 11.5429 46.2483C11.8111 46.4665 12.1464 46.7435 12.2889 46.7855L12.3811 46.7267C12.7079 46.5253 12.7917 46.2399 12.6409 46.0048C12.5738 45.8957 12.4816 45.8621 12.3978 45.8537C12.3056 45.8453 12.1799 45.8705 12.0207 45.9125C11.9368 45.9376 11.8782 45.9125 11.8363 45.8453C11.786 45.7614 11.8027 45.5851 11.9117 45.5179C11.9787 45.4759 12.0709 45.5011 12.1883 45.5599C12.3643 45.6354 12.6995 45.7949 12.9175 46.0216C13.0013 46.1559 13.0516 46.3238 13.0348 46.4833C12.9929 46.7268 12.8839 46.903 12.6493 47.0457L11.7608 47.5998C11.5513 47.7341 11.5345 47.8516 11.5848 47.9356C11.6183 47.9943 11.677 48.0363 11.7357 48.0699L11.6351 48.1958L11.1825 47.944ZM12.138 46.8862C12.029 46.8191 11.7944 46.6596 11.6854 46.5756C11.501 46.4497 11.3418 46.3994 11.1741 46.5085C10.9311 46.6596 10.9311 46.9114 11.0233 47.0625C11.0987 47.1801 11.2747 47.306 11.4256 47.3395C11.6351 47.1968 11.9201 47.0205 12.138 46.8862Z" fill="#F4B79E"/>
<path d="M12.9261 50.1861C12.8339 50.1441 12.7584 50.0938 12.7249 50.0518C12.507 49.7832 12.5573 49.5061 12.9009 49.2375L14.133 48.2553L13.8983 47.9615L13.9318 47.9027L14.1414 47.9195L14.3006 48.1126L14.6526 47.8271C14.8035 47.8355 15.013 47.8775 15.1555 47.8859L15.1974 47.9531C15.013 48.0874 14.7616 48.2805 14.5604 48.44L14.946 48.9269C14.9376 48.994 14.8286 49.0612 14.7532 49.036L14.3928 48.5827L13.3116 49.4473C12.968 49.7243 13.0182 49.909 13.1021 50.0182C13.1859 50.1189 13.2948 50.1861 13.3786 50.2197L13.2948 50.3456L12.9261 50.1861Z" fill="#F4B79E"/>
<path d="M15.9516 53.1922C15.7421 53.0411 15.4823 52.8816 15.2308 52.7473C15.2895 52.6885 15.4236 52.5458 15.5242 52.4451C15.147 52.4199 14.8537 52.3779 14.6441 52.168C14.3843 51.9162 14.3173 51.5384 14.728 51.1187L15.4571 50.3632C15.6583 50.1533 15.6499 50.103 15.5745 49.9854L15.4823 49.8595L15.5829 49.7588C15.7589 49.9099 16.0522 50.1198 16.2031 50.2289C16.069 50.338 15.893 50.5311 15.6415 50.7829L15.1303 51.3118C14.795 51.656 14.8788 51.9246 15.0548 52.0925C15.1973 52.2352 15.3985 52.3108 15.6499 52.3108L16.5299 51.4041C16.7311 51.1943 16.7143 51.1187 16.597 50.976L16.4881 50.8417L16.5886 50.7409C16.8484 50.9676 17.1586 51.1943 17.2675 51.2614L16.0103 52.5626C15.8259 52.7557 15.8259 52.8144 15.9684 52.9655L16.0774 53.0746L15.9516 53.1922Z" fill="#F4B79E"/>
<path d="M17.9378 54.8938L16.9404 54.155L17.0326 54.0375C17.326 54.2138 17.3679 54.2138 17.5774 53.9284L18.2479 53.0218C18.4575 52.7363 18.4491 52.7112 18.2228 52.4929L18.3066 52.3838C18.5413 52.5097 18.776 52.602 19.0526 52.6608C18.9436 52.8035 18.8095 52.9966 18.7005 53.1393C19.019 53.0218 19.3794 52.921 19.5973 53.0805C19.7566 53.1981 19.7733 53.3659 19.6979 53.4751C19.6225 53.5758 19.4884 53.6178 19.371 53.6094C19.304 53.601 19.2789 53.5758 19.2621 53.517C19.2453 53.4079 19.2286 53.324 19.1447 53.2652C19.0526 53.1981 18.7927 53.2148 18.5329 53.3659L17.9294 54.1802C17.7199 54.4656 17.7199 54.5076 18.0384 54.7762L17.9378 54.8938Z" fill="#F4B79E"/>
<path d="M20.9387 56.8261C20.8716 56.7841 20.7878 56.6918 20.7711 56.6162C20.7459 56.5239 20.7543 56.4399 20.7711 56.3392C20.5112 56.3644 20.1844 56.4064 20.0335 56.3224C19.6982 56.1377 19.6144 55.7264 19.7821 55.4158C19.9078 55.1807 20.1257 55.1052 20.4358 55.164C20.7794 55.2227 21.1985 55.2983 21.3494 55.2731L21.3997 55.1807C21.584 54.8449 21.5254 54.5595 21.2823 54.4168C21.1733 54.3581 21.0812 54.3748 20.9973 54.4C20.9051 54.4336 20.8213 54.526 20.6956 54.6351C20.6286 54.6938 20.5699 54.7022 20.4945 54.6687C20.4023 54.6183 20.3352 54.4588 20.4023 54.3413C20.4358 54.2741 20.5364 54.2489 20.6621 54.2405C20.8549 54.2153 21.2236 54.1986 21.5254 54.2909C21.6679 54.3665 21.7936 54.4924 21.8522 54.6435C21.9361 54.8785 21.9277 55.08 21.7852 55.3235L21.2739 56.2385C21.1482 56.4567 21.1985 56.5658 21.2823 56.6162C21.341 56.6498 21.4164 56.6582 21.4835 56.6582L21.4583 56.8177L20.9387 56.8261ZM21.2656 55.441C21.1315 55.4326 20.8549 55.4074 20.7208 55.3906C20.4945 55.3738 20.3352 55.399 20.243 55.5753C20.1005 55.8271 20.2263 56.0454 20.3771 56.1293C20.5029 56.1965 20.7124 56.2217 20.8549 56.1797C20.9806 55.953 21.1398 55.6676 21.2656 55.441Z" fill="#F4B79E"/>
<path d="M22.4805 57.5055L22.5391 57.3628C22.8744 57.4635 22.9247 57.4551 23.0588 57.1277L24.0562 54.7436C24.1819 54.4414 24.1735 54.3995 23.8718 54.2232L23.9304 54.0889C24.207 54.1728 24.5506 54.2232 24.735 54.2316C24.6345 54.4666 24.5339 54.7017 24.4417 54.9367L23.4611 57.2872C23.327 57.6146 23.3437 57.6566 23.6538 57.8161L23.5952 57.9588L22.4805 57.5055Z" fill="#F4B79E"/>
<path d="M31.097 57.598C30.7199 57.5813 30.6361 57.6652 30.4182 57.9002C30.2505 58.0849 30.0745 58.2696 29.8315 58.5298C30.0242 58.7817 30.4601 59.4449 30.5774 59.7303L30.5355 59.7807C30.2505 59.7051 29.9656 59.5372 29.9153 59.4617C29.865 59.3777 29.6471 59.0923 29.5046 58.8824C29.0352 59.3441 28.6581 59.4616 28.2725 59.4029C27.5853 59.2938 27.2835 58.7397 27.359 58.2696C27.4428 57.7743 27.7529 57.6232 28.3144 57.3714C28.0965 57.1112 27.9708 56.8425 28.0127 56.5487C28.0965 56.0702 28.5491 55.768 29.0269 55.8436C29.4711 55.9107 29.7728 56.2717 29.7057 56.7082C29.6638 56.9265 29.5381 57.0692 29.404 57.1447C29.2867 57.2119 29.1107 57.2875 28.9011 57.3714C29.052 57.5477 29.4375 57.9758 29.7225 58.3704C29.8734 58.1941 30.0075 58.0346 30.15 57.8163C30.2924 57.5897 30.2589 57.5057 29.8734 57.405L29.8985 57.2539L31.1222 57.4385L31.097 57.598ZM28.4569 59.0671C28.8257 59.1259 29.052 59.0419 29.3873 58.7229C29.161 58.3703 28.8341 58.001 28.4318 57.5393C28.0127 57.7324 27.8702 57.9422 27.8283 58.2192C27.7529 58.7145 28.1133 59.0083 28.4569 59.0671ZM28.943 56.0283C28.6748 55.9863 28.4821 56.171 28.4318 56.4816C28.3899 56.7502 28.4988 56.9433 28.7838 57.2455C29.1191 57.0776 29.2699 56.9265 29.3118 56.6579C29.3453 56.3556 29.2364 56.0786 28.943 56.0283Z" fill="#F4B79E"/>
<path d="M37.8862 56.054C37.551 56.1296 37.442 56.1967 37.4587 56.4486C37.4755 56.6165 37.4923 56.8431 37.5509 57.3468L37.8108 59.4958L37.6096 59.521L34.9862 56.9942L35.1455 58.3374C35.2042 58.8159 35.2461 59.0593 35.2796 59.2104C35.3215 59.479 35.464 59.5462 35.8579 59.5294L35.8747 59.6805L34.5756 59.8316L34.5588 59.6805C34.8857 59.6134 35.003 59.521 34.9946 59.2524C34.9946 59.0761 34.9695 58.8326 34.9108 58.3457L34.7516 56.9774C34.7348 56.8263 34.7097 56.7424 34.6007 56.6333C34.4834 56.5157 34.366 56.4906 34.0978 56.4989L34.0811 56.3478L34.8857 56.2555L37.4755 58.6816L37.3163 57.372C37.2576 56.8767 37.2157 56.6417 37.1822 56.4822C37.1403 56.2387 37.0062 56.1799 36.5703 56.2051L36.5536 56.054L37.8778 55.8945L37.8862 56.054Z" fill="#F4B79E"/>
<path d="M42.2109 58.1282C41.9762 58.2373 41.7164 58.3968 41.4733 58.5479C41.4482 58.4639 41.3895 58.2793 41.3476 58.1533C41.1381 58.4723 40.9621 58.7074 40.6771 58.7913C40.3335 58.9005 39.9647 58.7745 39.7971 58.2121L39.4869 57.2047C39.4031 56.9277 39.3528 56.9109 39.2104 56.9193L39.0595 56.9361L39.0176 56.8018C39.2355 56.7262 39.5624 56.5668 39.73 56.4828C39.7635 56.6507 39.839 56.9025 39.9479 57.2467L40.1658 57.9519C40.3083 58.4052 40.5849 58.4639 40.8112 58.3884C41.004 58.3296 41.1632 58.1869 41.2889 57.9687L40.9202 56.7682C40.8363 56.4912 40.7609 56.4744 40.5765 56.4996L40.4005 56.5332L40.3586 56.3989C40.6855 56.2813 41.0291 56.1134 41.1381 56.0547L41.6661 57.784C41.7415 58.0442 41.8002 58.0694 42.0013 58.019L42.1438 57.9771L42.2109 58.1282Z" fill="#F4B79E"/>
<path d="M44.4651 57.27C44.3981 57.354 44.331 57.4044 44.2807 57.4295C43.9622 57.5723 43.7108 57.4547 43.5348 57.0602L42.8811 55.6247L42.5458 55.7758L42.5039 55.7254L42.5709 55.524L42.7973 55.4232L42.6129 55.0119C42.6632 54.8692 42.747 54.6761 42.7973 54.5418L42.8727 54.5166C42.9565 54.7265 43.0822 55.0119 43.1912 55.2553L43.7527 55.0035C43.8198 55.0287 43.8533 55.1462 43.8114 55.2218L43.2834 55.4652L43.8533 56.7244C44.0377 57.1189 44.2221 57.1273 44.3562 57.0686C44.4735 57.0182 44.5657 56.9175 44.616 56.8503L44.7166 56.9594L44.4651 57.27Z" fill="#F4B79E"/>
<path d="M46.9876 55.9198L45.9232 56.5494L45.8477 56.4151C46.1243 56.2136 46.1411 56.1716 45.9567 55.8694L45.3868 54.9041C45.2024 54.5935 45.1772 54.5935 44.8923 54.7194L44.8252 54.6018C45.0347 54.4255 45.2024 54.2493 45.37 54.0226C45.4622 54.1737 45.5795 54.3836 45.6717 54.5347C45.6885 54.1989 45.7388 53.8211 45.9651 53.6868C46.1411 53.5861 46.3003 53.6365 46.3674 53.754C46.4344 53.8631 46.4177 54.0058 46.359 54.1066C46.3255 54.1653 46.292 54.1821 46.2333 54.1653C46.1243 54.1401 46.0405 54.1234 45.9567 54.1737C45.8561 54.2325 45.7723 54.4759 45.8058 54.7781L46.3255 55.6512C46.5099 55.9618 46.5434 55.9702 46.9205 55.7855L46.9876 55.9198Z" fill="#F4B79E"/>
<path d="M47.1723 52.2003C47.0549 52.2926 46.8621 52.259 46.7699 52.1415C46.6694 51.9988 46.7029 51.8225 46.8286 51.7302C46.9543 51.6379 47.122 51.663 47.2225 51.8057C47.3147 51.9233 47.298 52.0996 47.1723 52.2003ZM48.4881 54.9201L48.3959 54.7942C48.6474 54.5676 48.6641 54.5172 48.4462 54.2234L47.7841 53.3336C47.5829 53.0649 47.5578 53.0565 47.2644 53.2076L47.189 53.1069C47.3818 52.897 47.5494 52.6956 47.6751 52.4773C47.8092 52.662 47.9433 52.8383 48.0774 53.0229L48.7815 53.9799C48.9994 54.2738 49.0497 54.2738 49.3514 54.0891L49.4436 54.2066L48.4881 54.9201Z" fill="#F4B79E"/>
<path d="M51.2546 52.644C51.221 52.7447 51.1707 52.8202 51.1288 52.8538C50.869 53.0889 50.5924 53.0553 50.3075 52.7363L49.2514 51.5694L48.9748 51.8213L48.9162 51.7877V51.5694L49.1005 51.4015L48.7988 51.0658C48.7988 50.9147 48.824 50.7048 48.824 50.5537L48.891 50.5117C49.0335 50.688 49.243 50.9231 49.419 51.1161L49.8716 50.6964C49.9471 50.7048 50.0141 50.8055 49.9974 50.8811L49.5699 51.2756L50.5002 52.2998C50.7936 52.6272 50.978 52.5684 51.0785 52.476C51.1707 52.3921 51.2378 52.2662 51.2629 52.1906L51.397 52.2662L51.2546 52.644Z" fill="#F4B79E"/>
<path d="M50.5664 49.1112C50.4658 49.2203 50.2731 49.2371 50.1641 49.128C50.0384 49.0104 50.0384 48.8258 50.1389 48.7082C50.2395 48.5991 50.4155 48.5907 50.5413 48.6998C50.6502 48.809 50.667 48.9936 50.5664 49.1112ZM52.3935 51.5204L52.2846 51.4197C52.4858 51.1427 52.4941 51.1007 52.2259 50.8573L51.4045 50.1101C51.1531 49.8835 51.128 49.8835 50.8765 50.0849L50.7759 50.001C50.9268 49.7576 51.0442 49.5225 51.128 49.2875C51.2956 49.4386 51.4632 49.5897 51.6309 49.7408L52.5109 50.5383C52.7791 50.7817 52.8294 50.7733 53.0892 50.5383L53.1982 50.639L52.3935 51.5204Z" fill="#F4B79E"/>
<path d="M52.7793 47.1887C53.1648 46.6346 53.8772 46.5255 54.4472 46.92C55.1596 47.4237 55.1261 48.196 54.8243 48.6242C54.3969 49.237 53.6426 49.2621 53.1481 48.9096C52.4273 48.4143 52.4859 47.6084 52.7793 47.1887ZM52.8882 47.3482C52.6955 47.6168 52.7877 48.0449 53.2989 48.4059C53.8605 48.8004 54.4388 48.8424 54.6902 48.4731C54.883 48.196 54.8411 47.8266 54.2376 47.4069C53.7347 47.0459 53.1648 46.962 52.8882 47.3482Z" fill="#F4B79E"/>
<path d="M57.2807 43.9397C57.1969 44.1916 57.1298 44.477 57.0795 44.7624C57.0041 44.7204 56.8281 44.6365 56.7108 44.5777C56.7946 44.947 56.8449 45.2409 56.7108 45.5011C56.5515 45.8285 56.2079 46.0048 55.6882 45.7445L54.7495 45.2745C54.4897 45.1401 54.4394 45.1653 54.3556 45.2745L54.2634 45.4004L54.1377 45.3332C54.2299 45.1233 54.3388 44.7792 54.3975 44.5945C54.5484 44.6868 54.7747 44.8044 55.0932 44.9639L55.7469 45.2912C56.1743 45.5011 56.4006 45.3416 56.5096 45.1233C56.6018 44.947 56.6102 44.7288 56.5431 44.4854L55.42 43.9229C55.1602 43.7886 55.0932 43.8306 54.9926 43.9901L54.892 44.1328L54.7663 44.0656C54.9088 43.7466 55.0177 43.3857 55.0596 43.2598L56.6772 44.0656C56.9203 44.1832 56.9706 44.1664 57.0712 43.9901L57.1466 43.8558L57.2807 43.9397Z" fill="#F4B79E"/>
<path d="M56.7021 40.8083C56.3753 40.7999 56.1238 40.8671 56.0233 41.1777C55.9646 41.354 56.04 41.5387 56.2496 41.6058C56.4675 41.6814 56.6183 41.5639 56.853 41.3288C57.2134 40.9595 57.4397 40.7915 57.7749 40.909C58.2443 41.0685 58.3365 41.5806 58.2024 41.9836C58.1102 42.2522 57.9509 42.4536 57.8504 42.5459C57.6911 42.5207 57.3978 42.4704 57.2218 42.4368L57.2469 42.2774C57.6073 42.2942 57.9342 42.2102 58.0515 41.8493C58.1186 41.6562 58.0431 41.4463 57.8252 41.3708C57.5989 41.2952 57.4313 41.3876 57.205 41.6142C56.9117 41.9164 56.6435 42.1515 56.2831 42.0256C55.9059 41.8996 55.7299 41.4883 55.8976 41.0014C55.973 40.7832 56.0819 40.6321 56.1322 40.5312C56.2579 40.5565 56.5932 40.632 56.7273 40.6488L56.7021 40.8083Z" fill="#F4B79E"/>
<path d="M63.8518 37.2732C62.3935 36.61 61.3793 35.1409 61.3793 33.4284C61.3793 31.7243 62.3851 30.2637 63.8351 29.6005C64.3128 29.3822 64.8408 29.2479 65.4024 29.2227C65.3269 28.6435 65.2347 28.0727 65.1258 27.5018C62.3096 12.4167 49.0922 1 33.2096 1C17.3353 1 4.12625 12.4083 1.30173 27.4766C1.19277 28.0475 1.10058 28.6267 1.02514 29.2143C1.57831 29.2143 2.11472 29.3235 2.60084 29.5249C4.14301 30.1545 5.22421 31.6656 5.22421 33.4284C5.22421 35.1997 4.12625 36.7191 2.5757 37.3403C2.08958 37.5334 1.56994 37.6425 1.01677 37.6425H1C1.07543 38.2302 1.16763 38.8094 1.26821 39.3802C4.02568 54.5409 17.2766 66.0415 33.2096 66.0415C49.1509 66.0415 62.4102 54.5325 65.1509 39.3634C65.2515 38.7926 65.3437 38.2218 65.4191 37.6425C64.8576 37.6174 64.3296 37.4914 63.8518 37.2732Z" stroke="#F4B79E" stroke-miterlimit="10"/>
<path d="M63.5903 39.0124C61.0088 53.4679 48.3865 64.4397 33.2079 64.4397C18.0711 64.4397 5.47395 53.5267 2.85059 39.1299C5.28118 38.3828 7.05803 36.1162 7.05803 33.4384C7.05803 30.7689 5.30632 28.5107 2.88411 27.7552C5.5829 13.4423 18.1382 2.61328 33.2162 2.61328C48.3362 2.61328 60.9166 13.5011 63.5651 27.8727C61.3273 28.729 59.7349 30.8948 59.7349 33.4384C59.7265 35.9903 61.3357 38.1645 63.5903 39.0124Z" stroke="#F4B79E" stroke-width="0.5" stroke-miterlimit="10"/>
<path d="M33.25 51.7963C43.3503 51.7963 51.5382 43.5954 51.5382 33.4792C51.5382 23.3629 43.3503 15.1621 33.25 15.1621C23.1498 15.1621 14.9619 23.3629 14.9619 33.4792C14.9619 43.5954 23.1498 51.7963 33.25 51.7963Z" stroke="#F4B79E" stroke-width="0.5" stroke-miterlimit="10"/>
</svg>
