<svg width="439" height="441" viewBox="0 0 439 441" fill="none" xmlns="http://www.w3.org/2000/svg">
<path d="M243.539 254.552C257.41 258.431 271.613 250.797 275.32 237.489C277.237 230.605 277.153 223.304 275.112 216.337C273.779 211.748 273.113 207.034 273.113 202.32C273.113 200.359 273.238 198.44 273.488 196.479C274.321 190.054 270.114 183.922 263.616 182.086C257.118 180.292 250.37 183.338 247.746 189.262C245.039 195.353 241.123 200.86 236.167 205.407C230.835 210.33 227.003 216.546 225.087 223.429C221.422 236.738 229.669 250.672 243.539 254.552Z" fill="#D4E496"/>
<path d="M234.877 225.672C232.586 233.89 237.667 242.485 246.206 244.863C254.745 247.24 263.534 242.526 265.783 234.308C268.074 226.089 263.784 214.575 255.245 212.197C246.748 209.819 237.168 217.453 234.877 225.672Z" fill="#B28966"/>
<path d="M261.243 233.024C263.325 225.556 259.993 215.377 252.954 211.789C253.745 211.831 254.537 211.998 255.328 212.206C263.867 214.584 268.115 226.099 265.866 234.317C263.575 242.536 254.828 247.25 246.289 244.872C245.54 244.663 244.748 244.371 244.04 244.079C251.704 245.081 259.16 240.492 261.243 233.024Z" fill="#8B6847"/>
<path d="M235.378 204.61C240.209 200.146 244.083 194.764 246.707 188.799C248.082 185.712 250.581 183.167 253.746 181.748C256.87 180.33 260.494 180.038 263.868 180.956L263.951 180.997C267.367 181.957 270.324 184.084 272.282 186.921C274.24 189.8 275.114 193.263 274.656 196.6C274.406 198.477 274.281 200.396 274.281 202.316C274.24 206.946 274.906 211.535 276.197 215.999C278.28 223.133 278.363 230.643 276.406 237.735C272.574 251.544 257.787 259.554 243.375 255.632C243.25 255.59 243.167 255.59 243.042 255.549C243 255.549 242.917 255.507 242.875 255.507C241.959 255.257 241.084 254.923 240.168 254.589C227.547 249.5 220.382 235.983 223.965 223.133C225.964 216.041 229.921 209.658 235.378 204.61ZM243.833 253.463C245.957 254.047 248.123 254.381 250.289 254.422C261.202 254.631 271.241 247.789 274.198 237.192C276.031 230.517 275.989 223.425 274.031 216.667C272.657 211.994 271.99 207.155 271.99 202.316C271.99 200.313 272.115 198.311 272.365 196.35C273.032 191.093 269.991 186.004 265.076 183.834C264.535 183.584 263.951 183.375 263.368 183.208C257.495 181.581 251.289 184.376 248.915 189.758C246.166 195.974 242.125 201.606 237.044 206.279C231.879 211.035 228.13 217.084 226.297 223.759C222.757 236.441 230.629 249.75 243.833 253.463Z" fill="#37B678"/>
<path d="M264.238 238.231C264.363 237.897 264.238 237.48 263.905 237.313L262.489 236.562C262.155 236.395 261.739 236.479 261.531 236.812C260.781 237.897 259.073 240.275 257.365 241.693C255.783 242.987 252.659 243.988 249.41 244.113C242.995 244.405 238.33 246.032 235.956 250.579C232.374 257.338 236.497 266.558 245.161 271.147C253.825 275.736 263.738 273.942 267.32 267.183C269.736 262.594 267.904 257.421 264.988 252.29C263.322 249.37 262.364 246.533 262.572 244.447C262.78 242.277 263.78 239.441 264.238 238.231Z" fill="#E289B0"/>
<path fill-rule="evenodd" clip-rule="evenodd" d="M235.076 260.751C236.409 262.962 238.283 265.006 240.574 266.758C248.405 272.64 258.485 272.474 263.108 266.383C266.232 262.252 265.274 256.871 263.233 251.364C262.317 248.861 261.817 246.483 261.942 244.605C261.901 246.65 262.859 249.278 264.358 251.948C267.274 257.079 269.106 262.253 266.691 266.842C263.108 273.6 253.195 275.394 244.531 270.805C239.95 268.385 236.659 264.672 235.076 260.751Z" fill="#C7638F"/>
<path d="M252.618 258.546C249.244 264.971 246.204 270.019 245.829 269.81C245.454 269.602 247.911 264.262 251.285 257.837C254.659 251.412 257.7 246.364 258.075 246.573C258.45 246.781 255.992 252.163 252.618 258.546ZM263.24 263.761C260.324 269.268 252.452 270.853 252.118 270.645C251.744 270.436 259.033 268.559 261.948 263.052C264.864 257.545 262.323 250.453 262.657 250.62C263.031 250.87 266.155 258.254 263.24 263.761ZM239.706 251.329C236.79 256.836 239.914 264.262 240.289 264.428C240.664 264.595 238.081 257.545 240.997 251.996C243.913 246.489 251.202 244.612 250.827 244.404C250.452 244.195 242.622 245.78 239.706 251.329Z" fill="#C54C82"/>
<path d="M257.659 261.63C254.368 267.888 248.62 271.267 248.453 271.184C248.287 271.1 252.494 266.845 255.784 260.629C259.075 254.371 260.199 248.531 260.366 248.614C260.533 248.697 260.949 255.414 257.659 261.63ZM245.246 255.081C241.955 261.338 242.372 268.013 242.539 268.097C242.705 268.18 243.83 262.298 247.12 256.082C250.411 249.824 254.618 245.61 254.451 245.527C254.326 245.443 248.537 248.823 245.246 255.081Z" fill="#C54C82"/>
<path fill-rule="evenodd" clip-rule="evenodd" d="M239.537 248.621C239.578 249.372 239.162 250.498 238.662 251.082C238.287 251.541 237.954 252.083 237.621 252.667C237.162 253.543 236.621 253.877 236.413 253.46C236.163 253.043 236.371 251.958 236.788 251.082C237.329 249.997 237.954 249.08 238.579 248.329C239.078 247.745 239.495 247.87 239.537 248.621Z" fill="#FFCFC9"/>
<path d="M195.634 230.841L197.3 238.726C197.55 239.811 198.299 240.604 199.174 240.604H209.546C210.379 240.604 211.087 239.936 211.378 238.976L218.084 215.989H213.544L209.296 227.629L207.546 208.563H202.256L200.34 227.087L196.966 211.651L192.135 212.777L195.634 230.841Z" fill="#9AD052"/>
<path d="M226.541 194.883C226.041 188.5 220.127 183.452 212.879 183.452C211.713 183.452 210.588 183.577 209.505 183.827C207.506 179.948 203.382 177.319 198.592 177.319C191.844 177.319 186.388 182.618 186.388 189.126C186.388 189.459 186.388 189.752 186.43 190.085C180.598 191.42 176.225 196.26 176.225 202.017C176.225 208.817 182.264 214.324 189.678 214.324C192.511 214.324 195.135 213.531 197.301 212.154C199.259 213.948 201.758 215.033 204.507 215.033C206.256 215.033 207.881 214.616 209.38 213.823C211.796 216.41 215.295 217.995 219.21 217.995C226.5 217.995 232.373 212.363 232.373 205.396C232.373 201.016 230.04 197.136 226.541 194.883Z" fill="#5FA43D"/>
<path d="M189.594 212.522C186.303 212.522 183.929 210.895 182.388 209.31C180.264 207.098 179.347 204.554 179.306 204.428C179.098 203.844 179.389 203.219 179.931 203.01C180.472 202.801 181.055 203.093 181.263 203.636C181.388 204.011 184.429 212.313 192.51 209.81C193.051 209.643 193.634 209.977 193.801 210.561C193.968 211.145 193.634 211.729 193.093 211.896C191.802 212.355 190.635 212.522 189.594 212.522Z" fill="#477D27"/>
<path d="M204.216 213.238C201.3 213.238 199.509 211.236 198.926 209.984C198.676 209.442 198.885 208.774 199.384 208.524C199.884 208.274 200.509 208.482 200.759 209.025C200.801 209.15 202.134 211.695 205.341 210.944C205.882 210.818 206.424 211.194 206.549 211.778C206.674 212.362 206.299 212.946 205.757 213.071C205.216 213.196 204.716 213.238 204.216 213.238Z" fill="#477D27"/>
<path d="M220.296 215.497C219.671 215.497 219.296 215.455 219.254 215.455C218.671 215.372 218.296 214.829 218.38 214.245C218.463 213.661 218.963 213.244 219.546 213.327C219.879 213.369 227.21 214.287 229.459 205.401C229.626 204.817 230.168 204.483 230.709 204.608C231.251 204.775 231.584 205.359 231.459 205.943C230.043 211.534 226.835 213.828 224.378 214.788C222.712 215.372 221.212 215.497 220.296 215.497Z" fill="#477D27"/>
<path d="M190.263 186.959C190.179 186.959 190.096 186.959 190.013 186.918C189.471 186.792 189.096 186.208 189.221 185.624C189.221 185.541 189.638 183.872 190.888 182.12C192.054 180.535 194.261 178.574 197.969 178.407C198.51 178.365 199.01 178.824 199.051 179.45C199.093 180.034 198.635 180.576 198.052 180.576C192.429 180.827 191.221 186.041 191.221 186.125C191.179 186.626 190.763 186.959 190.263 186.959Z" fill="#C8FFBF"/>
<path d="M189.092 191.173C188.509 191.173 188.051 190.672 188.051 190.088C188.051 189.838 188.051 188.92 188.259 188.336C188.426 187.752 189.009 187.46 189.55 187.627C190.092 187.835 190.383 188.419 190.217 189.003C190.175 189.17 190.133 189.713 190.133 190.046C190.133 190.672 189.675 191.173 189.092 191.173Z" fill="#BFFFCB"/>
<path d="M167.899 216.241C167.607 216.158 160.568 214.28 155.111 209.024L157.194 206.854C162.067 211.569 168.607 213.279 168.649 213.321L167.899 216.241Z" fill="#7ABD4C"/>
<path d="M167.65 215.613C167.609 215.53 161.736 207.478 155.529 203.974L156.987 201.345C163.777 205.142 169.858 213.486 170.108 213.861L167.65 215.613ZM170.649 214.278C170.358 213.861 163.027 204.141 160.986 195.463L163.901 194.754C165.818 202.806 172.94 212.359 173.065 212.443L170.649 214.278Z" fill="#4FA812"/>
<path d="M169.814 215.082C169.773 214.998 164.15 207.781 159.984 203.484L162.15 201.356C166.482 205.737 171.98 212.913 172.23 213.205L169.814 215.082Z" fill="#7ABD4C"/>
<path d="M168.437 211.57C168.437 211.57 158.066 218.37 169.312 231.762C169.312 231.762 204.509 275.567 213.006 274.816C213.006 274.816 219.878 276.943 207.299 253.956C207.299 253.956 195.845 232.471 186.181 218.537C186.265 218.537 177.934 205.771 168.437 211.57Z" fill="#EB5900"/>
<path d="M185.854 223.033C185.895 222.825 185.854 222.574 185.77 222.366C180.73 210.935 175.066 212.729 174.857 212.812C174.399 212.937 174.149 213.563 174.191 214.105C174.274 214.689 174.691 215.023 175.149 214.898C175.357 214.856 179.939 213.563 184.354 223.534C184.563 224.034 185.062 224.201 185.437 223.868C185.687 223.659 185.812 223.325 185.854 223.033Z" fill="#F48435"/>
<path d="M233.213 223.211C227.756 223.211 227.756 225.047 222.3 225.047C216.843 225.047 216.843 223.211 211.387 223.211C204.139 223.211 195.059 226.841 195.059 239.606C195.059 259.673 205.972 276.069 213.219 276.069C218.676 276.069 218.676 274.233 222.3 274.233C225.923 274.233 225.923 276.069 231.38 276.069C238.627 276.069 249.54 259.673 249.54 239.606C249.54 226.841 240.46 223.211 233.213 223.211Z" fill="#DD2E44"/>
<path d="M220.505 223.209C220.505 223.209 216.423 215.908 209.634 215.908C204.177 215.908 201.47 219.538 201.47 219.538C201.47 219.538 206.926 225.003 211.008 225.003C215.049 225.003 220.505 223.209 220.505 223.209Z" fill="#77B255"/>
<path d="M221.838 228.673C222.587 228.673 223.212 227.838 223.212 226.837C223.212 220.579 221.588 214.78 218.714 210.942C218.172 210.233 217.339 210.233 216.798 210.942C216.256 211.651 216.256 212.82 216.798 213.529C219.13 216.658 220.463 221.497 220.463 226.837C220.505 227.838 221.088 228.673 221.838 228.673Z" fill="#662113"/>
<path d="M216.756 227.879C216.632 227.713 216.423 227.546 216.215 227.504C204.76 223.082 202.095 228.297 202.011 228.505C201.803 228.923 202.053 229.548 202.47 229.882C202.928 230.257 203.469 230.174 203.677 229.757C203.761 229.59 206.052 225.46 216.09 229.34C216.59 229.548 217.048 229.298 217.09 228.797C217.09 228.464 216.965 228.13 216.756 227.879Z" fill="#EF6A7A"/>
<path d="M90.656 233.11C89.5891 233.678 88.6512 234.219 87.9467 234.915C86.8662 235.876 86.6989 236.503 87.066 238.555L87.8043 242.416C88.022 243.543 88.1415 243.666 89.2671 243.45L97.9626 241.85L97.1223 237.229C96.6435 234.567 96.095 234.45 93.3657 234.388L93.1632 233.204L101.213 231.736L101.437 232.956C98.8625 233.912 98.3119 234.374 98.785 236.943L99.6254 241.564L106.271 240.329C109.612 239.701 109.739 239.338 109.375 235.791L110.5 235.575L112.505 246.461L111.379 246.677C110.562 243.68 110.246 243.381 106.941 243.989L92.0441 246.76C88.7033 247.389 88.5968 247.787 88.8761 250.854L87.7505 251.07L85.4601 238.856C84.8431 235.454 84.5156 234.054 84.383 233.408C85.6169 233.129 88.3579 232.462 90.2106 231.922L90.656 233.11Z" fill="#171635"/>
<path d="M109.701 201.788C109.673 202.238 109.644 202.688 109.579 203.159C109.306 206.352 108.482 207.839 106.184 209.358C104.14 210.732 101.66 212.019 99.604 213.206C98.3776 213.914 98.1268 214.396 98.0898 216.248L98.0341 217.484L104.035 217.632C107.308 217.718 107.507 217.314 107.9 214.245L109.057 214.251L108.786 224.861L107.665 224.834C107.416 221.654 107.249 221.365 103.977 221.279L88.6241 220.846C85.352 220.76 85.1886 221.143 84.7752 224.176L83.6174 224.17L83.8807 214.046C83.9638 211.108 84.3519 209.198 85.3833 207.735C86.4659 206.195 88.1974 205.195 90.5908 205.258C93.9558 205.339 95.921 207.576 97.0622 210.386C98.2734 209.735 100.886 208.178 102.705 207.08C104.806 205.722 105.826 204.989 106.783 204.147C107.9 203.165 108.356 202.372 108.635 201.44L109.701 201.788ZM96.7386 215.824C96.77 213.879 96.5049 212.586 95.7557 211.622C94.6575 210.136 93.1604 209.459 91.067 209.415C86.9161 209.307 85.3584 211.94 85.2697 214.786C85.2444 215.908 85.3769 216.554 85.616 216.802C85.8606 217.142 86.2592 217.249 87.2309 217.266L96.6751 217.546L96.7386 215.824Z" fill="#171635"/>
<path d="M108.797 179.386C109.74 179.853 113.409 181.877 114.457 182.525L109.864 200.977L108.746 200.707C109.332 197.141 109.108 196.837 105.998 196.031L91.2487 192.311C87.9315 191.48 87.6181 191.854 86.6811 194.563L85.5633 194.293L88.4446 182.706C89.3461 179.102 89.6695 177.663 89.7343 177.192C90.6243 177.401 93.5318 177.938 95.627 178.318L95.5143 179.539C94.1345 179.565 93.1379 179.755 92.2401 180.033C90.9341 180.353 90.4934 181.089 89.9361 183.29L89.0955 186.666C88.776 187.862 88.8956 187.985 90.0133 188.255L98.2419 190.345L99.2651 186.286C99.9232 183.594 99.4356 183.249 96.9593 182.125L97.2579 180.893L105.124 182.855L104.825 184.087C101.977 183.901 101.523 184.115 100.859 186.714L99.8721 190.753L107.19 192.598C109.824 193.245 110.291 192.638 110.844 190.68L111.67 187.362C112.242 185.104 112.007 184.614 111.231 183.52C110.575 182.55 109.272 181.375 108.234 180.578L108.797 179.386Z" fill="#171635"/>
<path d="M104.679 157.347C102.092 156.866 99.2848 156.752 97.7458 160.001C96.5032 162.597 97.9447 164.511 99.7891 165.373C102.115 166.487 104.039 165.569 106.947 163.36C111.014 160.241 113.577 159.098 116.904 160.694C120.67 162.47 121.976 167.064 119.808 171.639C118.816 173.753 117.325 175.337 116.091 176.531C115.015 176.333 112.204 175.547 110.206 174.918L110.448 173.671C113.086 174.075 117.054 173.951 118.742 170.376C119.882 167.935 118.94 165.637 116.67 164.539C114.095 163.328 112.337 164.198 109.206 166.439C105.489 169.164 102.787 170.483 99.4609 168.886C96.2332 167.378 94.5688 163.329 96.7823 158.582C97.7229 156.546 99.1719 154.89 99.6543 154.227C100.99 154.708 102.533 155.214 104.935 156.043L104.679 157.347Z" fill="#171635"/>
<path d="M122.255 123.973C120.532 126.653 120.497 127.01 123.066 129.044L135.184 138.619C137.732 140.616 138.056 140.429 140.236 138.207L141.119 138.902L134.53 147.234L133.627 146.503C135.308 143.75 135.405 143.501 132.873 141.447L126.853 136.685L118.965 146.682L124.985 151.444C127.497 153.462 127.822 153.275 130.038 151.032L130.941 151.763L124.352 160.095L123.449 159.364C125.1 156.725 125.227 156.362 122.679 154.365L110.562 144.79C108.014 142.792 107.648 142.908 105.488 145.166L104.585 144.435L111.174 136.103L112.077 136.834C110.384 139.401 110.377 139.887 112.904 141.848L117.668 145.601L125.555 135.604L120.791 131.851C118.279 129.833 117.805 130.01 115.681 132.248L114.778 131.517L121.367 123.185L122.255 123.973Z" fill="#171635"/>
<path d="M179.247 107.976C179.552 109.919 179.862 112.872 179.889 114.253C178.999 114.959 176.559 116.898 173.909 118.139C165.381 122.196 158.493 118.513 155.645 112.497C152.223 105.32 155.353 97.8291 163.226 94.0545C166.237 92.6051 169.025 92.1032 170.217 91.7521C171.129 93.2487 172.396 95.3596 173.5 96.9382L172.465 97.7283C170.64 95.6507 169.048 94.6428 166.909 94.7699C165.809 94.7792 164.322 95.2038 163.054 95.8396C157.429 98.5092 156.486 104.208 159.203 109.913C162.39 116.6 167.893 119.3 173.41 116.693C176.839 115.05 177.865 112.579 177.972 108.182L179.247 107.976Z" fill="#171635"/>
<path d="M193.153 84.6707C199.741 83.42 206.511 87.3152 207.941 94.8722C209.538 103.054 204.929 109.232 197.917 110.583C190.575 112.028 184.158 107.495 182.767 100.254C181.46 93.4927 185.015 86.2377 193.153 84.6707ZM192.691 86.2863C188.503 87.1142 185.517 91.4394 186.897 98.4948C188.236 105.478 192.88 110.023 198.214 109.015C202.623 108.155 205.269 104.074 203.893 96.7755C202.384 88.8309 197.56 85.3059 192.691 86.2863Z" fill="#171635"/>
<path d="M237.152 109.23C236.702 109.201 236.288 109.15 235.761 109.07C232.565 108.699 231.149 107.83 229.643 105.472C228.305 103.403 227.087 100.878 225.971 98.7769C225.297 97.5277 224.815 97.2761 222.98 97.1795L221.724 97.086L221.398 103.103C221.224 106.383 221.628 106.583 224.664 107.094L224.603 108.238L214.02 107.652L214.081 106.508C217.264 106.357 217.553 106.19 217.727 102.91L218.568 87.539C218.764 84.295 218.359 84.0948 215.323 83.5838L215.384 82.4405L225.46 82.9819C228.381 83.126 230.296 83.6101 231.723 84.6652C233.227 85.7716 234.213 87.5627 234.039 89.9273C233.85 93.2643 231.596 95.1918 228.749 96.2577C229.365 97.4917 230.851 100.15 231.915 101.993C233.203 104.139 233.937 105.161 234.707 106.162C235.674 107.337 236.447 107.758 237.363 108.096L237.152 109.23ZM223.516 95.8585C225.444 95.9495 226.756 95.7221 227.719 94.9737C229.243 93.9489 229.918 92.4515 230.052 90.3509C230.268 86.2276 227.665 84.5511 224.837 84.4014C223.731 84.3176 223.085 84.4494 222.838 84.6883C222.498 84.9327 222.356 85.3522 222.319 86.2886L221.81 95.7356L223.516 95.8585Z" fill="#171635"/>
<path d="M270.768 94.059C268.331 93.5871 267.464 93.7508 266.837 95.4135C266.424 96.6151 265.879 98.0862 264.816 101.494L260.246 116.32L258.724 115.85L248.899 91.7517L246.072 100.851C245.06 104.18 244.655 105.811 244.387 106.93C243.921 108.788 244.629 109.681 247.213 110.742L246.888 111.844L237.87 109.054L238.195 107.951C240.503 108.449 241.551 108.182 242.286 106.456C242.756 105.27 243.332 103.685 244.379 100.335L247.267 91.0079C247.613 89.941 247.723 89.2992 247.304 88.2404C246.88 87.0885 246.144 86.6464 244.44 85.9442L244.765 84.8413L250.625 86.6606L260.382 109.642L263.051 101.019C264.114 97.6118 264.525 96.074 264.751 94.8834C265.135 93.2164 264.506 92.3757 261.621 91.2951L261.946 90.1922L271.078 93.0129L270.768 94.059Z" fill="#171635"/>
<path d="M286.623 123.684C285.903 124.436 282.91 127.417 282.004 128.181L265.637 118.409L266.232 117.44C269.465 119.041 269.847 118.869 271.492 116.137L279.286 103.062C281.049 100.118 280.783 99.7411 278.459 98.0481L279.054 97.0785L289.339 103.231C292.518 105.154 293.793 105.863 294.254 106.078C293.819 106.908 292.447 109.53 291.516 111.417L290.387 110.96C290.737 109.65 290.861 108.615 290.897 107.679C290.947 106.35 290.365 105.674 288.447 104.518L285.445 102.734C284.362 102.107 284.233 102.133 283.659 103.139L279.303 110.423L282.906 112.582C285.27 114.011 285.77 113.626 287.568 111.576L288.652 112.203L284.501 119.176L283.418 118.549C284.412 115.856 284.362 115.354 282.04 113.997L278.458 111.874L274.594 118.344C273.205 120.688 273.674 121.332 275.343 122.392L278.288 124.16C280.284 125.368 280.821 125.299 282.065 124.87C283.164 124.524 284.658 123.614 285.75 122.839L286.623 123.684Z" fill="#171635"/>
<path d="M302.536 146.922C302.198 146.587 301.917 146.268 301.58 145.933C299.366 143.598 298.82 141.986 299.214 139.253C299.533 136.806 300.227 134.093 300.701 131.748C301.009 130.365 300.753 129.839 299.444 128.571L298.514 127.711L294.412 132.102C292.187 134.495 292.344 134.934 294.351 137.244L293.58 138.075L285.842 130.836L286.613 130.006C289.155 131.91 289.476 131.966 291.722 129.609L302.224 118.391C304.45 115.998 304.277 115.616 302.27 113.307L303.041 112.476L310.406 119.4C312.525 121.404 313.721 122.978 314.108 124.73C314.572 126.533 314.132 128.521 312.503 130.281C310.205 132.715 307.239 132.742 304.375 131.698C304.046 133.044 303.462 136.03 303.121 138.106C302.731 140.595 302.618 141.817 302.583 143.089C302.581 144.584 302.874 145.426 303.39 146.236L302.536 146.922ZM300.691 127.899C302.135 129.234 303.239 129.897 304.475 129.954C306.316 130.144 307.785 129.44 309.225 127.934C312.046 124.908 311.122 121.973 309.044 120.042C308.234 119.305 307.654 118.966 307.318 118.967C306.904 118.917 306.543 119.125 305.86 119.857L299.409 126.761L300.691 127.899Z" fill="#171635"/>
<path d="M156.927 315.591C155.454 314.707 154.849 314.575 154.026 315.483C153.487 316.132 152.737 316.999 151.233 318.975L144.635 327.457L143.83 326.813L143.365 308.68L139.263 313.987C137.774 315.907 137.107 316.918 136.661 317.561C135.871 318.691 136.138 319.404 137.561 320.702L137.094 321.309L131.941 317.299L132.408 316.692C133.808 317.618 134.558 317.667 135.452 316.717C136.048 316.084 136.814 315.16 138.303 313.241L142.492 307.835C142.96 307.228 143.18 306.86 143.171 306.094C143.177 305.272 142.849 304.787 141.878 303.854L142.345 303.247L145.5 305.713L146.216 323.365L150.231 318.156C151.771 316.159 152.444 315.241 152.869 314.562C153.536 313.551 153.289 312.874 151.654 311.458L152.121 310.851L157.352 314.912L156.927 315.591Z" fill="#171635"/>
<path d="M160.473 336.813C160.126 336.628 159.705 336.149 159.589 335.782C159.447 335.286 159.46 334.893 159.582 334.437C158.301 334.551 156.674 334.815 155.923 334.43C154.244 333.521 153.783 331.474 154.587 329.951C155.206 328.774 156.264 328.356 157.811 328.62C159.507 328.892 161.638 329.252 162.356 329.078L162.607 328.596C163.513 326.917 163.164 325.48 161.931 324.844C161.371 324.54 160.891 324.625 160.51 324.797C160.092 324.99 159.613 325.411 159.032 325.987C158.734 326.304 158.419 326.341 158.072 326.156C157.647 325.92 157.281 325.12 157.583 324.56C157.767 324.213 158.227 324.092 158.878 324.053C159.823 323.941 161.662 323.794 163.163 324.228C163.858 324.598 164.491 325.196 164.815 325.924C165.24 327.076 165.209 328.105 164.554 329.303L162.107 333.895C161.539 334.994 161.759 335.541 162.184 335.777C162.474 335.947 162.831 335.982 163.167 335.981L163.047 336.772L160.473 336.813ZM161.957 329.887C161.321 329.868 159.915 329.765 159.237 329.675C158.131 329.591 157.32 329.77 156.87 330.656C156.199 331.91 156.825 332.994 157.597 333.415C158.214 333.734 159.284 333.838 160.017 333.608C160.564 332.473 161.353 331.006 161.957 329.887Z" fill="#171635"/>
<path d="M173.543 342.126C173.042 342.174 172.592 342.145 172.343 342.047C170.738 341.433 170.266 340.115 171.077 338.105L173.939 330.817L172.199 330.135L172.198 329.799L173.141 329.351L174.306 329.786L175.112 327.683C175.782 327.344 176.788 327.004 177.422 326.686L177.77 326.871C177.31 327.907 176.707 329.363 176.238 330.549L179.107 331.687C179.238 331.997 178.936 332.557 178.549 332.636L175.871 331.58L173.366 337.988C172.576 340.034 173.251 340.704 173.883 340.966C174.494 341.191 175.13 341.209 175.574 341.145L175.526 341.896L173.543 342.126Z" fill="#171635"/>
<path d="M194.037 347.547C192.76 347.418 191.246 347.377 189.83 347.424C189.936 347.025 190.159 346.077 190.341 345.394C188.655 346.223 187.288 346.771 185.865 346.388C184.121 345.95 182.894 344.491 183.618 341.664L184.879 336.6C185.224 335.197 185.062 335.001 184.446 334.683L183.736 334.37L183.919 333.687C185.052 333.9 186.836 334.074 187.756 334.169C187.45 334.972 187.172 336.24 186.716 337.949L185.83 341.495C185.242 343.81 186.27 344.758 187.445 345.043C188.413 345.303 189.466 345.128 190.549 344.504L192.083 338.415C192.428 337.012 192.168 336.728 191.308 336.405L190.505 336.098L190.688 335.415C192.369 335.745 194.267 335.95 194.903 335.968L192.725 344.692C192.412 345.981 192.558 346.234 193.546 346.53L194.286 346.729L194.037 347.547Z" fill="#171635"/>
<path d="M206.819 349.935L200.69 349.234L200.795 348.499C202.496 348.529 202.676 348.424 202.869 346.675L203.502 341.107C203.694 339.358 203.596 339.271 202.079 338.894L202.169 338.216C203.492 338.174 204.731 337.989 206.068 337.554C205.953 338.439 205.856 339.603 205.742 340.488C206.82 339.191 208.121 337.862 209.455 338.007C210.433 338.117 210.922 338.798 210.869 339.455C210.794 340.076 210.321 340.59 209.796 340.846C209.486 340.976 209.315 340.93 209.097 340.719C208.754 340.291 208.473 339.971 207.966 339.927C207.403 339.867 206.326 340.584 205.583 341.88L205.009 346.884C204.817 348.634 204.921 348.814 206.959 349.179L206.819 349.935Z" fill="#171635"/>
<path d="M224.527 350.792C224.135 350.778 223.544 350.589 223.285 350.305C222.947 349.97 222.774 349.588 222.596 349.113C221.541 349.867 220.238 350.86 219.38 350.874C217.478 350.912 216.095 349.35 216.045 347.596C216.002 346.272 216.752 345.406 218.233 344.888C219.858 344.287 221.849 343.571 222.436 343.088L222.423 342.565C222.382 340.662 221.42 339.579 220.02 339.569C219.405 339.587 219.05 339.888 218.752 340.205C218.438 340.578 218.307 341.184 218.037 341.966C217.895 342.386 217.663 342.568 217.255 342.611C216.733 342.623 216.048 342.103 216.045 341.431C216.022 341.058 216.392 340.7 216.912 340.351C217.68 339.764 219.225 338.775 220.753 338.423C221.554 338.394 222.408 338.624 223.036 339.128C223.981 339.932 224.445 340.82 224.437 342.221L224.51 347.43C224.511 348.682 224.999 349.026 225.485 349.035C225.821 349.034 226.166 348.882 226.455 348.716L226.743 349.465L224.527 350.792ZM222.493 344.018C221.894 344.316 220.641 344.894 220.023 345.155C219.007 345.645 218.384 346.15 218.425 347.137C218.438 348.575 219.521 349.202 220.379 349.189C221.087 349.165 222.052 348.753 222.561 348.218C222.538 346.93 222.515 345.306 222.493 344.018Z" fill="#171635"/>
<path d="M232.856 349.885L232.754 349.125C234.447 348.726 234.643 348.565 234.406 346.823L232.775 334.083C232.565 332.47 232.425 332.311 230.688 332.302L230.607 331.578C232.006 331.252 233.61 330.615 234.424 330.193C234.575 331.454 234.727 332.716 234.914 333.956L236.534 346.509C236.77 348.252 236.947 348.391 238.678 348.307L238.78 349.066L232.856 349.885Z" fill="#171635"/>
<path d="M270.165 328.876C268.5 329.741 268.348 330.31 267.994 331.863C267.731 333.075 267.433 334.307 267.033 336.031C268.489 336.636 272.012 338.407 273.227 339.344L273.171 339.665C271.757 340.048 270.114 340.033 269.709 339.833C269.284 339.597 267.637 338.91 266.503 338.361C265.63 341.514 264.299 342.957 262.493 343.662C259.264 344.9 256.589 343.265 255.745 341.055C254.875 338.715 255.835 337.294 257.626 334.815C256.041 334.236 254.833 333.392 254.283 332.024C253.455 329.756 254.652 327.331 256.895 326.469C258.974 325.654 261.17 326.458 261.966 328.503C262.328 329.547 262.141 330.473 261.752 331.132C261.414 331.712 260.844 332.475 260.151 333.357C261.238 333.741 263.961 334.625 266.168 335.615C266.379 334.482 266.56 333.462 266.631 332.169C266.681 330.839 266.328 330.561 264.419 331.085L264.151 330.373L269.877 328.127L270.165 328.876ZM262.452 341.759C264.186 341.095 264.951 340.172 265.601 337.966C263.751 337.011 261.427 336.233 258.548 335.246C257.224 337.118 257.132 338.375 257.64 339.672C258.546 341.991 260.828 342.36 262.452 341.759ZM256.994 327.472C255.735 327.958 255.364 329.232 255.92 330.693C256.407 331.954 257.355 332.514 259.333 333.106C260.359 331.551 260.632 330.526 260.145 329.265C259.539 327.881 258.381 326.96 256.994 327.472Z" fill="#171635"/>
<path d="M295.555 305.362C294.299 306.52 293.997 307.08 294.695 308.122C295.185 308.803 295.82 309.737 297.324 311.759L303.782 320.363L302.979 320.971L285.41 316.615L289.433 322C290.874 323.913 291.659 324.857 292.179 325.424C293.027 326.476 293.807 326.411 295.461 325.36L295.908 325.968L290.693 329.847L290.245 329.238C291.485 328.137 291.76 327.448 291.057 326.313C290.619 325.554 289.906 324.569 288.443 322.619L284.358 317.125C283.91 316.517 283.594 316.218 282.853 316.019C282.056 315.805 281.489 315.988 280.355 316.691L279.908 316.082L283.141 313.685L300.316 317.691L296.377 312.451C294.893 310.465 294.129 309.557 293.588 308.954C292.803 308.011 292.08 308.091 290.267 309.282L289.819 308.674L295.122 304.696L295.555 305.362Z" fill="#171635"/>
<path d="M319.317 303.538C318.578 304.591 317.856 305.923 317.185 307.177C316.869 306.878 316.157 306.229 315.664 305.791C315.555 307.685 315.381 309.134 314.363 310.203C313.156 311.527 311.256 311.901 309.137 309.897L305.299 306.332C304.25 305.348 303.991 305.401 303.399 305.791L302.791 306.238L302.277 305.764C303.027 304.898 304.038 303.399 304.551 302.621C305.112 303.26 306.063 304.157 307.387 305.367L310.077 307.861C311.817 309.458 313.153 309.023 313.939 308.136C314.623 307.404 314.954 306.394 314.952 305.142L310.382 300.892C309.333 299.908 308.967 300.023 308.236 300.59L307.562 301.172L307.048 300.698C308.163 299.38 309.224 297.803 309.547 297.28L316.117 303.41C317.088 304.343 317.403 304.305 318.144 303.589L318.653 303.054L319.317 303.538Z" fill="#171635"/>
<path d="M326.887 294.249C326.807 294.777 326.644 295.16 326.49 295.393C325.474 296.799 324.1 296.918 322.362 295.657L315.981 291.103L314.914 292.587L314.608 292.474L314.396 291.441L315.12 290.445L313.304 289.132C313.166 288.393 313.047 287.354 312.93 286.651L313.192 286.355C314.074 287.05 315.324 287.966 316.398 288.743L318.189 286.264C318.54 286.206 318.977 286.628 318.984 287.058L317.316 289.417L322.898 293.421C324.672 294.661 325.486 294.239 325.918 293.652C326.297 293.144 326.444 292.481 326.493 292.067L327.198 292.287L326.887 294.249Z" fill="#171635"/>
<path d="M334.39 282.167L331.373 287.522L330.715 287.131C331.404 285.577 331.372 285.354 329.828 284.512L324.976 281.773C323.411 280.895 323.303 280.957 322.389 282.207L321.808 281.868C322.272 280.588 322.556 279.413 322.714 278.021C323.486 278.442 324.512 279.054 325.285 279.475C324.523 277.989 323.8 276.238 324.44 275.097C324.948 274.226 325.758 274.048 326.339 274.387C326.899 274.69 327.181 275.346 327.179 275.925C327.181 276.261 327.078 276.417 326.784 276.49C326.252 276.653 325.85 276.789 325.614 277.214C325.327 277.717 325.572 278.972 326.467 280.19L330.873 282.656C332.438 283.535 332.603 283.488 333.768 281.756L334.39 282.167Z" fill="#171635"/>
<path d="M325.94 265.701C325.665 266.39 324.751 266.724 324.063 266.448C323.275 266.083 322.981 265.241 323.293 264.532C323.605 263.822 324.389 263.514 325.176 263.878C325.865 264.155 326.231 264.955 325.94 265.701ZM338.362 274.137L337.652 273.824C338.171 272.224 338.118 271.966 336.45 271.243L331.389 269.058C329.856 268.402 329.727 268.428 328.84 269.807L328.265 269.561C328.573 268.179 328.794 266.895 328.793 265.644C329.829 266.105 330.844 266.531 331.88 266.992L337.288 269.362C338.956 270.085 339.173 269.96 340.012 268.415L340.701 268.692L338.362 274.137Z" fill="#171635"/>
<path d="M344.616 257.47C344.722 257.987 344.694 258.437 344.597 258.686C344.063 260.343 342.789 260.886 340.77 260.221L333.325 257.823L332.761 259.594L332.425 259.596L331.882 258.656L332.259 257.476L330.126 256.78C329.75 256.13 329.337 255.164 328.962 254.514L329.146 254.166C330.197 254.571 331.683 255.062 332.92 255.456L333.825 252.525C334.171 252.373 334.71 252.64 334.825 253.007L333.966 255.767L340.515 257.863C342.591 258.543 343.238 257.832 343.442 257.185C343.63 256.595 343.606 255.886 343.526 255.498L344.291 255.49L344.616 257.47Z" fill="#171635"/>
<path d="M332.875 243.971C332.713 244.691 331.926 245.242 331.185 245.043C330.352 244.85 329.893 244.055 330.034 243.299C330.196 242.579 330.933 242.106 331.745 242.263C332.485 242.462 333.016 243.215 332.875 243.971ZM346.726 249.8L346.006 249.637C346.184 247.945 346.115 247.744 344.356 247.362L338.965 246.188C337.319 245.837 337.211 245.9 336.629 247.391L335.988 247.28C336.032 245.857 335.953 244.554 335.73 243.334C336.827 243.568 337.924 243.802 339.021 244.036L344.79 245.281C346.549 245.663 346.745 245.501 347.279 243.844L347.998 244.007L346.726 249.8Z" fill="#171635"/>
<path d="M337.622 230.195C337.905 226.853 340.7 224.613 344.133 224.895C348.451 225.292 350.226 228.699 349.991 231.292C349.674 234.991 346.49 236.974 343.486 236.685C339.153 236.345 337.403 232.731 337.622 230.195ZM338.488 230.611C338.326 232.246 339.786 233.86 342.884 234.143C346.281 234.445 348.874 233.189 349.038 230.975C349.18 229.303 348.082 227.818 344.441 227.511C341.38 227.207 338.719 228.262 338.488 230.611Z" fill="#171635"/>
<path d="M348.92 205.035C349.185 206.327 349.605 207.722 350.098 209.075C349.669 209.082 348.703 209.158 348.052 209.196C349.331 210.578 350.277 211.717 350.347 213.171C350.475 214.975 349.434 216.588 346.551 216.759L341.342 217.069C339.891 217.136 339.737 217.369 339.647 218.047L339.563 218.818L338.855 218.842C338.731 217.709 338.344 215.957 338.138 215.017C339.017 215.039 340.283 214.983 342.05 214.878L345.677 214.663C348.038 214.504 348.616 213.255 348.542 212.045C348.501 211.057 347.995 210.097 347.101 209.216L340.87 209.586C339.418 209.653 339.234 210.001 339.197 210.937L339.119 211.801L338.411 211.824C338.232 210.097 337.804 208.273 337.671 207.627L346.635 207.076C347.974 206.978 348.148 206.781 348.143 205.772L348.134 205.006L348.92 205.035Z" fill="#171635"/>
<path d="M338.651 192.99C337.224 193.766 336.308 194.68 336.647 196.267C336.833 197.171 337.616 197.779 338.685 197.547C339.811 197.331 340.168 196.45 340.594 194.855C341.227 192.37 341.784 191.085 343.519 190.758C345.935 190.278 347.604 192.253 348.029 194.32C348.299 195.705 348.114 196.968 347.911 197.616C347.163 197.903 345.775 198.415 344.934 198.708L344.646 197.959C346.239 197.136 347.437 195.962 347.045 194.117C346.854 193.119 346.008 192.404 344.883 192.62C343.721 192.857 343.229 193.671 342.818 195.209C342.307 197.238 341.736 198.916 339.872 199.27C337.936 199.665 336.157 198.332 335.668 195.82C335.451 194.694 335.544 193.772 335.51 193.214C336.114 193.01 337.744 192.502 338.363 192.241L338.651 192.99Z" fill="#171635"/>
<path d="M360.64 160.011C352.716 160.78 344.701 156.977 340.445 149.607C336.211 142.273 336.91 133.487 341.503 127.03C343.016 124.903 344.955 123.013 347.31 121.509C345.546 119.204 343.73 116.976 341.843 114.79C292.238 56.8632 206.983 40.5703 138.626 80.0364C70.3051 119.482 41.8029 201.404 67.089 273.275C68.0385 276.002 69.0811 278.724 70.2166 281.441C72.5973 280.066 75.1771 279.203 77.77 278.862C85.9717 277.74 94.3798 281.557 98.7602 289.144C103.162 296.767 102.212 306.035 97.0818 312.561C95.4694 314.6 93.5041 316.361 91.1233 317.736L91.0512 317.778C92.836 320.119 94.672 322.383 96.5234 324.59C146.063 382.988 231.671 399.559 300.245 359.968C368.854 320.356 397.323 237.875 371.425 165.779C370.44 163.072 369.418 160.386 368.304 157.706C365.824 158.993 363.239 159.763 360.64 160.011Z" stroke="#171635" stroke-width="4" stroke-miterlimit="10"/>
<path d="M363.836 168.144C388.646 236.774 361.584 315.36 296.257 353.076C231.11 390.689 149.776 375.023 102.712 319.579C111.316 310.324 113.332 296.154 106.678 284.629C100.044 273.139 86.894 267.773 74.5917 270.541C50.6418 202.234 77.7697 124.429 142.664 86.962C207.739 49.3911 288.938 64.9906 336.048 120.263C328.544 129.509 327.072 142.787 333.393 153.735C339.698 164.739 352.026 170.098 363.836 168.144Z" stroke="#171635" stroke-width="2" stroke-miterlimit="10"/>
<path d="M265.025 298.563C308.495 273.465 323.357 217.824 298.219 174.285C273.082 130.746 217.464 115.796 173.994 140.894C130.524 165.991 115.662 221.632 140.799 265.172C165.937 308.711 221.554 323.661 265.025 298.563Z" stroke="#171635" stroke-width="2" stroke-miterlimit="10"/>
</svg>
