<svg width="70" height="70" viewBox="0 0 70 70" fill="none" xmlns="http://www.w3.org/2000/svg">
<path d="M37.7355 39.5226C39.7089 40.0746 41.7297 38.9884 42.2572 37.095C42.5298 36.1156 42.5179 35.0769 42.2275 34.0856C42.0379 33.4327 41.9431 32.762 41.9431 32.0912C41.9431 31.8123 41.9609 31.5392 41.9964 31.2603C42.1149 30.3462 41.5164 29.4737 40.5919 29.2125C39.6674 28.9573 38.7074 29.3906 38.334 30.2334C37.9488 31.1 37.3917 31.8835 36.6865 32.5305C35.928 33.2309 35.3828 34.1153 35.1102 35.0947C34.5886 36.9881 35.762 38.9706 37.7355 39.5226Z" fill="#D4E496"/>
<path d="M36.503 35.4135C36.1771 36.5828 36.9001 37.8056 38.1149 38.1439C39.3298 38.4822 40.5802 37.8115 40.9002 36.6422C41.2262 35.4729 40.6158 33.8346 39.4009 33.4963C38.192 33.158 36.8289 34.2442 36.503 35.4135Z" fill="#B28966"/>
<path d="M40.2542 36.4597C40.5505 35.3972 40.0764 33.9489 39.0748 33.4385C39.1874 33.4444 39.3 33.4682 39.4126 33.4978C40.6275 33.8362 41.232 35.4744 40.912 36.6437C40.586 37.813 39.3415 38.4837 38.1267 38.1454C38.02 38.1157 37.9074 38.0742 37.8066 38.0326C38.8971 38.1751 39.9578 37.5222 40.2542 36.4597Z" fill="#8B6847"/>
<path d="M36.5743 32.417C37.2617 31.7819 37.8128 31.0162 38.1862 30.1674C38.3818 29.7282 38.7373 29.3661 39.1877 29.1643C39.6322 28.9625 40.1478 28.9209 40.6278 29.0515L40.6396 29.0575C41.1256 29.194 41.5464 29.4967 41.8249 29.9003C42.1034 30.3099 42.2279 30.8025 42.1627 31.2774C42.1271 31.5445 42.1093 31.8175 42.1093 32.0905C42.1034 32.7494 42.1982 33.4023 42.3819 34.0374C42.6782 35.0524 42.6901 36.1208 42.4116 37.1299C41.8664 39.0946 39.7626 40.2342 37.7121 39.6762C37.6943 39.6703 37.6825 39.6703 37.6647 39.6644C37.6587 39.6644 37.6469 39.6584 37.641 39.6584C37.5106 39.6228 37.3861 39.5753 37.2558 39.5279C35.4601 38.8037 34.4408 36.8806 34.9505 35.0524C35.2349 34.0434 35.7979 33.1352 36.5743 32.417ZM37.7773 39.3676C38.0795 39.4507 38.3877 39.4982 38.6958 39.5041C40.2485 39.5338 41.6767 38.5603 42.0975 37.0527C42.3582 36.103 42.3523 35.094 42.0738 34.1324C41.8782 33.4676 41.7834 32.7791 41.7834 32.0905C41.7834 31.8056 41.8012 31.5207 41.8367 31.2418C41.9316 30.4939 41.4989 29.7697 40.7996 29.4611C40.7226 29.4255 40.6396 29.3958 40.5567 29.372C39.7211 29.1406 38.8381 29.5382 38.5003 30.3039C38.1091 31.1883 37.5343 31.9896 36.8113 32.6544C36.0764 33.3311 35.5431 34.1917 35.2823 35.1414C34.7786 36.9459 35.8987 38.8393 37.7773 39.3676Z" fill="#37B678"/>
<path d="M40.6804 37.2005C40.6981 37.153 40.6804 37.0936 40.6329 37.0699L40.4314 36.963C40.384 36.9393 40.3248 36.9512 40.2951 36.9987C40.1885 37.153 39.9455 37.4913 39.7025 37.6931C39.4773 37.8771 39.0329 38.0196 38.5706 38.0374C37.658 38.0789 36.9942 38.3104 36.6565 38.9574C36.1468 39.919 36.7335 41.2307 37.9661 41.8837C39.1988 42.5366 40.6092 42.2813 41.1189 41.3198C41.4626 40.6669 41.2019 39.9308 40.787 39.2008C40.55 38.7853 40.4137 38.3816 40.4433 38.0849C40.4729 37.7762 40.6152 37.3726 40.6804 37.2005Z" fill="#E289B0"/>
<path fill-rule="evenodd" clip-rule="evenodd" d="M36.5312 40.4045C36.7209 40.7191 36.9876 41.0099 37.3135 41.2592C38.4276 42.0961 39.8618 42.0724 40.5196 41.2058C40.9641 40.6182 40.8278 39.8525 40.5374 39.069C40.407 38.7128 40.3359 38.3745 40.3537 38.1074C40.3477 38.3983 40.484 38.7722 40.6974 39.1521C41.1122 39.8822 41.373 40.6182 41.0292 41.2711C40.5196 42.2327 39.1091 42.4879 37.8765 41.835C37.2246 41.4907 36.7564 40.9624 36.5312 40.4045Z" fill="#C7638F"/>
<path d="M39.0271 40.0909C38.5471 41.0049 38.1144 41.7232 38.0611 41.6935C38.0078 41.6638 38.3574 40.904 38.8375 39.99C39.3175 39.0759 39.7501 38.3577 39.8034 38.3873C39.8568 38.417 39.5071 39.1827 39.0271 40.0909ZM40.5383 40.8328C40.1234 41.6163 39.0034 41.8419 38.956 41.8122C38.9026 41.7825 39.9397 41.5154 40.3546 40.7319C40.7694 39.9484 40.4079 38.9394 40.4553 38.9631C40.5086 38.9987 40.9531 40.0493 40.5383 40.8328ZM37.19 39.064C36.7751 39.8475 37.2196 40.904 37.2729 40.9278C37.3263 40.9515 36.9588 39.9484 37.3737 39.159C37.7885 38.3755 38.8256 38.1084 38.7723 38.0787C38.7189 38.049 37.6048 38.2746 37.19 39.064Z" fill="#C54C82"/>
<path d="M39.7443 40.5296C39.2761 41.42 38.4583 41.9008 38.4346 41.8889C38.4109 41.877 39.0094 41.2716 39.4776 40.3872C39.9458 39.4968 40.1058 38.6659 40.1295 38.6777C40.1532 38.6896 40.2125 39.6452 39.7443 40.5296ZM37.9783 39.5978C37.5101 40.4881 37.5694 41.4378 37.5931 41.4497C37.6168 41.4615 37.7768 40.6246 38.245 39.7402C38.7131 38.8499 39.3117 38.2504 39.288 38.2385C39.2702 38.2266 38.4464 38.7074 37.9783 39.5978Z" fill="#C54C82"/>
<path fill-rule="evenodd" clip-rule="evenodd" d="M37.1659 38.6787C37.1718 38.7855 37.1126 38.9458 37.0414 39.0289C36.9881 39.0942 36.9407 39.1713 36.8933 39.2544C36.8281 39.3791 36.751 39.4266 36.7214 39.3672C36.6859 39.3079 36.7155 39.1535 36.7748 39.0289C36.8518 38.8746 36.9407 38.744 37.0296 38.6372C37.1007 38.5541 37.16 38.5718 37.1659 38.6787Z" fill="#FFCFC9"/>
<path d="M30.9197 36.1491L31.1567 37.2709C31.1923 37.4253 31.299 37.538 31.4234 37.538H32.899C33.0175 37.538 33.1183 37.4431 33.1598 37.3065L34.1139 34.036H33.4679L32.8635 35.6921L32.6146 32.9795H31.8619L31.5893 35.6149L31.1093 33.4187L30.4219 33.579L30.9197 36.1491Z" fill="#9AD052"/>
<path d="M35.3171 31.0331C35.246 30.1249 34.4044 29.4067 33.3733 29.4067C33.2073 29.4067 33.0473 29.4245 32.8933 29.4601C32.6088 28.9081 32.0221 28.5342 31.3406 28.5342C30.3805 28.5342 29.6042 29.288 29.6042 30.214C29.6042 30.2614 29.6042 30.303 29.6101 30.3505C28.7805 30.5404 28.1582 31.2289 28.1582 32.048C28.1582 33.0155 29.0175 33.799 30.0724 33.799C30.4754 33.799 30.8487 33.6863 31.1569 33.4904C31.4354 33.7456 31.791 33.8999 32.1821 33.8999C32.431 33.8999 32.6621 33.8406 32.8755 33.7278C33.2192 34.0958 33.717 34.3214 34.2741 34.3214C35.3111 34.3214 36.1467 33.5201 36.1467 32.5288C36.1467 31.9056 35.8149 31.3536 35.3171 31.0331Z" fill="#5FA43D"/>
<path d="M30.0603 33.5426C29.5921 33.5426 29.2543 33.3111 29.0351 33.0856C28.7328 32.771 28.6025 32.4089 28.5965 32.3911C28.5669 32.308 28.6084 32.219 28.6854 32.1893C28.7625 32.1596 28.8454 32.2012 28.875 32.2783C28.8928 32.3318 29.3254 33.5129 30.4751 33.1568C30.5522 33.1331 30.6351 33.1805 30.6588 33.2636C30.6825 33.3467 30.6351 33.4298 30.5581 33.4536C30.3744 33.5189 30.2084 33.5426 30.0603 33.5426Z" fill="#477D27"/>
<path d="M32.1408 33.6446C31.7259 33.6446 31.4711 33.3597 31.3881 33.1817C31.3526 33.1045 31.3822 33.0095 31.4533 32.9739C31.5244 32.9383 31.6133 32.968 31.6489 33.0452C31.6548 33.063 31.8444 33.425 32.3008 33.3182C32.3778 33.3004 32.4548 33.3538 32.4726 33.4369C32.4904 33.52 32.4371 33.6031 32.36 33.6209C32.283 33.6387 32.2119 33.6446 32.1408 33.6446Z" fill="#477D27"/>
<path d="M34.4286 33.966C34.3397 33.966 34.2863 33.9601 34.2804 33.9601C34.1974 33.9482 34.1441 33.871 34.1559 33.7879C34.1678 33.7048 34.2389 33.6455 34.3219 33.6573C34.3693 33.6633 35.4123 33.7939 35.7323 32.5296C35.756 32.4465 35.8331 32.399 35.9101 32.4168C35.9872 32.4405 36.0346 32.5237 36.0168 32.6068C35.8153 33.4021 35.359 33.7286 35.0093 33.8651C34.7723 33.9482 34.5589 33.966 34.4286 33.966Z" fill="#477D27"/>
<path d="M30.1555 29.9056C30.1436 29.9056 30.1318 29.9056 30.1199 29.8997C30.0429 29.8819 29.9896 29.7988 30.0073 29.7157C30.0073 29.7038 30.0666 29.4664 30.2444 29.2171C30.4103 28.9916 30.7244 28.7126 31.2519 28.6889C31.3289 28.6829 31.4 28.7482 31.4059 28.8372C31.4119 28.9203 31.3467 28.9975 31.2637 28.9975C30.4637 29.0331 30.2918 29.7751 30.2918 29.7869C30.2859 29.8582 30.2266 29.9056 30.1555 29.9056Z" fill="#C8FFBF"/>
<path d="M29.989 30.5053C29.906 30.5053 29.8408 30.4341 29.8408 30.351C29.8408 30.3154 29.8408 30.1848 29.8705 30.1017C29.8942 30.0186 29.9771 29.977 30.0542 30.0008C30.1312 30.0304 30.1727 30.1135 30.149 30.1966C30.143 30.2204 30.1371 30.2975 30.1371 30.345C30.1371 30.4341 30.0719 30.5053 29.989 30.5053Z" fill="#BFFFCB"/>
<path d="M26.9737 34.0718C26.9322 34.06 25.9306 33.7929 25.1543 33.045L25.4506 32.7363C26.144 33.4071 27.0744 33.6504 27.0803 33.6563L26.9737 34.0718Z" fill="#7ABD4C"/>
<path d="M26.9384 33.9825C26.9325 33.9706 26.0969 32.825 25.2139 32.3264L25.4213 31.9525C26.3873 32.4926 27.2525 33.6797 27.288 33.7332L26.9384 33.9825ZM27.3651 33.7925C27.3236 33.7332 26.2806 32.3502 25.9902 31.1156L26.405 31.0146C26.6776 32.1602 27.691 33.5195 27.7088 33.5313L27.3651 33.7925Z" fill="#4FA812"/>
<path d="M27.2462 33.9069C27.2403 33.895 26.4403 32.8682 25.8477 32.2568L26.1558 31.9541C26.7721 32.5773 27.5544 33.5983 27.5899 33.6398L27.2462 33.9069Z" fill="#7ABD4C"/>
<path d="M27.0502 33.4073C27.0502 33.4073 25.5745 34.3748 27.1746 36.2801C27.1746 36.2801 32.1823 42.5125 33.3912 42.4056C33.3912 42.4056 34.369 42.7084 32.5793 39.4378C32.5793 39.4378 30.9496 36.381 29.5747 34.3985C29.5866 34.3985 28.4013 32.5823 27.0502 33.4073Z" fill="#EB5900"/>
<path d="M29.5281 35.0381C29.5341 35.0084 29.5281 34.9728 29.5163 34.9431C28.7992 33.3167 27.9933 33.572 27.9636 33.5838C27.8984 33.6016 27.8629 33.6907 27.8688 33.7678C27.8807 33.8509 27.9399 33.8984 28.0051 33.8806C28.0347 33.8747 28.6866 33.6907 29.3148 35.1093C29.3444 35.1805 29.4155 35.2043 29.4689 35.1568C29.5044 35.1271 29.5222 35.0796 29.5281 35.0381Z" fill="#F48435"/>
<path d="M36.2663 35.0635C35.49 35.0635 35.49 35.3246 34.7136 35.3246C33.9373 35.3246 33.9373 35.0635 33.161 35.0635C32.1298 35.0635 30.8379 35.5799 30.8379 37.3962C30.8379 40.2512 32.3906 42.5839 33.4217 42.5839C34.1981 42.5839 34.1981 42.3227 34.7136 42.3227C35.2292 42.3227 35.2292 42.5839 36.0056 42.5839C37.0367 42.5839 38.5894 40.2512 38.5894 37.3962C38.5894 35.5799 37.2975 35.0635 36.2663 35.0635Z" fill="#DD2E44"/>
<path d="M34.4583 35.0631C34.4583 35.0631 33.8775 34.0244 32.9115 34.0244C32.1352 34.0244 31.75 34.5408 31.75 34.5408C31.75 34.5408 32.5263 35.3184 33.1071 35.3184C33.6819 35.3184 34.4583 35.0631 34.4583 35.0631Z" fill="#77B255"/>
<path d="M34.6479 35.8405C34.7546 35.8405 34.8435 35.7218 34.8435 35.5793C34.8435 34.689 34.6123 33.8639 34.2034 33.3179C34.1264 33.217 34.0079 33.217 33.9308 33.3179C33.8538 33.4188 33.8538 33.585 33.9308 33.6859C34.2627 34.1311 34.4523 34.8196 34.4523 35.5793C34.4582 35.7218 34.5412 35.8405 34.6479 35.8405Z" fill="#662113"/>
<path d="M33.9249 35.7276C33.9072 35.7039 33.8775 35.6801 33.8479 35.6742C32.2182 35.045 31.8389 35.787 31.8271 35.8167C31.7974 35.876 31.833 35.9651 31.8922 36.0125C31.9574 36.066 32.0345 36.0541 32.0641 35.9947C32.076 35.971 32.4019 35.3834 33.8301 35.9354C33.9012 35.9651 33.9664 35.9294 33.9723 35.8582C33.9723 35.8107 33.9546 35.7632 33.9249 35.7276Z" fill="#EF6A7A"/>
<path d="M17.9257 27.3998C17.7538 27.3939 17.5997 27.3939 17.4634 27.4295C17.2619 27.471 17.1968 27.5363 17.096 27.8153L16.9123 28.3435C16.859 28.4979 16.8649 28.5216 17.019 28.575L18.2042 28.9965L18.4294 28.3673C18.5598 28.0052 18.5005 27.9518 18.1687 27.75L18.2279 27.5897L19.3243 27.9815L19.265 28.1477C18.8798 28.0824 18.779 28.1002 18.6546 28.4504L18.4294 29.0796L19.3361 29.4001C19.7924 29.5603 19.8339 29.5247 20.0413 29.0618L20.1954 29.1152L19.668 30.5991L19.5139 30.5457C19.6265 30.1183 19.6087 30.0589 19.1583 29.8987L17.1256 29.1805C16.6693 29.0202 16.6278 29.0618 16.4441 29.4594L16.29 29.406L16.8767 27.7381C17.0427 27.2751 17.1019 27.0793 17.1316 26.9902C17.3034 27.0437 17.6886 27.1564 17.9553 27.2217L17.9257 27.3998Z" fill="#171635"/>
<path d="M22.5005 24.8953C22.4649 24.9487 22.4294 25.0021 22.3879 25.0556C22.1271 25.4295 21.9197 25.5542 21.5286 25.5779C21.1789 25.6016 20.7819 25.5838 20.4441 25.5838C20.2426 25.5838 20.1774 25.6254 20.0411 25.8509L19.9463 25.9993L20.6752 26.4445C21.0723 26.6879 21.1256 26.6522 21.3923 26.302L21.5345 26.3851L20.7463 27.6732L20.61 27.5901C20.8056 27.1805 20.8056 27.133 20.4085 26.8897L18.5477 25.7441C18.1507 25.5007 18.1032 25.5364 17.8366 25.8806L17.6943 25.7975L18.447 24.5688C18.6662 24.2127 18.8499 24.005 19.0811 23.8981C19.324 23.7853 19.6085 23.7853 19.8989 23.9634C20.3078 24.2127 20.3908 24.6282 20.3315 25.0556C20.5271 25.0615 20.9597 25.0556 21.2619 25.0496C21.6175 25.0318 21.7953 25.014 21.9731 24.9784C22.1805 24.9369 22.2931 24.8716 22.3938 24.7766L22.5005 24.8953ZM19.9048 25.7025C20.047 25.4651 20.1063 25.2871 20.0826 25.1149C20.053 24.8538 19.9167 24.6638 19.6618 24.5095C19.1581 24.2008 18.7788 24.4145 18.5655 24.7588C18.4825 24.8953 18.4529 24.9843 18.4647 25.0318C18.4707 25.0912 18.5122 25.1327 18.6307 25.204L19.7744 25.9103L19.9048 25.7025Z" fill="#171635"/>
<path d="M23.9827 22.0707C24.0657 22.1953 24.3738 22.7058 24.4568 22.8601L22.5782 24.807L22.4597 24.6942C22.7856 24.2965 22.7797 24.2431 22.4538 23.9226L20.9011 22.4149C20.5514 22.0766 20.4863 22.1004 20.1781 22.3675L20.0596 22.2547L21.2389 21.032C21.6063 20.6521 21.7485 20.4978 21.79 20.4443C21.8848 20.5334 22.2049 20.8064 22.436 21.0023L22.3352 21.1447C22.1634 21.0498 22.0271 21.0023 21.8967 20.9726C21.713 20.9192 21.6063 20.9785 21.3811 21.21L21.0374 21.5662C20.9129 21.6908 20.9189 21.7146 21.0374 21.8273L21.9026 22.6702L22.3175 22.2428C22.5901 21.9579 22.5545 21.8807 22.3293 21.5662L22.4538 21.4356L23.2834 22.2369L23.159 22.3675C22.8212 22.1419 22.7501 22.136 22.4834 22.409L22.0745 22.8364L22.8449 23.5843C23.1234 23.8514 23.2242 23.8098 23.4316 23.608L23.7694 23.2578C24.0005 23.0204 24.0064 22.9432 23.9886 22.7533C23.9768 22.5871 23.8998 22.3497 23.8286 22.1775L23.9827 22.0707Z" fill="#171635"/>
<path d="M25.043 19.0623C24.7586 18.8189 24.4208 18.6052 24 18.8961C23.6622 19.1276 23.7037 19.4659 23.8696 19.7033C24.077 20.006 24.3793 20.0298 24.8949 19.9645C25.6179 19.8695 26.0149 19.9111 26.3112 20.3444C26.649 20.8311 26.4831 21.4899 25.8905 21.8995C25.6178 22.0894 25.3215 22.1785 25.0845 22.2378C24.966 22.1369 24.6756 21.8401 24.4741 21.6205L24.5926 21.484C24.8889 21.7214 25.3867 21.9885 25.849 21.668C26.1631 21.4484 26.2105 21.0982 26.009 20.8014C25.7779 20.469 25.4993 20.4512 24.9541 20.5046C24.3022 20.5758 23.8756 20.5462 23.5792 20.1129C23.2889 19.6974 23.3718 19.0801 23.9822 18.6527C24.243 18.4687 24.5393 18.3678 24.6459 18.3203C24.7763 18.4746 24.9304 18.6468 25.1675 18.9198L25.043 19.0623Z" fill="#171635"/>
<path d="M29.583 16.2003C29.18 16.408 29.1503 16.4496 29.3222 16.8829L30.1341 18.9247C30.306 19.3521 30.3593 19.3521 30.786 19.2334L30.8452 19.3818L29.4407 19.9397L29.3815 19.7854C29.7845 19.5658 29.8141 19.542 29.6482 19.1087L29.2452 18.0937L27.5621 18.7645L27.9651 19.7795C28.131 20.2068 28.1844 20.2068 28.617 20.0881L28.6763 20.2424L27.2717 20.8004L27.2125 20.646C27.6036 20.4383 27.6451 20.4027 27.4732 19.9753L26.6613 17.9335C26.4895 17.5061 26.4361 17.4943 26.0095 17.6189L25.9502 17.4646L27.3547 16.9066L27.414 17.061C27.0228 17.2568 26.9873 17.3162 27.1591 17.7376L27.4792 18.5389L29.1622 17.8682L28.8422 17.0669C28.6762 16.6395 28.6051 16.6277 28.1844 16.7523L28.1251 16.598L29.5296 16.04L29.583 16.2003Z" fill="#171635"/>
<path d="M37.7433 18.2835C37.6426 18.5447 37.4707 18.9305 37.3759 19.1026C37.2159 19.1264 36.7773 19.1917 36.3625 19.1561C35.0232 19.0492 34.4365 18.1055 34.5135 17.1617C34.6024 16.0339 35.521 15.3335 36.7596 15.4285C37.2337 15.4641 37.6129 15.6006 37.7848 15.6422C37.7907 15.8915 37.7967 16.2417 37.8204 16.5147L37.6367 16.5385C37.5596 16.1526 37.4352 15.9152 37.1626 15.7787C37.0262 15.7015 36.8129 15.6481 36.6114 15.6362C35.7284 15.565 35.2069 16.2001 35.1358 17.0964C35.0528 18.147 35.5388 18.8711 36.404 18.9424C36.9433 18.9839 37.2455 18.7524 37.5715 18.2182L37.7433 18.2835Z" fill="#171635"/>
<path d="M41.1144 16.4013C42.0152 16.7159 42.5723 17.6775 42.2108 18.7103C41.8256 19.8321 40.8181 20.2654 39.858 19.933C38.8506 19.5887 38.3824 18.5738 38.7261 17.5825C39.0461 16.6566 40.0003 16.0155 41.1144 16.4013ZM40.9425 16.5675C40.3677 16.3717 39.6921 16.6922 39.3602 17.6597C39.0284 18.6153 39.2773 19.5056 40.0062 19.7609C40.6107 19.9686 41.227 19.654 41.5766 18.6569C41.9559 17.5706 41.6122 16.7931 40.9425 16.5675Z" fill="#171635"/>
<path d="M44.7887 22.5574C44.7354 22.5218 44.6879 22.4862 44.6287 22.4387C44.2613 22.1656 44.1487 21.9579 44.1309 21.5602C44.1131 21.21 44.1427 20.8123 44.1546 20.474C44.1605 20.2722 44.119 20.2069 43.8998 20.0644L43.7516 19.9635L43.2834 20.6817C43.0286 21.0735 43.0642 21.1269 43.402 21.4059L43.3131 21.5424L42.0508 20.7174L42.1397 20.5808C42.5427 20.7886 42.5901 20.7886 42.8449 20.3968L44.042 18.5627C44.2968 18.1769 44.2613 18.1235 43.9235 17.8445L44.0124 17.708L45.2154 18.4915C45.565 18.7171 45.7665 18.9129 45.8673 19.1444C45.9739 19.3878 45.968 19.6786 45.7784 19.9576C45.5176 20.3553 45.1028 20.4324 44.6761 20.3612C44.6642 20.5571 44.6583 20.9904 44.6583 21.2931C44.6642 21.6492 44.682 21.8273 44.7057 22.0054C44.7413 22.2191 44.8065 22.3259 44.8954 22.4327L44.7887 22.5574ZM44.0598 19.9398C44.2909 20.0882 44.4687 20.1535 44.6405 20.1297C44.9013 20.1119 45.0909 19.9754 45.2569 19.7261C45.5769 19.2335 45.3754 18.8417 45.0376 18.6221C44.9072 18.5331 44.8183 18.5034 44.7709 18.5152C44.7116 18.5212 44.6642 18.5627 44.5931 18.6755L43.8583 19.8033L44.0598 19.9398Z" fill="#171635"/>
<path d="M50.0099 23.0793C49.7432 22.8479 49.6247 22.8063 49.4291 22.9666C49.2928 23.0853 49.121 23.2277 48.7476 23.572L47.1298 25.0737L46.9757 24.9075L47.4794 21.2393L46.4838 22.1593C46.1223 22.4977 45.9564 22.6698 45.8438 22.7885C45.6541 22.9844 45.6778 23.1446 45.9208 23.4592L45.8023 23.572L44.8896 22.5867L45.0082 22.4739C45.2571 22.6995 45.4052 22.741 45.6186 22.5808C45.7608 22.468 45.9445 22.3137 46.3119 21.9753L47.3312 21.0316C47.4498 20.9247 47.509 20.8535 47.5327 20.6932C47.5624 20.5211 47.5031 20.4143 47.3431 20.2065L47.4616 20.0938L48.0542 20.7348L47.6216 24.2605L48.5639 23.388C48.9372 23.0437 49.0973 22.8835 49.2099 22.7529C49.3758 22.5748 49.358 22.4264 49.0795 22.0881L49.198 21.9753L50.1225 22.9725L50.0099 23.0793Z" fill="#171635"/>
<path d="M49.856 27.8576C49.7138 27.8992 49.133 28.0535 48.9671 28.0832L47.6455 25.7149L47.7877 25.6377C48.0722 26.0651 48.1315 26.071 48.5285 25.8514L50.419 24.7948C50.8457 24.5574 50.8398 24.4921 50.6738 24.1182L50.816 24.041L51.6457 25.5308C51.9005 25.9938 52.0072 26.1719 52.0487 26.2313C51.9361 26.3025 51.5805 26.528 51.3316 26.6942L51.225 26.5577C51.3613 26.4212 51.4501 26.3025 51.5213 26.1897C51.622 26.0294 51.5983 25.9048 51.4442 25.6258L51.2012 25.1925C51.1123 25.0382 51.0946 25.0323 50.9524 25.1154L49.8975 25.703L50.1879 26.2253C50.3775 26.5696 50.4664 26.5577 50.8338 26.4331L50.9227 26.5874L49.9153 27.1513L49.8264 26.9969C50.1405 26.7358 50.1701 26.6705 49.9804 26.3381L49.6901 25.8217L48.7537 26.344C48.4159 26.534 48.4278 26.6467 48.5582 26.896L48.7952 27.3234C48.9552 27.6142 49.0263 27.6439 49.21 27.6795C49.37 27.7152 49.6189 27.7092 49.8086 27.6914L49.856 27.8576Z" fill="#171635"/>
<path d="M50.1636 31.8529C50.1458 31.7876 50.134 31.7282 50.1162 31.6629C50.0095 31.2178 50.0569 30.9803 50.2999 30.6717C50.5133 30.3927 50.7918 30.1078 51.017 29.8526C51.1533 29.7042 51.1592 29.6211 51.0881 29.3718L51.0348 29.1997L50.2169 29.4489C49.7725 29.5855 49.7606 29.6508 49.8436 30.0781L49.6895 30.1256L49.251 28.6833L49.405 28.6358C49.5828 29.0513 49.6184 29.0809 50.0629 28.9504L52.1548 28.3152C52.5993 28.1787 52.6052 28.1194 52.5222 27.692L52.6763 27.6445L53.0911 29.0216C53.2097 29.4193 53.2452 29.6982 53.1682 29.9416C53.0971 30.1968 52.9015 30.4105 52.5756 30.5114C52.1193 30.6479 51.7518 30.4402 51.4733 30.1078C51.337 30.2503 51.0525 30.5767 50.8629 30.8082C50.6377 31.0872 50.537 31.2296 50.4421 31.3839C50.3355 31.568 50.3118 31.6926 50.3177 31.8291L50.1636 31.8529ZM51.2896 29.3777C51.3725 29.6448 51.4614 29.8051 51.6096 29.9001C51.8229 30.0544 52.0541 30.0722 52.3385 29.9891C52.9015 29.817 52.9963 29.3896 52.8778 29.0038C52.8304 28.8554 52.783 28.7723 52.7415 28.7486C52.6941 28.7129 52.6348 28.7129 52.4985 28.7545L51.2126 29.1462L51.2896 29.3777Z" fill="#171635"/>
<path d="M20.2236 42.277C20.1051 42.0633 20.0399 42.004 19.8739 42.0574C19.7613 42.0989 19.6073 42.1524 19.2813 42.2889L17.865 42.8646L17.8116 42.7281L19.0443 40.4607L18.1613 40.8228C17.8413 40.9534 17.6872 41.0305 17.5864 41.078C17.4086 41.1611 17.3909 41.268 17.4738 41.5291L17.3731 41.5707L17.0234 40.71L17.1242 40.6685C17.2309 40.8821 17.3197 40.9415 17.4975 40.8881C17.6161 40.8525 17.7761 40.7931 18.0961 40.6625L18.9969 40.2945C19.0976 40.253 19.1509 40.2233 19.2043 40.1283C19.2635 40.0274 19.2576 39.9443 19.2043 39.7603L19.305 39.7188L19.5184 40.247L18.3509 42.4729L19.2161 42.1167C19.548 41.9802 19.6962 41.9149 19.7969 41.8615C19.951 41.7844 19.9688 41.6834 19.868 41.3926L19.9688 41.351L20.3243 42.2236L20.2236 42.277Z" fill="#171635"/>
<path d="M19.1509 45.1442C19.1213 45.0967 19.1035 45.0077 19.1154 44.9542C19.1331 44.883 19.1628 44.8355 19.2102 44.788C19.0442 44.7109 18.825 44.6278 18.7598 44.5269C18.6176 44.2954 18.7065 44.0105 18.9139 43.8799C19.0739 43.779 19.2339 43.8028 19.4057 43.9452C19.5954 44.0995 19.8324 44.2954 19.9332 44.3251L19.9984 44.2835C20.2295 44.1411 20.2888 43.9393 20.1821 43.7731C20.1347 43.6959 20.0695 43.6722 20.0102 43.6662C19.945 43.6603 19.8561 43.6781 19.7435 43.7078C19.6843 43.7256 19.6428 43.7078 19.6132 43.6603C19.5776 43.6009 19.5895 43.4763 19.6665 43.4288C19.7139 43.3991 19.7791 43.4169 19.8621 43.4585C19.9865 43.5119 20.2236 43.6247 20.3776 43.7849C20.4369 43.8799 20.4725 43.9986 20.4606 44.1114C20.431 44.2835 20.3539 44.4082 20.188 44.5091L19.5598 44.9008C19.4117 44.9958 19.3998 45.0789 19.4354 45.1382C19.4591 45.1798 19.5006 45.2095 19.542 45.2332L19.4709 45.3222L19.1509 45.1442ZM19.8265 44.3963C19.7495 44.3488 19.5835 44.236 19.5065 44.1767C19.3761 44.0876 19.2635 44.052 19.145 44.1292C18.9731 44.236 18.9731 44.4141 19.0383 44.521C19.0917 44.6041 19.2161 44.6931 19.3228 44.7168C19.4709 44.6159 19.6724 44.4913 19.8265 44.3963Z" fill="#171635"/>
<path d="M20.3834 46.7285C20.3182 46.6988 20.2649 46.6632 20.2412 46.6335C20.0871 46.4436 20.1226 46.2477 20.3656 46.0577L21.2368 45.3633L21.0708 45.1555L21.0945 45.114L21.2427 45.1258L21.3553 45.2624L21.6042 45.0605C21.7109 45.0665 21.859 45.0962 21.9598 45.1021L21.9894 45.1496C21.859 45.2446 21.6812 45.3811 21.539 45.4939L21.8116 45.8381C21.8057 45.8856 21.7286 45.9331 21.6753 45.9153L21.4205 45.5948L20.656 46.2061C20.413 46.402 20.4486 46.5326 20.5079 46.6098C20.5671 46.681 20.6442 46.7285 20.7034 46.7522L20.6442 46.8412L20.3834 46.7285Z" fill="#171635"/>
<path d="M22.5229 48.8544C22.3747 48.7476 22.191 48.6348 22.0132 48.5398C22.0547 48.4983 22.1495 48.3974 22.2206 48.3261C21.954 48.3083 21.7465 48.2787 21.5984 48.1303C21.4147 47.9522 21.3673 47.6851 21.6576 47.3883L22.1732 46.8541C22.3155 46.7057 22.3095 46.6701 22.2562 46.587L22.191 46.498L22.2621 46.4268C22.3866 46.5336 22.594 46.682 22.7007 46.7592C22.6058 46.8363 22.4814 46.9728 22.3036 47.1509L21.9421 47.5248C21.705 47.7682 21.7643 47.9581 21.8888 48.0769C21.9895 48.1778 22.1317 48.2312 22.3095 48.2312L22.9318 47.5901C23.074 47.4417 23.0622 47.3883 22.9792 47.2874L22.9022 47.1925L22.9733 47.1212C23.157 47.2815 23.3762 47.4418 23.4533 47.4892L22.5644 48.4092C22.434 48.5458 22.434 48.5873 22.5347 48.6942L22.6118 48.7713L22.5229 48.8544Z" fill="#171635"/>
<path d="M23.9279 50.0579L23.2227 49.5356L23.2878 49.4525C23.4953 49.5772 23.5249 49.5772 23.673 49.3754L24.1472 48.7343C24.2953 48.5325 24.2894 48.5147 24.1294 48.3604L24.1886 48.2832C24.3546 48.3722 24.5205 48.4375 24.7161 48.4791C24.639 48.58 24.5442 48.7165 24.4672 48.8174C24.6924 48.7343 24.9472 48.6631 25.1013 48.7758C25.2139 48.8589 25.2257 48.9777 25.1724 49.0548C25.1191 49.1261 25.0242 49.1557 24.9413 49.1498C24.8939 49.1439 24.8761 49.126 24.8642 49.0845C24.8524 49.0073 24.8405 48.948 24.7813 48.9064C24.7161 48.8589 24.5324 48.8708 24.3486 48.9777L23.9219 49.5534C23.7738 49.7552 23.7738 49.7849 23.999 49.9748L23.9279 50.0579Z" fill="#171635"/>
<path d="M26.049 51.4232C26.0015 51.3936 25.9423 51.3283 25.9304 51.2748C25.9127 51.2095 25.9186 51.1502 25.9304 51.079C25.7467 51.0968 25.5156 51.1265 25.4089 51.0671C25.1719 50.9365 25.1126 50.6457 25.2311 50.4261C25.32 50.2599 25.4741 50.2064 25.6934 50.248C25.9364 50.2895 26.2327 50.343 26.3393 50.3252L26.3749 50.2599C26.5053 50.0224 26.4638 49.8206 26.2919 49.7197C26.2149 49.6782 26.1497 49.69 26.0904 49.7079C26.0252 49.7316 25.966 49.7969 25.8771 49.874C25.8297 49.9156 25.7882 49.9215 25.7349 49.8978C25.6697 49.8622 25.6223 49.7494 25.6697 49.6663C25.6934 49.6188 25.7645 49.601 25.8534 49.5951C25.9897 49.5773 26.2504 49.5654 26.4638 49.6307C26.5645 49.6841 26.6534 49.7731 26.6949 49.88C26.7542 50.0462 26.7482 50.1886 26.6475 50.3608L26.286 51.0077C26.1971 51.1621 26.2327 51.2392 26.2919 51.2748C26.3334 51.2986 26.3867 51.3045 26.4342 51.3045L26.4164 51.4173L26.049 51.4232ZM26.2801 50.4439C26.1853 50.4379 25.9897 50.4201 25.8949 50.4082C25.7349 50.3964 25.6223 50.4142 25.5571 50.5388C25.4563 50.7169 25.5452 50.8712 25.6519 50.9306C25.7408 50.9781 25.8889 50.9959 25.9897 50.9662C26.0786 50.8059 26.1912 50.6041 26.2801 50.4439Z" fill="#171635"/>
<path d="M27.1396 51.9041L27.1811 51.8032C27.4182 51.8744 27.4537 51.8685 27.5486 51.637L28.2538 49.9513C28.3427 49.7376 28.3367 49.7079 28.1234 49.5833L28.1649 49.4883C28.3604 49.5476 28.6034 49.5832 28.7338 49.5892C28.6627 49.7554 28.5916 49.9216 28.5264 50.0878L27.833 51.7497C27.7382 51.9812 27.75 52.0109 27.9693 52.1237L27.9278 52.2246L27.1396 51.9041Z" fill="#171635"/>
<path d="M33.2312 51.9694C32.9645 51.9575 32.9052 52.0169 32.7511 52.1831C32.6326 52.3137 32.5082 52.4442 32.3363 52.6282C32.4726 52.8063 32.7808 53.2752 32.8637 53.477L32.8341 53.5127C32.6326 53.4592 32.4311 53.3405 32.3956 53.2871C32.36 53.2277 32.2059 53.0259 32.1052 52.8775C31.7733 53.204 31.5066 53.2871 31.234 53.2455C30.7481 53.1684 30.5347 52.7766 30.5881 52.4442C30.6473 52.094 30.8666 51.9872 31.2637 51.8091C31.1096 51.6251 31.0207 51.4352 31.0503 51.2275C31.1096 50.8891 31.4296 50.6754 31.7674 50.7289C32.0815 50.7763 32.2948 51.0316 32.2474 51.3402C32.2178 51.4946 32.1289 51.5955 32.0341 51.6489C31.9511 51.6964 31.8267 51.7498 31.6785 51.8091C31.7852 51.9338 32.0578 52.2365 32.2593 52.5155C32.3659 52.3908 32.4608 52.2781 32.5615 52.1237C32.6622 51.9635 32.6385 51.9041 32.3659 51.8329L32.3837 51.726L33.2489 51.8566L33.2312 51.9694ZM31.3644 53.0081C31.6252 53.0497 31.7852 52.9903 32.0222 52.7648C31.8622 52.5155 31.6311 52.2543 31.3466 51.9278C31.0503 52.0644 30.9496 52.2128 30.9199 52.4086C30.8666 52.7588 31.1214 52.9666 31.3644 53.0081ZM31.7081 50.8594C31.5185 50.8298 31.3822 50.9604 31.3466 51.18C31.317 51.3699 31.394 51.5064 31.5955 51.7201C31.8326 51.6014 31.9392 51.4946 31.9689 51.3046C31.9926 51.0909 31.9156 50.8951 31.7081 50.8594Z" fill="#171635"/>
<path d="M38.0323 50.8784C37.7953 50.9318 37.7182 50.9793 37.7301 51.1574C37.7419 51.2761 37.7538 51.4364 37.7953 51.7925L37.979 53.312L37.8367 53.3298L35.9818 51.5432L36.0944 52.4929C36.1359 52.8312 36.1655 53.0034 36.1893 53.1102C36.2189 53.3001 36.3196 53.3476 36.5982 53.3357L36.61 53.4426L35.6914 53.5494L35.6796 53.4426C35.9107 53.3951 35.9937 53.3298 35.9878 53.1399C35.9878 53.0152 35.97 52.8431 35.9285 52.4988L35.8159 51.5313C35.804 51.4245 35.7863 51.3651 35.7092 51.288C35.6263 51.2049 35.5433 51.1871 35.3537 51.193L35.3418 51.0862L35.9107 51.0209L37.7419 52.7362L37.6293 51.8103C37.5878 51.4601 37.5582 51.2939 37.5345 51.1811C37.5049 51.009 37.4101 50.9674 37.1019 50.9852L37.09 50.8784L38.0264 50.7656L38.0323 50.8784Z" fill="#171635"/>
<path d="M41.0899 52.344C40.924 52.4212 40.7403 52.534 40.5684 52.6408C40.5506 52.5814 40.5092 52.4509 40.4795 52.3618C40.3314 52.5874 40.2069 52.7536 40.0054 52.8129C39.7625 52.8901 39.5017 52.8011 39.3832 52.4034L39.1639 51.6911C39.1046 51.4952 39.0691 51.4834 38.9683 51.4893L38.8617 51.5012L38.832 51.4062C38.9861 51.3528 39.2172 51.24 39.3358 51.1806C39.3595 51.2994 39.4128 51.4774 39.4898 51.7208L39.6439 52.2194C39.7447 52.5399 39.9402 52.5814 40.1002 52.528C40.2365 52.4865 40.3491 52.3856 40.438 52.2312L40.1773 51.3825C40.118 51.1866 40.0647 51.1747 39.9343 51.1925L39.8099 51.2163L39.7802 51.1213C40.0114 51.0382 40.2543 50.9195 40.3314 50.8779L40.7047 52.1007C40.7581 52.2847 40.7995 52.3025 40.9418 52.2668L41.0425 52.2372L41.0899 52.344Z" fill="#171635"/>
<path d="M42.6836 51.7379C42.6362 51.7973 42.5888 51.8329 42.5532 51.8507C42.328 51.9516 42.1502 51.8685 42.0258 51.5895L41.5636 50.5745L41.3265 50.6814L41.2969 50.6457L41.3443 50.5033L41.5043 50.4321L41.3739 50.1412C41.4095 50.0403 41.4687 49.9038 41.5043 49.8088L41.5576 49.791C41.6169 49.9394 41.7058 50.1412 41.7828 50.3134L42.1799 50.1353C42.2273 50.1531 42.251 50.2362 42.2213 50.2896L41.848 50.4617L42.251 51.3521C42.3813 51.6311 42.5117 51.637 42.6065 51.5954C42.6895 51.5598 42.7547 51.4886 42.7902 51.4411L42.8614 51.5183L42.6836 51.7379Z" fill="#171635"/>
<path d="M44.4675 50.7831L43.7148 51.2282L43.6615 51.1333C43.857 50.9908 43.8689 50.9611 43.7385 50.7475L43.3355 50.0649C43.2052 49.8453 43.1874 49.8453 42.9859 49.9343L42.9385 49.8512C43.0866 49.7265 43.2052 49.6019 43.3237 49.4416C43.3889 49.5485 43.4718 49.6969 43.537 49.8037C43.5489 49.5663 43.5844 49.2992 43.7445 49.2042C43.8689 49.133 43.9815 49.1686 44.0289 49.2517C44.0763 49.3289 44.0645 49.4298 44.023 49.501C43.9993 49.5425 43.9756 49.5544 43.9341 49.5425C43.8571 49.5247 43.7978 49.5129 43.7385 49.5485C43.6674 49.59 43.6081 49.7621 43.6319 49.9758L43.9993 50.5931C44.1297 50.8127 44.1534 50.8187 44.42 50.6881L44.4675 50.7831Z" fill="#171635"/>
<path d="M44.5977 48.1531C44.5147 48.2184 44.3784 48.1946 44.3132 48.1115C44.2421 48.0106 44.2658 47.886 44.3547 47.8207C44.4436 47.7554 44.5621 47.7732 44.6332 47.8741C44.6984 47.9572 44.6866 48.0819 44.5977 48.1531ZM45.5281 50.0762L45.4629 49.9872C45.6407 49.8269 45.6525 49.7913 45.4984 49.5836L45.0303 48.9544C44.888 48.7645 44.8703 48.7585 44.6628 48.8654L44.6095 48.7941C44.7458 48.6457 44.8643 48.5033 44.9532 48.349C45.0481 48.4795 45.1429 48.6042 45.2377 48.7348L45.7355 49.4114C45.8896 49.6192 45.9251 49.6192 46.1385 49.4886L46.2037 49.5717L45.5281 50.0762Z" fill="#171635"/>
<path d="M47.4844 48.4676C47.4607 48.5388 47.4252 48.5923 47.3955 48.616C47.2118 48.7822 47.0162 48.7584 46.8148 48.5329L46.068 47.7079L45.8725 47.8859L45.831 47.8622V47.7079L45.9614 47.5891L45.748 47.3517C45.748 47.2449 45.7658 47.0965 45.7658 46.9896L45.8132 46.96C45.914 47.0846 46.0621 47.2508 46.1866 47.3873L46.5066 47.0905C46.5599 47.0965 46.6073 47.1677 46.5955 47.2211L46.2932 47.5001L46.9511 48.2242C47.1585 48.4557 47.2889 48.4142 47.36 48.3489C47.4252 48.2895 47.4726 48.2005 47.4903 48.1471L47.5852 48.2005L47.4844 48.4676Z" fill="#171635"/>
<path d="M46.9981 45.9689C46.927 46.046 46.7907 46.0579 46.7136 45.9808C46.6247 45.8977 46.6247 45.7671 46.6958 45.684C46.7669 45.6068 46.8914 45.6009 46.9803 45.678C47.0573 45.7552 47.0692 45.8858 46.9981 45.9689ZM48.29 47.6724L48.213 47.6011C48.3552 47.4053 48.3611 47.3756 48.1715 47.2035L47.5907 46.6752C47.4129 46.5149 47.3951 46.5149 47.2173 46.6574L47.1462 46.5981C47.2529 46.4259 47.3359 46.2597 47.3951 46.0935C47.5137 46.2004 47.6322 46.3072 47.7507 46.414L48.373 46.9779C48.5626 47.1501 48.5982 47.1441 48.7819 46.9779L48.8589 47.0491L48.29 47.6724Z" fill="#171635"/>
<path d="M48.563 44.6094C48.8356 44.2176 49.3393 44.1404 49.7423 44.4194C50.246 44.7756 50.2223 45.3216 50.009 45.6244C49.7067 46.0577 49.1734 46.0755 48.8237 45.8262C48.3141 45.476 48.3555 44.9061 48.563 44.6094ZM48.64 44.7221C48.5037 44.9121 48.5689 45.2148 48.9304 45.47C49.3274 45.749 49.7364 45.7787 49.9141 45.5175C50.0504 45.3216 50.0208 45.0605 49.5941 44.7637C49.2385 44.5084 48.8356 44.4491 48.64 44.7221Z" fill="#171635"/>
<path d="M51.7448 42.3128C51.6855 42.4909 51.6381 42.6927 51.6026 42.8945C51.5492 42.8648 51.4248 42.8054 51.3418 42.7639C51.4011 43.0251 51.4366 43.2328 51.3418 43.4168C51.2292 43.6483 50.9862 43.7729 50.6188 43.5889L49.9551 43.2566C49.7713 43.1616 49.7358 43.1794 49.6765 43.2566L49.6113 43.3456L49.5225 43.2981C49.5876 43.1497 49.6647 42.9064 49.7062 42.7758C49.8128 42.8411 49.9728 42.9242 50.198 43.0369L50.6603 43.2684C50.9625 43.4168 51.1225 43.304 51.1996 43.1497C51.2647 43.0251 51.2707 42.8707 51.2233 42.6986L50.4292 42.3009C50.2455 42.206 50.198 42.2356 50.1269 42.3484L50.0558 42.4493L49.9669 42.4018C50.0677 42.1763 50.1447 41.9211 50.1743 41.832L51.3181 42.4018C51.4899 42.4849 51.5255 42.4731 51.5966 42.3484L51.65 42.2534L51.7448 42.3128Z" fill="#171635"/>
<path d="M51.3365 40.0982C51.1054 40.0923 50.9276 40.1398 50.8565 40.3594C50.815 40.484 50.8683 40.6146 51.0165 40.6621C51.1706 40.7155 51.2772 40.6324 51.4432 40.4662C51.698 40.205 51.858 40.0863 52.0951 40.1694C52.4269 40.2822 52.4921 40.6443 52.3973 40.9292C52.3321 41.1191 52.2195 41.2616 52.1484 41.3269C52.0358 41.309 51.8284 41.2734 51.7039 41.2497L51.7217 41.1369C51.9765 41.1488 52.2076 41.0894 52.2906 40.8342C52.338 40.6977 52.2847 40.5493 52.1306 40.4959C51.9706 40.4425 51.8521 40.5077 51.6921 40.668C51.4847 40.8817 51.295 41.0479 51.0402 40.9589C50.7735 40.8698 50.6491 40.579 50.7676 40.2347C50.8209 40.0804 50.898 39.9736 50.9335 39.9023C51.0224 39.9202 51.2595 39.9736 51.3543 39.9854L51.3365 40.0982Z" fill="#171635"/>
<path d="M56.3919 37.5989C55.3607 37.13 54.6436 36.0912 54.6436 34.8804C54.6436 33.6754 55.3548 32.6426 56.38 32.1737C56.7178 32.0194 57.0912 31.9244 57.4882 31.9066C57.4349 31.4971 57.3697 31.0935 57.2926 30.6898C55.3014 20.0236 45.9558 11.9512 34.7256 11.9512C23.5014 11.9512 14.1617 20.0176 12.1645 30.672C12.0875 31.0756 12.0223 31.4852 11.9689 31.9007C12.3601 31.9007 12.7394 31.9779 13.0831 32.1203C14.1735 32.5655 14.938 33.6339 14.938 34.8804C14.938 36.1328 14.1617 37.2071 13.0653 37.6464C12.7216 37.7829 12.3542 37.86 11.963 37.86H11.9512C12.0045 38.2755 12.0697 38.6851 12.1408 39.0887C14.0905 49.8084 23.4599 57.9401 34.7256 57.9401C45.9973 57.9401 55.3725 49.8024 57.3104 39.0768C57.3815 38.6732 57.4467 38.2696 57.5001 37.86C57.103 37.8422 56.7297 37.7532 56.3919 37.5989Z" stroke="#171635" stroke-miterlimit="10"/>
<path d="M56.207 38.8285C54.3818 49.0496 45.4569 56.8074 34.7245 56.8074C24.0218 56.8074 15.1147 49.0912 13.2598 38.9116C14.9784 38.3834 16.2347 36.7808 16.2347 34.8873C16.2347 32.9998 14.9961 31.4031 13.2835 30.8689C15.1917 20.7487 24.0692 13.0918 34.7304 13.0918C45.4213 13.0918 54.3166 20.7903 56.1893 30.952C54.607 31.5574 53.481 33.0888 53.481 34.8873C53.475 36.6917 54.6129 38.229 56.207 38.8285Z" stroke="#171635" stroke-width="0.5" stroke-miterlimit="10"/>
<path d="M34.7542 47.8688C41.8958 47.8688 47.6852 42.0702 47.6852 34.9173C47.6852 27.7644 41.8958 21.9658 34.7542 21.9658C27.6127 21.9658 21.8232 27.7644 21.8232 34.9173C21.8232 42.0702 27.6127 47.8688 34.7542 47.8688Z" stroke="#171635" stroke-width="0.5" stroke-miterlimit="10"/>
</svg>
